<svg width="800" height="600" xmlns="http://www.w3.org/2000/svg">

 <g>
  <title>Layer 1</title>
  <g stroke="null">
   <g stroke="null" transform="translate(0 465) scale(1 -1)">
    <g stroke="null" transform="translate(0 465) scale(1 -1)" xmlns="http://www.w3.org/2000/svg">
     <g stroke="null" transform="translate(925 0) scale(-1 1)" xmlns="http://www.w3.org/2000/svg">
      <g stroke="null" transform="translate(925 0) scale(-1 1)" xmlns="http://www.w3.org/2000/svg">
       <path stroke="null" d="m2.50002,90.49999l795.99998,0l0,399.00001l-795.99998,0l0,-399.00001z" fill="#fdfdfd" xmlns="http://www.w3.org/2000/svg"/>
       <path stroke="null" d="m535.1746,171.15806c4.81042,1.22875 7.40409,4.71592 10.59584,8.25887q1.7271,1.88174 3.45851,3.7609l1.65912,1.81052a153.17621,152.73549 0 0 0 5.36977,5.47617a92.07784,91.8129 0 0 1 5.72776,6.14031c3.49638,4.01059 7.25436,7.72601 11.05278,11.45001c4.31991,4.23455 8.49353,8.50599 12.446,13.08548c5.50402,6.24928 12.10436,11.23979 19.394,15.23065l2.06702,1.13265c9.31277,4.19594 22.13654,3.95568 31.65498,0.47623a98.10162,97.81936 0 0 0 5.00232,-2.46694l2.31571,-1.19014c7.28878,-4.05006 13.15422,-9.55455 18.51195,-15.87763c1.68666,-1.97355 3.44216,-3.87159 5.20369,-5.77821c3.42667,-3.78578 6.5883,-7.72258 9.72239,-11.7469c3.33201,-4.26887 6.73631,-8.47339 10.17761,-12.65474l1.51971,-1.85685c2.68747,-3.25464 5.43431,-6.32308 8.48407,-9.24393l1.72108,0.85806c-24.46861,51.93007 -24.46861,51.93007 -36.1427,68.64516l-1.94998,2.79214c-4.86205,6.68947 -10.36865,12.73025 -16.12137,18.65947l-1.42161,1.47845c-17.82868,18.21414 -43.2697,31.27645 -67.42163,38.85059l-3.36471,1.08288a561.93296,560.31614 0 0 1 -8.77407,2.71148a341.63459,340.65162 0 0 0 -4.39306,1.37719c-6.8783,2.10912 -13.84265,3.5378 -20.90167,4.9107l-2.9594,0.58005l-2.82257,0.532l-2.52569,0.4788c-2.56785,0.3561 -5.02298,0.39814 -7.61234,0.33979l-0.86054,-2.57419l1.59802,-0.80915c13.19467,-6.6929 13.19467,-6.6929 25.99349,-14.09972l1.62298,-0.98677c2.70726,-1.71012 4.95843,-3.50691 7.19412,-5.80395l2.31571,-2.32621l1.72108,0l0.7022,-1.50161c1.03093,-1.95381 2.22622,-3.59357 3.54629,-5.3629c5.60728,-8.379 6.68554,-19.18032 4.7519,-28.9511c-1.39149,-5.9481 -3.36127,-11.39939 -5.88093,-16.95536l-1.13419,-2.54674a1210.78051,1207.2968 0 0 0 -3.70635,-8.17907l-1.25811,-2.76297a1251.22591,1247.62583 0 0 0 -13.83491,-29.28746l-1.00683,-2.05935a2900.88209,2892.53554 0 0 0 -4.9309,-10.03764l-1.81058,-3.68281l-0.83472,-1.67923a66.26162,66.07097 0 0 1 -3.86125,-9.69699" fill="#64b631" xmlns="http://www.w3.org/2000/svg"/>
       <path stroke="null" d="m448.30734,353.25566c8.26205,5.59544 11.47445,13.53425 13.72132,22.97983c2.65046,15.0719 1.20476,30.52994 -6.88432,43.76129c-3.88104,5.3037 -9.00297,8.84493 -15.48973,10.29677c-7.17605,0.76196 -13.42787,-0.64784 -19.09281,-5.20159c-9.29642,-8.92044 -12.76784,-22.02652 -13.17057,-34.61347c-0.04131,-12.41105 1.80886,-24.88988 10.53474,-34.30027c8.79042,-8.07868 20.14181,-8.97879 30.38138,-2.92257" fill="#050505" xmlns="http://www.w3.org/2000/svg"/>
       <path stroke="null" d="m165.14218,232.9387l19.73908,-0.21452l6.1847,-0.09439q2.45942,-0.01545 4.91799,-0.02574l2.52655,-0.05406c5.99194,-0.00257 11.60525,0.89925 16.18935,5.06258c6.76213,7.76291 6.17868,18.15922 5.51693,27.93257c-0.72285,6.19437 -1.58942,11.67225 -6.02378,16.30323c-1.7512,1.13951 -1.7512,1.13951 -3.49552,1.93065l-1.75206,0.81774c-3.6332,1.51792 -6.6296,1.58999 -10.49429,1.43812l-1.84156,-0.06178q-2.90605,-0.09954 -5.81295,-0.20937l-3.94386,-0.13643c-3.22186,-0.10983 -6.44201,-0.22825 -9.66301,-0.34666l0,21.45161l-12.04757,0l0,-73.79355z" fill="#090909" xmlns="http://www.w3.org/2000/svg"/>
       <path stroke="null" d="m115.39261,231.92018l2.58248,-0.03261c8.29561,-0.0163 16.58864,0.49596 23.07195,6.19952c4.92832,6.35311 4.51009,13.03143 4.57205,20.70081l0.07487,3.08388c0.04991,6.93917 -0.42425,13.69128 -5.29232,19.06534c-4.14781,3.8304 -8.12264,5.41696 -13.80307,5.42983l-2.88711,0.00601l-2.99468,-0.01974l-2.93444,0.01974c-17.08087,-0.03861 -17.08087,-0.03861 -21.99111,-4.84978l-1.21336,-1.39092l-1.61696,-1.84655c-5.1839,-6.27588 -5.43776,-10.97293 -5.4825,-18.90831l-0.05335,-2.32707c-0.04475,-7.58872 1.18582,-14.67033 6.57109,-20.33441c6.07714,-5.07116 13.9115,-4.79143 21.39648,-4.79658" fill="#0f0f0f" xmlns="http://www.w3.org/2000/svg"/>
       <path stroke="null" d="m278.73353,350.49355l19.79243,0c8.64327,16.29207 8.64327,16.29207 12.15513,23.2218l1.45862,2.87194c1.01544,2.22239 1.01544,2.22239 1.01544,3.93852l1.72108,0l0.68757,-2.21638c1.06707,-3.02897 2.36304,-5.79194 3.80703,-8.66045c0.26246,-0.52342 0.52493,-1.0477 0.79686,-1.58742q0.82698,-1.64663 1.65912,-3.29068q1.27704,-2.52443 2.54376,-5.05486c4.14781,-8.23742 4.14781,-8.23742 5.13485,-9.22248a65.40108,65.2129 0 0 1 4.0368,-0.08409l2.46287,0.00858l2.59023,0.02231l2.59969,0.01115q3.19088,0.01545 6.38177,0.04205l-1.2366,1.39435c-7.58136,11.48948 -1.98441,38.87032 -1.07568,52.23468l0.15318,2.40859c0.14801,2.28245 0.31238,4.56233 0.4819,6.84221l0.1308,2.06107c0.44404,5.51221 1.83811,9.14354 5.84909,13.14297l-24.09513,0l4.3027,-5.14839c0.59291,-2.21295 0.59291,-2.21295 0.45006,-4.46451l-0.0284,-2.52443l-0.09896,-2.66429l-0.05163,-2.78013c-0.13252,-5.95926 -0.42511,-11.90994 -0.82268,-17.85718c-0.506,-7.91479 -0.3795,-15.84073 -0.30893,-23.76753l-1.72108,0l-0.69274,2.22925c-1.04125,2.95517 -2.29592,5.64092 -3.71065,8.43649l-0.77879,1.54452q-1.22369,2.42317 -2.45512,4.84377l-1.63072,3.22804a4527.30367,4514.2775 0 0 1 -3.11516,6.15661q-2.425,4.79401 -4.82763,9.60003c-2.67714,-3.20487 -4.38359,-6.80874 -6.22171,-10.52502l-1.03093,-2.06279a3207.23451,3198.00651 0 0 1 -3.23563,-6.50413l-2.20298,-4.41732q-2.69435,-5.40495 -5.3801,-10.81333a172.96864,172.47097 0 0 0 -1.32093,14.30565l-0.11187,2.08939q-0.11617,2.17691 -0.22804,4.35296c-0.11273,2.18806 -0.23235,4.37527 -0.3511,6.56248c-1.61523,14.68921 -1.61523,14.68921 2.01194,28.46372l1.72108,1.71613l-21.51351,0l4.3027,-5.14839c2.17028,-5.24621 2.13156,-11.47061 2.45426,-17.07119l0.16608,-2.67115q0.17211,-2.79128 0.33389,-5.58343c0.1635,-2.78871 0.33819,-5.57742 0.5146,-8.36527c0.52837,-8.59437 0.94918,-17.18188 1.01544,-25.79342l0.03012,-2.14087c-0.00516,-5.44871 -0.69532,-7.50206 -4.5144,-11.31015" fill="#050505" xmlns="http://www.w3.org/2000/svg"/>
       <path stroke="null" d="m421.58325,234.65483q2.58162,-0.03432 5.16324,-0.0532l2.90432,-0.03089c3.39914,0.09181 6.63821,0.47451 10.00378,0.94215c7.50908,22.28394 7.50908,22.28394 10.32649,31.74839c1.84586,-1.84055 2.32518,-2.99121 3.21326,-5.40323l0.84591,-2.26357l0.88894,-2.41545c7.70184,-20.55065 7.70184,-20.55065 9.68108,-22.52419c3.94988,-0.13128 7.31804,0.05492 11.18703,0.85806c-1.76841,6.06137 -3.727,12.03436 -5.81553,17.99276l-0.90873,2.60508q-0.94229,2.70033 -1.88717,5.3998a25298.17017,25225.38112 0 0 1 -5.60814,16.06211l-0.80977,2.30991l-0.71253,2.03447c-0.6084,1.64748 -0.6084,1.64748 -1.46894,3.36361l-16.35027,0a145.43135,145.01291 0 0 1 -6.07714,-17.59032l-1.26758,-4.53144l-0.61959,-2.21895c-1.02921,-3.62704 -2.12295,-7.23348 -3.22272,-10.83993c-1.53434,2.29446 -2.13414,3.64334 -2.85011,6.22097c-1.26844,4.389 -2.69952,8.7145 -4.17362,13.03915a150.59459,150.16129 0 0 0 -3.41376,11.58645c-1.02146,2.39829 -2.10918,3.61074 -4.19169,5.19215c-2.63239,0.45563 -2.63239,0.45563 -5.5393,0.42903l-2.90174,0.0266c-3.5024,-0.58091 -4.56689,-1.32828 -7.04869,-3.88789c-1.41989,-2.95003 -2.38542,-6.01761 -3.3716,-9.1341l-0.89496,-2.71148c-0.93971,-2.85821 -1.85963,-5.72329 -2.77955,-8.58665q-0.94143,-2.87795 -1.88717,-5.75418c-2.2856,-6.97864 -4.53333,-13.94698 -6.55646,-21.00714l13.76865,0l11.18703,33.46452c3.59276,-9.23277 3.59276,-9.23277 6.56162,-18.60885l1.06535,-3.70684l0.50342,-1.76761a488.78701,487.38065 0 0 1 2.03518,-6.86023l0.6084,-2.01474l0.41306,-1.36432z" fill="#66b735" xmlns="http://www.w3.org/2000/svg"/>
       <path stroke="null" d="m509.45304,233.34114l1.99904,-0.0103a346.79783,345.80001 0 0 1 4.17448,0.01888c2.10488,0.01716 4.20632,0 6.31034,-0.02231c14.09221,-0.02574 14.09221,-0.02574 20.12202,3.90162c3.61771,3.69397 5.27511,7.44628 5.26134,12.57494l0,2.44548l-0.01377,2.63426l-0.0043,2.70119a4004.95557,3993.43233 0 0 1 -0.02582,8.54975q-0.00774,2.89768 -0.01205,5.79365q-0.01463,7.10477 -0.04217,14.21041q-8.97888,0.0961 -17.95776,0.14158q-3.05148,0.01888 -6.10123,0.05234c-2.93444,0.03175 -5.8663,0.04634 -8.79989,0.05749c-0.90099,0.01287 -1.80197,0.02574 -2.7305,0.04033c-5.71055,0.00086 -11.94,-0.19478 -16.54819,-3.99c-4.39306,-4.87037 -5.07461,-10.05652 -4.92057,-16.36586c0.38896,-3.32672 1.39494,-4.97677 3.70463,-7.39394c5.40505,-3.9797 9.58384,-5.27795 16.30724,-5.23248l2.01366,0.00429c2.12209,0.00429 4.24419,0.01545 6.36628,0.02574l4.31733,0.01201q5.28974,0.01459 10.58035,0.04205a180.71351,180.19355 0 0 0 -0.64541,-4.18306l-0.36315,-2.35281c-0.52493,-2.12886 -0.52493,-2.12886 -2.23999,-3.16197c-3.58501,-1.12149 -7.22424,-0.87952 -10.95038,-0.86665l-2.4775,-0.0429l-2.38972,-0.00086l-2.17373,-0.00858c-2.54892,0.40844 -3.65558,1.02453 -5.43689,2.89425l-0.86054,5.14839l-12.04757,0c-0.36143,-5.84514 -0.0981,-8.99252 3.44216,-13.72903c3.96709,-3.24348 7.14163,-3.94366 12.14223,-3.88789" fill="#66b634" xmlns="http://www.w3.org/2000/svg"/>
       <path stroke="null" d="m286.96287,237.06857c3.29587,2.95003 4.99458,6.25357 6.39984,10.45723l0,15.44516l-43.88757,0c0.89754,7.59044 0.89754,7.59044 5.16324,12.0129c3.22014,1.60458 7.10634,1.01681 10.64919,1.01938l2.50073,0.03175l2.41382,0.00429l2.20643,0.01115c2.21331,-0.22825 3.58845,-0.74652 5.46443,-1.92464c0.9595,-1.65692 0.9595,-1.65692 1.50595,-3.53952l1.07568,-3.325l12.04757,0c0.3468,5.52679 0.30979,10.19981 -3.44216,14.5871c-9.71206,6.14803 -23.37572,5.56197 -34.30717,3.7343c-7.83952,-2.37684 -14.25485,-6.92372 -18.24604,-14.12803c-3.62546,-7.33559 -3.46626,-14.79904 -1.01544,-22.53449c2.44652,-6.55561 5.39129,-11.37536 11.97356,-14.49271c13.22651,-4.38471 27.01753,-3.69054 39.49795,2.64026" fill="#0e0e0e" xmlns="http://www.w3.org/2000/svg"/>
       <path stroke="null" d="m637.57892,183.17096c2.45254,1.73501 4.22095,3.61588 6.02378,6.00645l1.31749,1.62174c4.49891,6.52987 3.764,14.64287 2.63584,22.15952c-1.64966,6.15661 -5.97645,10.906 -11.11646,14.5236c-6.67607,3.73001 -13.9528,4.72365 -21.39648,2.88224c-8.30594,-2.96461 -13.23683,-8.53774 -17.04903,-16.30323c-2.10488,-6.29819 -1.95859,-14.94748 0.80719,-21.02258c8.44104,-14.14005 24.41009,-17.07377 38.77768,-9.86774" fill="#63b630" xmlns="http://www.w3.org/2000/svg"/>
       <path stroke="null" d="m378.23352,349.31371l2.05325,0.01545c5.73808,0.12528 10.84453,1.19443 16.3408,2.88052l0,17.16129c-2.58162,-2.57419 -2.58162,-2.57419 -4.41027,-5.09433c-3.45593,-4.16333 -8.14157,-5.77992 -13.39173,-6.48954c-3.44474,0.51827 -5.32416,1.69039 -8.01421,3.86129c-1.68838,3.36705 -1.14968,6.80102 -0.05335,10.29677c3.6616,5.31142 9.06752,8.38243 14.62919,11.47661c7.07364,4.01746 14.11114,9.07146 17.26416,16.83952c0.49395,2.39829 0.57656,4.68932 0.53784,7.13309l-0.02582,1.93837c-0.24095,5.68639 -1.59974,9.94411 -5.67526,14.09628c-7.93418,6.10685 -15.43638,7.66252 -25.26547,6.65686c-6.11328,-1.05971 -12.96318,-4.31263 -16.90102,-9.23106c0.12908,-6.71006 2.49729,-13.30429 4.3027,-19.73548l1.72108,0l0.64541,3.05728c1.61007,6.31021 4.37585,10.32595 9.68108,14.10401c3.57124,1.96754 7.17863,2.2241 11.18703,1.71613c3.65041,-1.3197 3.65041,-1.3197 6.14426,-4.123c1.70817,-4.34953 1.38719,-8.96849 -0.44318,-13.19875c-4.0084,-4.2826 -8.91004,-7.23177 -13.89343,-10.27704c-7.73368,-4.75711 -13.96829,-9.29627 -17.62387,-17.87863c-0.7633,-5.46845 -1.02576,-11.11537 1.88286,-15.98145c5.06428,-6.65343 11.11646,-9.37006 19.30795,-9.22419" fill="#050505" xmlns="http://www.w3.org/2000/svg"/>
       <path stroke="null" d="m312.29461,232.08064q6.44803,-0.06435 12.89434,-0.09439q2.18405,-0.01287 4.3681,-0.03432c26.51928,-0.26772 26.51928,-0.26772 33.50945,5.2771c4.65897,5.60659 4.55226,13.71874 4.47051,20.65018l-0.00688,2.39143a1451.73186,1447.55487 0 0 1 -0.05335,7.47374q-0.01377,2.55103 -0.02323,5.10291q-0.03012,6.21668 -0.08433,12.43336l-13.76865,0l-0.0241,-3.41166c-0.03442,-4.17706 -0.09122,-8.35326 -0.1549,-12.53032a808.04755,805.7226 0 0 1 -0.05421,-5.42297a784.81295,782.55485 0 0 0 -0.10326,-7.79552l-0.00258,-2.44892c-0.06024,-4.47481 -0.06024,-4.47481 -2.11435,-8.34468c-5.12194,-3.41424 -12.27819,-2.52099 -18.19957,-2.0911c-3.12979,0.92671 -5.25962,2.18206 -7.00824,5.04285c-0.78653,1.94523 -0.97241,3.3516 -1.01114,5.44013l-0.05163,2.13401l-0.03012,2.27816l-0.05077,2.3511c-0.05163,2.47466 -0.09122,4.94846 -0.1308,7.42312l-0.10068,5.0377q-0.1222,6.16948 -0.22202,12.33811l-12.04757,0c-0.72716,-6.27846 -0.98704,-12.42649 -0.97499,-18.74356l-0.00258,-2.83676q0,-2.94145 0.00516,-5.88375q0.00516,-4.51771 -0.00602,-9.03714q0,-2.86594 0.00344,-5.73187l-0.00516,-2.73551l0.00861,-2.51842l0.00172,-2.21981c0.10929,-1.77705 0.10929,-1.77705 0.96983,-3.49318" fill="#0a0a0a" xmlns="http://www.w3.org/2000/svg"/>
       <path stroke="null" d="m511.07947,351.35161l5.16324,0l0.86054,21.45161c-1.83295,-2.4369 -3.41462,-4.77084 -5.00146,-7.34675c-2.27097,-3.36619 -3.87329,-5.22218 -7.90665,-6.38228c-4.13318,-0.52514 -7.49359,-0.42646 -11.40216,1.07258c-6.94973,6.92973 -9.41689,16.78374 -9.53479,26.33228l0.01549,2.0379l0.01205,2.15288c0.16867,8.81404 1.95257,17.7053 7.14077,25.03661c3.01619,2.85907 6.14512,4.50226 10.32649,4.77341c4.92746,-0.34837 8.90745,-2.46265 12.31692,-5.95325c1.54295,-2.394 2.83032,-4.82232 4.03335,-7.40081l0.86054,0c0.35971,1.7024 0.62217,3.42454 0.86054,5.14839l0.32959,2.0113c0.33389,3.48203 0.32959,5.66923 -1.78476,8.55662c-5.56942,5.24449 -11.07257,7.47203 -18.65996,7.82726c-7.44195,-0.24884 -14.18859,-2.71921 -19.59709,-7.89076c-8.41006,-10.15434 -9.64752,-20.82351 -9.66129,-33.51171l-0.06368,-3.07187c-0.037,-11.06303 2.58076,-21.413 10.48138,-29.50369c9.09419,-8.18765 19.8389,-8.46824 31.21094,-5.33974" fill="#050505" xmlns="http://www.w3.org/2000/svg"/>
       <path stroke="null" d="m434.49136,358.21613c6.83183,3.19715 9.93752,9.85487 12.69297,16.51774c2.91465,8.07439 3.78638,15.98317 3.87243,24.5089l0.02496,1.80194c-0.04475,7.01468 -1.48701,14.10658 -6.53236,19.27385c-2.84581,1.71613 -4.20116,1.92721 -7.47638,1.39435c-7.66397,-3.82096 -10.79118,-10.77214 -13.70153,-18.41406c-2.29678,-7.51836 -2.94133,-14.60683 -2.91723,-22.45126l-0.04303,-2.80845c-0.0043,-7.48404 1.00167,-13.30343 6.3353,-18.96494c2.67628,-1.33429 4.78719,-1.10347 7.74486,-0.85806" fill="#f6f6f6" xmlns="http://www.w3.org/2000/svg"/>
       <path stroke="null" d="m128.99947,244.09354c3.55834,4.8309 3.97742,9.73045 3.87243,15.55242c0.01291,0.7448 0.02582,1.48874 0.04045,2.25585c-0.03614,5.85028 -1.45001,8.51715 -5.2579,12.92159c-3.13667,2.58277 -7.13388,2.03361 -10.97189,2.0379l-1.9474,0.03175c-4.40253,0.01115 -8.46772,-0.20336 -12.0992,-2.98864c-2.39919,-3.05471 -1.61351,-7.37506 -1.60405,-11.09477l-0.07401,-2.64284c-0.01721,-6.64228 1.44571,-10.91458 6.10984,-15.69143c6.17352,-5.49505 15.15584,-4.57091 21.93174,-0.38184" fill="#f8f8f8" xmlns="http://www.w3.org/2000/svg"/>
       <path stroke="null" d="m190.0445,241.89518l1.79939,-0.02917c5.68559,0.08066 9.24134,2.6497 13.1525,6.51786l1.28048,1.2339c3.51359,4.5649 2.30711,12.1931 1.89233,17.64352c-0.98102,3.48374 -2.54032,5.42983 -5.63654,7.4111c-3.82682,1.50762 -7.12011,1.64319 -11.19735,1.65177l-2.18405,0.0961c-5.11247,0.03604 -5.11247,0.03604 -7.34816,-1.62861c-4.2984,-4.93988 -5.9799,-11.09649 -5.71915,-17.54227c0.59808,-4.88067 1.62298,-9.01568 4.64864,-12.95163c3.11516,-2.41116 5.52467,-2.53301 9.31105,-2.40258" fill="#f5f5f5" xmlns="http://www.w3.org/2000/svg"/>
       <path stroke="null" d="m528.07514,262.70325c3.24768,1.30769 4.58668,2.33651 6.23892,5.4161c0.07229,2.94574 -0.60582,3.99601 -2.52741,6.22097c-3.73475,2.128 -7.00308,2.19665 -11.24124,2.35968l-2.67198,0.25485c-6.63907,0.42732 -6.63907,0.42732 -9.42636,-1.44498c-2.48696,-2.74152 -4.02303,-5.33373 -4.25193,-9.10664c6.7802,-5.51478 15.36839,-5.41095 23.88,-3.69997" fill="#f0f7ec" xmlns="http://www.w3.org/2000/svg"/>
       <path stroke="null" d="m264.42704,241.25163l2.18577,-0.0429c4.40166,-0.00257 7.44712,0.45134 11.26017,2.88481c2.46115,3.12335 1.72108,5.07545 1.72108,9.43871l-30.11892,0c0,-5.30026 0.24439,-6.4003 3.44216,-10.29677c3.71754,-2.28674 7.26468,-2.00015 11.50973,-1.98385" fill="#eaeaea" xmlns="http://www.w3.org/2000/svg"/>
       <path stroke="null" d="m519.2546,242.00244l2.44394,-0.01888c4.27947,0.03947 7.47121,0.10726 10.89444,2.96805c0.86054,1.71613 0.86054,1.71613 0.86054,8.58065l-28.39784,0l0,-0.85806l-6.88432,-0.85806l0,-0.85806l7.74486,0l-0.26849,-2.35968c0.26849,-2.78871 0.26849,-2.78871 1.87168,-4.65586c3.89997,-2.26186 7.30513,-2.03447 11.73519,-1.94094" fill="#eef6ea" xmlns="http://www.w3.org/2000/svg"/>
      </g>
     </g>
    </g>
   </g>
  </g>
 </g>
</svg>