<?xml version="1.0" encoding="UTF-8"?>
<svg version="1.1" xmlns="http://www.w3.org/2000/svg" width="825" height="293">
<path d="M0 0 C6.81718313 0.33254552 10.27454114 4.0468926 14.68359375 8.82421875 C16.47652942 10.86559816 18.23697516 12.93275258 20 15 C25.00149807 20.67982059 30.08129189 26.18844141 35.56640625 31.40625 C37 33 37 33 37 35 C37.99 35.33 38.98 35.66 40 36 C41.40234375 37.42578125 41.40234375 37.42578125 42.9375 39.3125 C46.72496558 43.81011538 50.85390379 47.89002309 55.08764648 51.9621582 C56.42790771 53.27211898 57.71863743 54.63237164 59 56 C59 56.66 59 57.32 59 58 C59.66 58 60.32 58 61 58 C61 58.66 61 59.32 61 60 C61.66 60 62.32 60 63 60 C63 60.66 63 61.32 63 62 C63.928125 62.37125 63.928125 62.37125 64.875 62.75 C67.40358627 64.23740369 67.71839004 65.43678009 69 68 C71.0335948 69.26804566 71.0335948 69.26804566 73 70 C73 70.66 73 71.32 73 72 C73.57234375 72.25523438 74.1446875 72.51046875 74.734375 72.7734375 C77.24304003 74.13157685 79.10666849 75.7439643 81.25 77.625 C85.64099402 81.20043049 90.1452959 83.8608913 95.1875 86.375 C95.85233398 86.70838379 96.51716797 87.04176758 97.20214844 87.38525391 C109.18200015 93.17878875 123.01197945 94.04517396 135.875 90.5 C156.36141523 83.10718942 171.30598926 66.57635744 184.56640625 50.03125 C187.03381788 46.95787693 189.54066358 43.92050725 192.05493164 40.88549805 C197.11496678 34.77476748 202.11892228 28.62980946 207 22.375 C214.55649211 12.70839311 214.55649211 12.70839311 218 9 C218.66 9 219.32 9 220 9 C220.57647428 16.5802364 219.33924925 21.85061203 216 28.625 C215.59064209 29.49253906 215.18128418 30.36007813 214.75952148 31.25390625 C213.52791761 33.84705714 212.26915978 36.4250554 211 39 C210.65340332 39.70995117 210.30680664 40.41990234 209.94970703 41.15136719 C208.35650597 44.40783513 206.73671025 47.64925837 205.08984375 50.87890625 C203.57380586 53.85219837 202.0933147 56.84078719 200.62890625 59.83984375 C192.96335102 75.49079237 184.64984527 90.41688225 174.19287109 104.38525391 C173.08477798 105.88523914 172.01896928 107.4162107 170.95703125 108.94921875 C153.15548509 133.75465193 128.65136011 152.63928704 102 167 C101.34531738 167.35755371 100.69063477 167.71510742 100.01611328 168.08349609 C73.70688614 182.33064031 44.61121839 191.31331221 15.5625 198 C14.31388184 198.29092529 13.06526367 198.58185059 11.77880859 198.8815918 C3.48648993 200.71255794 -4.52131559 201.62342208 -13 202 C-13.33 200.35 -13.66 198.7 -14 197 C-11.54467213 195.61129392 -9.08922507 194.22279988 -6.63354492 192.8347168 C-4.531516 191.64588719 -2.43012342 190.45593179 -0.3293457 189.26489258 C4.34394222 186.61783052 9.01792657 183.97645255 13.73828125 181.4140625 C21.39081236 177.2481401 28.56437337 172.94772713 35 167 C35.69351563 166.360625 36.38703125 165.72125 37.1015625 165.0625 C46.83751946 155.1385902 52.13701319 142.25816603 52.3125 128.5 C52.34150391 127.77296875 52.37050781 127.0459375 52.40039062 126.296875 C52.52515736 115.16384328 47.68935023 104.63151322 43.375 94.5625 C42.909729 93.47106689 42.44445801 92.37963379 41.96508789 91.25512695 C33.23781485 71.05843912 23.55344553 51.26933889 13.875 31.515625 C13.45871841 30.66486893 13.04243683 29.81411285 12.61354065 28.93757629 C10.60901023 24.8422983 8.59802133 20.75046395 6.57397461 16.66479492 C5.84992952 15.19197718 5.12604387 13.71908103 4.40234375 12.24609375 C4.07093384 11.58325378 3.73952393 10.92041382 3.39807129 10.23748779 C1.73894528 6.8456464 0.52618796 3.74858631 0 0 Z " fill="#62B530" transform="translate(605,0)"/>
<path d="M0 0 C2.19897461 -0.28051758 2.19897461 -0.28051758 4.90234375 -0.14453125 C6.36124023 -0.07588867 6.36124023 -0.07588867 7.84960938 -0.00585938 C8.86861328 0.05794922 9.88761719 0.12175781 10.9375 0.1875 C11.95263672 0.23197266 12.96777344 0.27644531 14.01367188 0.32226562 C21.59284196 0.72856131 21.59284196 0.72856131 25 3 C25.92425801 5.41276063 26.68138781 7.72452809 27.375 10.203125 C27.69090088 11.27623932 27.69090088 11.27623932 28.01318359 12.37103271 C28.68592802 14.66111908 29.34390045 16.9550946 30 19.25 C30.65791101 21.53001858 31.31906949 23.80896254 31.98681641 26.08612061 C32.40150201 27.50234173 32.8103672 28.92028479 33.21240234 30.34014893 C34.41798361 34.4819739 35.95980278 38.20116458 38 42 C41.85310808 33.48407271 45.39289406 24.84302766 48.94189453 16.19750977 C49.73345841 14.27048249 50.52681819 12.34420175 51.3203125 10.41796875 C51.78711426 9.28125732 52.25391602 8.1445459 52.73486328 6.97338867 C53.74683309 4.59500575 54.80705289 2.29108816 56 0 C58.0836309 0.14151828 60.16689938 0.28837936 62.25 0.4375 C63.99023438 0.55931641 63.99023438 0.55931641 65.765625 0.68359375 C68.32567884 0.9340338 70.53465371 1.3414807 73 2 C71.63309997 9.24612347 69.32719767 15.90246063 66.71768188 22.79071045 C62.32464487 34.40123995 58.206954 46.08827859 54.3125 57.875 C53.98270142 58.87277969 53.98270142 58.87277969 53.64624023 59.89071655 C52.42446532 63.59176269 51.2111981 67.29546784 50 71 C42.08 71 34.16 71 26 71 C21.50816219 58.64744602 21.50816219 58.64744602 19.7109375 52.50390625 C19.52157623 51.86307602 19.33221497 51.22224579 19.13711548 50.56199646 C18.3449714 47.88115335 17.56079368 45.19800227 16.77636719 42.51489258 C16.19511018 40.53115087 15.60941456 38.54875786 15.0234375 36.56640625 C14.68231934 35.40052979 14.34120117 34.23465332 13.98974609 33.03344727 C13.16909647 30.5182594 12.27004041 28.31113278 11 26 C9.58072468 30.2282956 8.16507617 34.45779741 6.75 38.6875 C6.35425781 39.86634766 5.95851563 41.04519531 5.55078125 42.25976562 C3.21378347 49.25160326 0.99375127 56.2559556 -1.04174805 63.34204102 C-2.37853169 67.0499553 -3.82021921 68.71708046 -7 71 C-10.59520831 72.19840277 -13.71801672 72.02290222 -17.4375 71.8125 C-18.75621094 71.75707031 -20.07492187 71.70164062 -21.43359375 71.64453125 C-25.63086533 70.88598819 -26.39674136 70.29199732 -29 67 C-30.30340162 64.18931285 -31.25266285 61.28850197 -32.20703125 58.34375 C-32.49551437 57.48680542 -32.7839975 56.62986084 -33.08122253 55.74694824 C-34.00285134 53.0015612 -34.90810892 50.25110789 -35.8125 47.5 C-36.70591055 44.81903945 -37.60267883 42.1392185 -38.49972534 39.45947266 C-39.09641757 37.6735271 -39.69059468 35.88673927 -40.28225708 34.09912109 C-41.80681136 29.50360514 -43.37101636 24.92742989 -45.00927734 20.37109375 C-45.33425705 19.46387573 -45.65923676 18.55665771 -45.99406433 17.62194824 C-46.61473643 15.89786458 -47.24191492 14.17610444 -47.87666321 12.45715332 C-49.29164527 8.52138543 -50.41818326 5.25358236 -50 1 C-47.04160645 0.97310551 -44.08345573 0.95321259 -41.125 0.9375 C-40.28324219 0.92912109 -39.44148438 0.92074219 -38.57421875 0.91210938 C-37.76855469 0.90888672 -36.96289062 0.90566406 -36.1328125 0.90234375 C-35.01737061 0.89448853 -35.01737061 0.89448853 -33.87939453 0.88647461 C-32 1 -32 1 -30 2 C-28.99381915 4.49461631 -28.0985726 6.95934908 -27.25 9.5078125 C-26.9912207 10.26665741 -26.73244141 11.02550232 -26.46582031 11.80734253 C-25.63694058 14.24427018 -24.81859101 16.68459956 -24 19.125 C-23.44855729 20.74761369 -22.89648146 22.37001236 -22.34375 23.9921875 C-21.81193571 25.5597045 -21.28066862 27.12740728 -20.75 28.6953125 C-20.38116699 29.78478683 -20.38116699 29.78478683 -20.00488281 30.89627075 C-18.55021725 35.2356259 -17.22506943 39.59018343 -16 44 C-15.34 44 -14.68 44 -14 44 C-14.061875 43.319375 -14.12375 42.63875 -14.1875 41.9375 C-13.98963862 38.83767166 -13.04503139 36.69481794 -11.79763794 33.88439941 C-10.5822699 31.01312322 -9.70596861 28.06204675 -8.80859375 25.078125 C-8.41734985 23.79295896 -8.02607286 22.507803 -7.63476562 21.22265625 C-7.03217162 19.2261782 -6.43125382 17.22920623 -5.83129883 15.23193359 C-5.24450492 13.28355917 -4.65179779 11.33705559 -4.05859375 9.390625 C-3.71111084 8.23594727 -3.36362793 7.08126953 -3.00561523 5.89160156 C-2 3 -2 3 0 0 Z " fill="#63B433" transform="translate(455,84)"/>
<path d="M0 0 C1.27565071 -0.00361794 1.27565071 -0.00361794 2.57707214 -0.00730896 C4.36628913 -0.00633507 6.15553797 0.00694843 7.94458008 0.03198242 C10.65097057 0.06619139 13.35406889 0.05264233 16.06054688 0.03320312 C36.67147293 0.04792683 36.67147293 0.04792683 44.06762695 6.58374023 C50.9814682 13.75848115 51.18826115 21.19645611 51.33984375 30.73828125 C51.36395325 31.9014386 51.38806274 33.06459595 51.41290283 34.26300049 C51.4610856 36.71382061 51.50450142 39.1647385 51.54345703 41.61572266 C51.60548131 45.37966868 51.68849505 49.14275924 51.7734375 52.90625 C51.81766735 55.28773733 51.8606786 57.66924767 51.90234375 60.05078125 C51.94122711 61.74602936 51.94122711 61.74602936 51.980896 63.4755249 C52.00147064 65.03789886 52.00147064 65.03789886 52.02246094 66.63183594 C52.0467215 68.01033722 52.0467215 68.01033722 52.07147217 69.41668701 C51.85546875 71.62890625 51.85546875 71.62890625 49.85546875 73.62890625 C47.76628113 73.88287354 47.76628113 73.88287354 45.15307617 73.88769531 C44.17412888 73.89399963 43.19518158 73.90030396 42.18656921 73.90679932 C41.12211075 73.90275085 40.05765228 73.89870239 38.9609375 73.89453125 C37.86260086 73.8964447 36.76426422 73.89835815 35.63264465 73.90032959 C33.29814425 73.90169365 30.96363632 73.89798188 28.62915039 73.88964844 C25.09568631 73.87906416 21.56274385 73.88947776 18.02929688 73.90234375 C-12.92766365 73.92267718 -12.92766365 73.92267718 -21.14453125 67.62890625 C-26.59638348 61.44031724 -27.46529139 53.86997222 -27.01953125 45.87890625 C-26.42942684 41.17133175 -25.44678777 38.1851825 -22.14453125 34.62890625 C-15.42910572 29.62890625 -15.42910572 29.62890625 -12.14453125 29.62890625 C-11.81453125 28.96890625 -11.48453125 28.30890625 -11.14453125 27.62890625 C-14.77453125 26.96890625 -18.40453125 26.30890625 -22.14453125 25.62890625 C-24.06027433 19.88167702 -22.08294313 13.57791554 -19.51953125 8.25390625 C-13.86187063 2.00070241 -8.3108171 -0.13787912 0 0 Z M-1.14453125 18.62890625 C-1.31119792 21.62890625 -1.31119792 21.62890625 -1.14453125 24.62890625 C1.51261417 27.28605167 9.21601384 25.86382157 12.79296875 25.87890625 C14.01177734 25.89953125 15.23058594 25.92015625 16.48632812 25.94140625 C18.22946289 25.94914062 18.22946289 25.94914062 20.0078125 25.95703125 C21.61644165 25.9710498 21.61644165 25.9710498 23.25756836 25.98535156 C24.11487549 25.86772461 24.97218262 25.75009766 25.85546875 25.62890625 C28.22526888 22.67513127 28.22526888 22.67513127 27.85546875 18.62890625 C23.65548759 15.82891881 19.92907424 16.09712356 14.98046875 15.87890625 C14.08199219 15.82347656 13.18351563 15.76804687 12.2578125 15.7109375 C5.00722953 15.21997257 5.00722953 15.21997257 -1.14453125 18.62890625 Z M-4.14453125 44.62890625 C-5.31981254 46.52069923 -5.31981254 46.52069923 -5.14453125 48.62890625 C-4.30288372 50.57815395 -4.30288372 50.57815395 -2.89453125 52.31640625 C-2.23710938 53.21939453 -2.23710938 53.21939453 -1.56640625 54.140625 C0.88051953 56.70183028 3.16419422 56.64555949 6.62109375 56.83203125 C8.11581618 56.85327065 9.61063037 56.86868513 11.10546875 56.87890625 C11.84410156 56.89953125 12.58273437 56.92015625 13.34375 56.94140625 C18.59527699 56.97845406 22.17521595 56.02965769 26.85546875 53.62890625 C28.17515053 52.52362183 28.17515053 52.52362183 28.10546875 49.75390625 C28.15141573 46.69642643 28.15141573 46.69642643 26.578125 45.0078125 C19.27201499 39.15961106 3.28521471 39.75279149 -4.14453125 44.62890625 Z " fill="#64B434" transform="translate(572.14453125,82.37109375)"/>
<path d="M0 0 C6.33137132 -0.02557931 12.66272908 -0.04296209 18.99414062 -0.05493164 C21.14323423 -0.05992728 23.2923245 -0.06672607 25.44140625 -0.07543945 C60.05677952 -0.21216374 60.05677952 -0.21216374 67.71484375 6.50390625 C75.66059219 14.87705436 75.47222017 24.95702231 75.375 35.9375 C75.38660156 37.24396484 75.39820313 38.55042969 75.41015625 39.89648438 C75.37834761 50.43044463 74.57210788 59.4998575 67 67.30859375 C55.26163238 77.23576793 37.3680045 73.96403547 23.15380859 73.22119141 C21 73 21 73 18 72 C18.00785522 73.26444946 18.00785522 73.26444946 18.01586914 74.55444336 C18.03287826 77.67227936 18.04543406 80.79009177 18.05493164 83.90795898 C18.05997057 85.25920386 18.06680177 86.61044326 18.07543945 87.96166992 C18.08752419 89.90020434 18.09269828 91.838778 18.09765625 93.77734375 C18.10551147 95.52905884 18.10551147 95.52905884 18.11352539 97.31616211 C18 100 18 100 17 101 C14.17413249 101.15322744 11.38956118 101.23162755 8.5625 101.25 C7.77294922 101.270625 6.98339844 101.29125 6.16992188 101.3125 C3.87890625 101.328125 3.87890625 101.328125 0 101 C-2.17434038 97.73848942 -2.20884996 97.47609023 -1.63783264 93.88697815 C-0.99178886 89.16969977 -0.8289055 84.56511113 -0.79467773 79.80834961 C-0.78477814 78.93896759 -0.77487854 78.06958557 -0.76467896 77.17385864 C-0.73338389 74.33338027 -0.70843469 71.49288525 -0.68359375 68.65234375 C-0.6629965 66.66980076 -0.64199935 64.68726189 -0.62062073 62.70472717 C-0.56568599 57.51151891 -0.51615176 52.31827292 -0.46777344 47.125 C-0.4173483 41.81572145 -0.36177241 36.50649702 -0.30664062 31.19726562 C-0.19940937 20.79822344 -0.09788804 10.39913404 0 0 Z M22 19 C20.72329858 21.59595954 19.80248991 24.22381869 19 27 C18.814375 27.63550781 18.62875 28.27101563 18.4375 28.92578125 C16.85719721 36.41810964 17.66034106 44.12001592 21 51 C23.77424351 54.73087921 26.50256743 55.96213095 31 57 C38.29105336 57.48607022 46.05684628 57.26868099 52 52.6875 C56.67273277 46.40851533 56.40373684 40.55283312 56 33 C55.97808594 32.24847656 55.95617187 31.49695313 55.93359375 30.72265625 C55.31450035 25.76008214 52.81259087 23.64497305 48.9375 20.625 C44.04438693 17.36292462 39.84797017 15.50948225 34 15 C32.7625 14.87625 31.525 14.7525 30.25 14.625 C26.15828535 15.09712092 24.75196693 15.94225897 22 19 Z " fill="#050505" transform="translate(110,82)"/>
<path d="M0 0 C7.60842189 6.97438673 8.44683545 15.11218362 9 25 C9.29875519 33.40248963 9.29875519 33.40248963 8 36 C-11.14 36 -30.28 36 -50 36 C-48.81106692 45.06050889 -48.81106692 45.06050889 -46.375 48.5625 C-40.70469016 51.99452964 -32.64795081 51.15525972 -26.1875 51.125 C-24.9200293 51.13080078 -24.9200293 51.13080078 -23.62695312 51.13671875 C-22.81548828 51.13542969 -22.00402344 51.13414062 -21.16796875 51.1328125 C-20.07391724 51.13112061 -20.07391724 51.13112061 -18.95776367 51.12939453 C-16.78432609 51.06865008 -16.78432609 51.06865008 -14 50 C-12.86454438 47.70465742 -12.86454438 47.70465742 -12 45 C-11.34 43.35 -10.68 41.7 -10 40 C-4.06 40 1.88 40 8 40 C7.53390421 48.38972419 7.18285588 53.97462345 1.875 60.6875 C-8.33250755 68.89788651 -24.58554247 67.73149602 -37 67 C-47.74285894 65.60067376 -56.67450516 62.16269425 -64 54 C-64.721875 53.278125 -65.44375 52.55625 -66.1875 51.8125 C-71.17139248 46.82860752 -73.19040492 42.73885822 -73.25 35.671875 C-73.19081479 33.69704512 -73.10660105 31.72283861 -73 29.75 C-72.94948486 28.72455078 -72.89896973 27.69910156 -72.84692383 26.64257812 C-72.35582744 19.20682198 -71.0181965 13.3601631 -67 7 C-66.66742188 6.32066406 -66.33484375 5.64132813 -65.9921875 4.94140625 C-63.29312118 -0.51342947 -59.44637224 -2.99921136 -53.90625 -5.265625 C-36.5213011 -10.28971574 -15.18800579 -11.09731362 0 0 Z M-47 13 C-46.67958603 15.60280568 -46.67958603 15.60280568 -46 18 C-39.48215846 18.83375435 -33.13008277 19.15421089 -26.5625 19.125 C-25.21768555 19.13080078 -25.21768555 19.13080078 -23.84570312 19.13671875 C-22.56276367 19.13478516 -22.56276367 19.13478516 -21.25390625 19.1328125 C-20.48377197 19.13168457 -19.7136377 19.13055664 -18.92016602 19.12939453 C-16.91505593 19.11838843 -16.91505593 19.11838843 -15 18 C-14.66432728 14.47780628 -14.66432728 14.47780628 -16.15625 11.40625 C-23.85125424 5.53717897 -40.15778735 6.15778735 -47 13 Z " fill="#080808" transform="translate(275,89)"/>
<path d="M0 0 C8.67827686 6.09429555 14.87906701 13.91344138 16.77734375 24.4921875 C17.81117903 36.13643745 15.10255855 46.06274227 7.9375 55.3125 C1.19528724 62.48162143 -9.19230452 66.77517518 -18.95703125 67.09765625 C-28.38336542 66.81810897 -36.26400178 64.20116373 -43.38671875 57.8828125 C-50.7138604 50.05455395 -54.88109619 41.36290141 -55.03515625 30.52734375 C-54.33643879 19.77391169 -50.56260051 11.56260051 -43 4 C-42.1028125 2.88625 -42.1028125 2.88625 -41.1875 1.75 C-30.22087514 -7.02329989 -11.99253828 -6.40980494 0 0 Z " fill="#61B430" transform="translate(742,15)"/>
<path d="M0 0 C8.23756606 8.19843273 8.00156307 20.36394547 8.25 31.25 C8.15899745 41.25016861 7.40412462 53.45584465 0 61 C-12.81841607 70.60853264 -29.36012433 69.27499851 -44.63208008 67.16894531 C-45.39286865 67.05131836 -46.15365723 66.93369141 -46.9375 66.8125 C-47.65123779 66.71163086 -48.36497559 66.61076172 -49.1003418 66.50683594 C-58.24629176 64.89201265 -63.08708369 59.12663144 -68.25 51.8125 C-70 49 -70 49 -70 47 C-70.66 47 -71.32 47 -72 47 C-72.20638953 23.41761516 -72.20638953 23.41761516 -71 12 C-70.34 12 -69.68 12 -69 12 C-69.061875 11.25878906 -69.12375 10.51757812 -69.1875 9.75390625 C-68.85687392 4.89783574 -65.47016254 2.15289054 -62 -1 C-47.44232101 -11.23539904 -14.05523091 -10.46548628 0 0 Z M-46 13 C-46 13.66 -46 14.32 -46 15 C-46.66 15 -47.32 15 -48 15 C-52.35387617 25.03284508 -53.67361316 37.30554737 -51 48 C-46.25234655 51.96607828 -40.92246755 51.73766251 -35 52 C-34.11183594 52.05285156 -33.22367188 52.10570312 -32.30859375 52.16015625 C-26.71436012 52.35659499 -22.87522061 51.82762795 -18 49 C-12.5626831 43.27650852 -12.79080687 38.22785931 -12.75 30.75 C-12.729375 29.82058594 -12.70875 28.89117187 -12.6875 27.93359375 C-12.64624538 20.64183962 -13.91649577 16.12525635 -18 10 C-28.02770024 5.47075993 -37.64869485 5.364521 -46 13 Z " fill="#090909" transform="translate(78,88)"/>
<path d="M0 0 C4.18614263 4.97747394 5.02689941 9.80206024 6 16.125 C6.32920261 18.08489244 6.65996869 20.04452282 6.9921875 22.00390625 C7.15686523 22.99664551 7.32154297 23.98938477 7.49121094 25.01220703 C8.29140283 29.71122259 9.19777077 34.38713831 10.125 39.0625 C10.28355469 39.88830566 10.44210937 40.71411133 10.60546875 41.56494141 C11.94260237 48.92147869 11.94260237 48.92147869 16 55 C19.19328297 67.49224125 19.19328297 67.49224125 17 72.1015625 C14.53742883 74.29478995 12.06711151 74.98791993 8.875 75.5625 C5.16348961 74.83633492 4.1884041 74.09395062 2 71 C-0.87062871 64.09379479 -2.23066213 56.73929462 -3.6875 49.4375 C-3.91244141 48.33341797 -4.13738281 47.22933594 -4.36914062 46.09179688 C-4.91773835 43.39549741 -5.46123945 40.69827912 -6 38 C-6.37511719 39.00417969 -6.75023437 40.00835937 -7.13671875 41.04296875 C-8.2030416 43.89654829 -9.2761007 46.74751018 -10.3515625 49.59765625 C-11.37181854 52.30634756 -12.36352886 55.01936895 -13.3359375 57.74609375 C-17.56185604 69.38755724 -17.56185604 69.38755724 -22 73 C-24.86917547 73.82058418 -27.21088858 74.13117044 -30 73 C-34.75104331 67.70571724 -35.9349372 60.92665759 -37.6875 54.1875 C-38.29286857 51.90943588 -38.90079817 49.63205024 -39.51171875 47.35546875 C-39.77428467 46.35153076 -40.03685059 45.34759277 -40.30737305 44.31323242 C-40.78303316 42.05877727 -40.78303316 42.05877727 -42 41 C-42.14099121 41.6297876 -42.28198242 42.2595752 -42.42724609 42.90844727 C-43.07439951 45.79360665 -43.72467522 48.67805387 -44.375 51.5625 C-44.70757812 53.0484668 -44.70757812 53.0484668 -45.046875 54.56445312 C-48.7958973 71.15939007 -48.7958973 71.15939007 -53 74 C-58.93510488 74.72887253 -58.93510488 74.72887253 -61.68359375 72.84765625 C-64.77423216 68.50975724 -63.62953873 62.07077367 -63 57 C-61.90079384 51.35496568 -60.26593007 45.84502865 -58.66259766 40.32666016 C-57.67026931 36.84217632 -56.80091928 33.33071554 -55.9375 29.8125 C-55.61652344 28.53246094 -55.29554688 27.25242188 -54.96484375 25.93359375 C-54.28196669 23.1819805 -53.63501005 20.42408305 -53.00390625 17.66015625 C-52.83576416 16.94303467 -52.66762207 16.22591309 -52.49438477 15.48706055 C-52.02952491 13.50113333 -51.57684585 11.51236609 -51.125 9.5234375 C-49.91865016 5.74521682 -48.47572198 3.09118183 -46 0 C-41.98758699 -1.31315335 -40.04709577 -1.52354788 -36.25 0.375 C-30.80491114 6.72760367 -29.99602712 16.26562134 -28.4375 24.25 C-28.02390385 26.36023671 -27.60608324 28.46965081 -27.18359375 30.578125 C-27.00368896 31.50012695 -26.82378418 32.42212891 -26.63842773 33.37207031 C-25.98852477 36.04723495 -25.08303078 38.47245229 -24 41 C-23.77860352 40.28046143 -23.55720703 39.56092285 -23.32910156 38.81958008 C-18.140625 21.95703125 -18.140625 21.95703125 -17.06835938 18.49853516 C-16.34162731 16.11872015 -15.63532213 13.73259219 -14.94726562 11.34130859 C-14.60888672 10.18066895 -14.27050781 9.0200293 -13.921875 7.82421875 C-13.6237793 6.77709717 -13.32568359 5.72997559 -13.01855469 4.65112305 C-11.99464099 1.98605141 -11.24524852 0.71681075 -9 -1 C-5.10768667 -2.29743778 -3.68367748 -1.7290731 0 0 Z " fill="#000100" transform="translate(346,207)"/>
<path d="M0 0 C1.28327934 -0.00934319 1.28327934 -0.00934319 2.59248352 -0.01887512 C3.9798597 -0.0050605 3.9798597 -0.0050605 5.39526367 0.0090332 C6.35663742 0.0085347 7.31801117 0.00803619 8.30851746 0.00752258 C10.35039324 0.00986573 12.39227177 0.01960838 14.43408203 0.03613281 C17.51321273 0.0594359 20.59145955 0.05673143 23.6706543 0.05004883 C55.48929621 0.09268125 55.48929621 0.09268125 63.75073242 8.37231445 C67.7013348 14.01130276 68.87416717 19.88328669 68.88012695 26.69750977 C68.88327911 27.73498352 68.88643127 28.77245728 68.88967896 29.84136963 C68.88664261 31.50410919 68.88664261 31.50410919 68.88354492 33.20043945 C68.88450165 34.34518738 68.88545837 35.4899353 68.88644409 36.66937256 C68.88712356 39.08337458 68.88528555 41.49737845 68.88110352 43.91137695 C68.87573236 47.62235566 68.88106649 51.33321441 68.88745117 55.04418945 C68.88679074 57.38793972 68.88551029 59.73168992 68.88354492 62.07543945 C68.88556915 63.19202942 68.88759338 64.30861938 68.88967896 65.45904541 C68.88495071 66.99634308 68.88495071 66.99634308 68.88012695 68.56469727 C68.87933136 69.47117004 68.87853577 70.37764282 68.87771606 71.31158447 C68.75073242 73.37231445 68.75073242 73.37231445 67.75073242 74.37231445 C66.42029617 74.47068655 65.08479898 74.50310038 63.75073242 74.50512695 C62.94635742 74.50641602 62.14198242 74.50770508 61.31323242 74.5090332 C60.46760742 74.50516602 59.62198242 74.50129883 58.75073242 74.49731445 C57.90510742 74.50118164 57.05948242 74.50504883 56.18823242 74.5090332 C55.38385742 74.50774414 54.57948242 74.50645508 53.75073242 74.50512695 C53.00823242 74.50399902 52.26573242 74.50287109 51.50073242 74.50170898 C49.75073242 74.37231445 49.75073242 74.37231445 48.75073242 73.37231445 C47.03469347 62.02739024 47.93415552 50.46926043 48.60766602 39.07275391 C49.14488284 28.85105673 49.14488284 28.85105673 45.75073242 19.37231445 C40.36615321 15.19354835 32.14665264 16.15229099 25.74682617 16.8684082 C21.78771283 17.53428255 19.16283816 18.22120432 15.75073242 20.37231445 C12.10310559 25.75847429 12.29468576 30.93542468 12.27416992 37.2043457 C12.25080063 38.75287483 12.25080063 38.75287483 12.22695923 40.33268738 C12.17957055 43.61672263 12.15170452 46.90054595 12.12573242 50.18481445 C12.08927568 53.48678811 12.04873738 56.78864066 12.00308228 60.09049988 C11.97579049 62.14260258 11.95446774 64.19479462 11.93954468 66.24702454 C11.92415146 67.62932503 11.92415146 67.62932503 11.90844727 69.03955078 C11.9019516 69.85418289 11.89545593 70.668815 11.88876343 71.50813293 C11.75073242 73.37231445 11.75073242 73.37231445 10.75073242 74.37231445 C8.11144145 74.52583026 5.51633283 74.60394506 2.87573242 74.62231445 C2.14225586 74.64293945 1.4087793 74.66356445 0.65307617 74.68481445 C-4.77432953 74.72435839 -4.77432953 74.72435839 -6.96362305 73.1015625 C-8.53122808 70.99306527 -8.61171913 69.98296727 -8.57739258 67.3762207 C-8.57312256 66.52825928 -8.56885254 65.68029785 -8.56445312 64.80664062 C-8.54294189 63.85893799 -8.52143066 62.91123535 -8.49926758 61.93481445 C-8.48613525 60.93232666 -8.47300293 59.92983887 -8.45947266 58.89697266 C-8.42415672 56.51461138 -8.38083616 54.13236224 -8.33178711 51.75024414 C-8.24644115 47.52592807 -8.20056437 43.30152034 -8.15493774 39.07661438 C-8.10850135 35.07748965 -8.0472645 31.07867421 -7.98278809 27.07980347 C-7.95209754 25.06580734 -7.92581455 23.05173924 -7.90393066 21.03762817 C-7.87061332 18.1734845 -7.81813573 15.31028778 -7.76098633 12.4465332 C-7.75457626 11.57562042 -7.7481662 10.70470764 -7.74156189 9.80740356 C-7.72178787 9.00342133 -7.70201385 8.19943909 -7.68164062 7.37109375 C-7.67053757 6.66848923 -7.65943451 5.9658847 -7.647995 5.24198914 C-6.73423518 0.95727352 -4.05519876 -0.00340085 0 0 Z " fill="#030303" transform="translate(313.249267578125,80.627685546875)"/>
<path d="M0 0 C5.88286681 5.39149046 7.95518494 12.09066695 8.390625 19.88671875 C8.68014876 34.67974388 5.21175227 46.94658736 -5.125 58.1875 C-13.33625855 65.80293027 -22.87052703 67.73691303 -33.6640625 67.515625 C-43.25995122 67.07092684 -49.86362209 63.2192778 -56.7109375 56.6328125 C-63.50651945 48.92778464 -64.59336185 40.21242583 -64.03027344 30.28857422 C-62.76642338 18.45769081 -55.94149667 7.7827208 -47.375 -0.1875 C-33.87341782 -10.85313341 -13.41376159 -10.34212291 0 0 Z M-39.75390625 13.23828125 C-45.52691618 20.21651246 -49.13292495 28.03778273 -48.8125 37.25 C-47.91238174 40.79573613 -46.44814782 43.97870436 -44.8125 47.25 C-44.1525 47.25 -43.4925 47.25 -42.8125 47.25 C-42.8125 47.91 -42.8125 48.57 -42.8125 49.25 C-36.05645227 52.42120608 -30.10417424 54.19610904 -22.7265625 52.03125 C-15.5695667 49.11002722 -11.86318064 42.62331535 -8.72265625 35.92578125 C-6.49957712 29.39011942 -5.75767132 21.18819395 -7.9375 14.5625 C-10.24819598 10.48027044 -12.21165483 9.02637169 -16.64453125 7.703125 C-25.38269803 5.87676942 -33.37946794 6.70993296 -39.75390625 13.23828125 Z " fill="#61B431" transform="translate(494.8125,213.75)"/>
<path d="M0 0 C2 2 2 2 2.4375 4.875 C2 8 2 8 -0.0625 10.375 C-5.11404521 13.16947182 -9.58428613 12.08314277 -15 11 C-21.468876 10.51178294 -26.31134957 12.15567479 -32 15 C-31.67 16.65 -31.34 18.3 -31 20 C-27.68027154 21.10657615 -24.93081564 21.21394703 -21.4375 21.375 C-11.16633609 22.08372089 -3.77994304 24.10046621 4 31 C4.55042969 31.42796875 5.10085938 31.8559375 5.66796875 32.296875 C8.72428955 36.20466347 8.0920162 42.24391268 8 47 C6.99241956 52.06489094 3.94167253 56.702221 0 60 C-12.90829145 67.89572864 -27.08952565 70.13298691 -41.98828125 67.46484375 C-47.39460395 65.80205879 -51.24297996 63.18112832 -54.8125 58.75 C-56.51735944 54.80190445 -56.47798819 52.30189367 -56 48 C-54.375 45.5 -54.375 45.5 -52 44 C-48.04631659 43.32703261 -46.50260967 43.67221108 -43.125 45.875 C-42.073125 46.926875 -42.073125 46.926875 -41 48 C-41 48.66 -41 49.32 -41 50 C-40.34 50 -39.68 50 -39 50 C-38.67 50.66 -38.34 51.32 -38 52 C-30.5415911 54.4861363 -23.14199383 52.85679753 -16 50 C-12.46090624 48.19463233 -10.30809027 46.92427081 -9 43 C-10.10141725 40.30305165 -10.10141725 40.30305165 -12 38 C-14.70249647 37.08930645 -17.36172267 36.81694505 -20.1953125 36.60546875 C-40.54692469 34.91001734 -40.54692469 34.91001734 -47.5625 28.75 C-49.79600861 24.47720092 -50.55265161 20.60675494 -49.55859375 15.91796875 C-46.2076438 5.90341547 -39.14221193 1.56481834 -30 -3 C-20.58494663 -6.31623337 -8.65184663 -4.46441804 0 0 Z " fill="#60B62F" transform="translate(421,213)"/>
<path d="M0 0 C3.50583015 0.27496707 4.73372142 0.79622142 7.1875 3.25 C8.29011088 6.55783265 8.42490779 9.20559269 8.5 12.6875 C8.55607422 14.38712891 8.55607422 14.38712891 8.61328125 16.12109375 C8.1875 19.25 8.1875 19.25 6.3515625 21.625 C4.1875 23.25 4.1875 23.25 1.25 23.8125 C-2.77360093 23.07347126 -4.20183389 21.30820887 -6.8125 18.25 C-7.88652305 16.9833045 -7.88652305 16.9833045 -10.375 16.8125 C-16.34181849 17.57191326 -20.02273425 21.07875032 -23.7734375 25.62890625 C-29.99895354 34.2316763 -33.1561265 41.48571949 -31.8125 52.25 C-30.50194108 55.53904021 -30.50194108 55.53904021 -27.8125 57.25 C-22.17804133 58.98367959 -17.92933354 57.84509658 -12.8125 55.25 C-10.24174554 53.66588066 -7.70586871 52.05487053 -5.20703125 50.359375 C-2.23867009 48.98414732 -0.87893143 49.23976136 2.1875 50.25 C4.5625 51.875 4.5625 51.875 6.1875 54.25 C6.37990476 57.71328576 6.13370349 59.99151813 4.00390625 62.82421875 C-2.53398801 69.0360335 -12.57029761 73.93270593 -21.6328125 74.34765625 C-31.42277158 73.90903801 -37.26128156 70.80121844 -44.125 63.9375 C-49.03192261 56.12277139 -49.61364125 48.501926 -48.25 39.5625 C-44.01039951 24.70907449 -34.44608331 10.73885125 -20.8515625 3.15625 C-15.95296225 0.99686703 -11.33168142 1.02362388 -6.03515625 1.2421875 C-5.30167969 1.24476563 -4.56820312 1.24734375 -3.8125 1.25 C-2.8125 0.25 -2.8125 0.25 0 0 Z " fill="#61B431" transform="translate(554.8125,205.75)"/>
<path d="M0 0 C0.66 0 1.32 0 2 0 C2.33 1.32 2.66 2.64 3 4 C2.34 4 1.68 4 1 4 C1.33 5.65 1.66 7.3 2 9 C3.66611905 9.042721 5.33382885 9.04063832 7 9 C7.33 8.67 7.66 8.34 8 8 C9.61684194 7.62911153 11.24399077 7.30256403 12.875 7 C15.69737213 6.47337663 18.27018179 5.9099394 21 5 C22.39439664 4.93334624 23.79169875 4.91461801 25.1875 4.9375 C27.0746875 4.9684375 27.0746875 4.9684375 29 5 C24.28102184 8.14598544 18.77237628 8.85907315 13.2980957 10.08666992 C11.23024174 10.55286395 9.1670094 11.03640842 7.10351562 11.52148438 C-1.62203109 13.5236503 -10.03086005 14.64783853 -19 15 C-19.33 13.35 -19.66 11.7 -20 10 C-17.73354942 8.65869239 -15.46239903 7.32683766 -13.1875 6 C-12.54490234 5.6184375 -11.90230469 5.236875 -11.24023438 4.84375 C-7.08906536 2.43478145 -4.7275317 2 0 2 C0 1.34 0 0.68 0 0 Z " fill="#62B732" transform="translate(611,187)"/>
<path d="M0 0 C4.875 2.625 4.875 2.625 6 6 C6.66 6.33 7.32 6.66 8 7 C8.75 10.375 8.75 10.375 9 14 C8.01 15.485 8.01 15.485 7 17 C5.68 17 4.36 17 3 17 C3 17.66 3 18.32 3 19 C3.66 19.33 4.32 19.66 5 20 C3.02 19.67 1.04 19.34 -1 19 C-1 18.01 -1 17.02 -1 16 C-1.66 16 -2.32 16 -3 16 C-3 15.01 -3 14.02 -3 13 C-3.99 13 -4.98 13 -6 13 C-6.75 9.75 -6.75 9.75 -7 6 C-5.25 3.5625 -5.25 3.5625 -3 2 C-2.01 2 -1.02 2 0 2 C0 1.34 0 0.68 0 0 Z " fill="#60B52F" transform="translate(374,257)"/>
<path d="M0 0 C1.83196187 4.52602343 1.95064958 7.25340001 1 12 C1.59014893 11.98952637 2.18029785 11.97905273 2.78833008 11.96826172 C5.46301004 11.92667956 8.13762197 11.9006671 10.8125 11.875 C12.2056543 11.84986328 12.2056543 11.84986328 13.62695312 11.82421875 C14.51962891 11.81777344 15.41230469 11.81132812 16.33203125 11.8046875 C17.15421143 11.79421387 17.9763916 11.78374023 18.82348633 11.77294922 C21 12 21 12 24 14 C20.84281784 15.01480855 19.16025869 14.79006467 16 14 C8.95690858 13.33287488 2.71595 13.46708976 -3 18 C-5.24756241 20.52189015 -7.17867169 23.15762401 -9 26 C-9.66 25.01 -10.32 24.02 -11 23 C-9.625 21 -9.625 21 -8 19 C-7.34 19 -6.68 19 -6 19 C-5.67 18.01 -5.34 17.02 -5 16 C-4.01 16 -3.02 16 -2 16 C-2.350625 15.0925 -2.70125 14.185 -3.0625 13.25 C-3.96468779 10.12241564 -4.13381507 8.94791919 -3 6 C-3.99 6 -4.98 6 -6 6 C-6.33 6.66 -6.66 7.32 -7 8 C-7 7.34 -7 6.68 -7 6 C-8.32 5.67 -9.64 5.34 -11 5 C-9.73461631 4.15841464 -8.46246221 3.32700252 -7.1875 2.5 C-6.47980469 2.0359375 -5.77210938 1.571875 -5.04296875 1.09375 C-3 0 -3 0 0 0 Z " fill="#62B432" transform="translate(460,208)"/>
<path d="M0 0 C0 0.66 0 1.32 0 2 C-1.63631892 3.04892238 -3.30485863 4.04906703 -5 5 C-6.41577477 6.18424326 -6.41577477 6.18424326 -6.0625 9.5625 C-6.041875 10.696875 -6.02125 11.83125 -6 13 C-5.01 13 -4.02 13 -3 13 C-3 13.99 -3 14.98 -3 16 C-2.34 16 -1.68 16 -1 16 C-1 16.99 -1 17.98 -1 19 C5.58413523 20.64770831 11.78938374 21.386475 18.5625 21.625 C19.93245117 21.68300781 19.93245117 21.68300781 21.33007812 21.7421875 C23.55319924 21.83530252 25.77633613 21.92112166 28 22 C28 21.34 28 20.68 28 20 C30.31 20.33 32.62 20.66 35 21 C26.55707476 25.69051402 14.30008591 25.11418945 4.99609375 23.46875 C-0.39952041 21.7888972 -4.24490724 19.17873584 -7.8125 14.75 C-9.51735944 10.80190445 -9.47798819 8.30189367 -9 4 C-6.43823763 0.20479649 -4.49728961 -0.49969885 0 0 Z " fill="#6BA647" transform="translate(374,257)"/>
<path d="M0 0 C4.95 0 9.9 0 15 0 C15 0.33 15 0.66 15 1 C10.71 1 6.42 1 2 1 C2.66 2.32 3.32 3.64 4 5 C4.46317156 6.65418416 4.92413568 8.30906382 5.3671875 9.96875 C6.0851997 12.27348052 7.03104861 14.41435535 8 16.625 C10.4580345 22.56830731 11.24327782 28.64751643 12 35 C12.66 35 13.32 35 14 35 C14.66 37.31 15.32 39.62 16 42 C16.66 42 17.32 42 18 42 C18.62529897 47.0247239 19.13012092 51.92528427 19 57 C17.30900219 54.46350328 16.46284655 52.75140633 15.53540039 49.9309082 C15.264944 49.11608475 14.99448761 48.30126129 14.71583557 47.46174622 C14.28608681 46.14456856 14.28608681 46.14456856 13.84765625 44.80078125 C13.54685654 43.89176559 13.24605682 42.98274994 12.93614197 42.04618835 C11.97399739 39.13634584 11.01795134 36.22454639 10.0625 33.3125 C9.10961997 30.41864844 8.15543446 27.52523705 7.1995697 24.63237 C6.60545217 22.83322305 6.0131933 21.03346089 5.42311096 19.23298645 C4.13551398 15.32427166 2.80406707 11.4625564 1.29467773 7.63354492 C0 4 0 4 0 0 Z " fill="#6EA644" transform="translate(405,86)"/>
<path d="M0 0 C0.99 0.33 1.98 0.66 3 1 C3 2.98 3 4.96 3 7 C11.25 7.33 19.5 7.66 28 8 C23.42588818 11.43058387 21.36469127 11.17633618 16.0625 10.5625 C11.13770845 10.01630405 7.59605199 9.9410304 3 12 C0.32421875 12.1953125 0.32421875 12.1953125 -2.3125 12.125 C-3.63701172 12.09792969 -3.63701172 12.09792969 -4.98828125 12.0703125 C-5.65214844 12.04710938 -6.31601562 12.02390625 -7 12 C-6.34 11.34 -5.68 10.68 -5 10 C-5.66 8.68 -6.32 7.36 -7 6 C-6.34 5.67 -5.68 5.34 -5 5 C-4.67 4.01 -4.34 3.02 -4 2 C-3.34 2 -2.68 2 -2 2 C-2 2.66 -2 3.32 -2 4 C-1.34 4 -0.68 4 0 4 C0 2.68 0 1.36 0 0 Z " fill="#6EAD41" transform="translate(569,100)"/>
<path d="M0 0 C3.64179987 -0.14864489 6.62664454 -0.11265838 10.1328125 0.9453125 C15.43696684 2.54200367 20.91595861 2.76496884 26.41210938 3.2109375 C27.6409082 3.32308594 27.6409082 3.32308594 28.89453125 3.4375 C29.63550049 3.49808594 30.37646973 3.55867187 31.13989258 3.62109375 C33 4 33 4 35 6 C36.60800743 9.21601485 36.75989019 12.53599607 36 16 C33 18.5 33 18.5 30 20 C31.03172359 17.93655282 32.01621869 15.97605812 33.3125 14.0625 C34.29346806 11.8735819 34.29346806 11.8735819 32.875 9.3125 C30.43557172 6.30387179 28.65654812 6.19955118 24.92871094 5.75048828 C24.20458008 5.69103027 23.48044922 5.63157227 22.734375 5.5703125 C21.92613281 5.49683594 21.11789062 5.42335937 20.28515625 5.34765625 C18.61122618 5.20063928 16.93673259 5.05988754 15.26171875 4.92578125 C9.69691964 4.4054593 5.15449592 3.17343952 0 1 C0 0.67 0 0.34 0 0 Z " fill="#6DA949" transform="translate(378,244)"/>
<path d="M0 0 C0.91652344 0.01160156 1.83304688 0.02320313 2.77734375 0.03515625 C3.69644531 0.04417969 4.61554687 0.05320313 5.5625 0.0625 C6.27277344 0.07410156 6.98304688 0.08570313 7.71484375 0.09765625 C2.99586559 3.24364169 -2.51277997 3.9567294 -7.98706055 5.18432617 C-10.05491451 5.6505202 -12.11814685 6.13406467 -14.18164062 6.61914062 C-22.90718734 8.62130655 -31.3160163 9.74549478 -40.28515625 10.09765625 C-40.61515625 8.44765625 -40.94515625 6.79765625 -41.28515625 5.09765625 C-40.29515625 5.09765625 -39.30515625 5.09765625 -38.28515625 5.09765625 C-38.61515625 6.41765625 -38.94515625 7.73765625 -39.28515625 9.09765625 C-37.96515625 9.09765625 -36.64515625 9.09765625 -35.28515625 9.09765625 C-34.95515625 8.10765625 -34.62515625 7.11765625 -34.28515625 6.09765625 C-33.28935547 6.13246094 -33.28935547 6.13246094 -32.2734375 6.16796875 C-27.37959926 6.2679888 -23.79390959 6.15880063 -19.28515625 4.09765625 C-17.61891986 4.05978724 -15.95118028 4.0513778 -14.28515625 4.09765625 C-13.95515625 3.76765625 -13.62515625 3.43765625 -13.28515625 3.09765625 C-10.71310252 2.52608875 -8.12731712 2.06895823 -5.53515625 1.59765625 C-2.95911242 1.02520207 -2.64807089 0.11316542 0 0 Z " fill="#6CA749" transform="translate(632.28515625,191.90234375)"/>
<path d="M0 0 C0.66 0.33 1.32 0.66 2 1 C-6.65871754 9.61034481 -14.15291966 12.34722095 -26.29101562 12.38061523 C-30.53053691 12.28469135 -34.05510477 11.53140343 -38 10 C-37.67 9.34 -37.34 8.68 -37 8 C-36.43829102 8.16298584 -35.87658203 8.32597168 -35.29785156 8.49389648 C-32.86446819 9.02985098 -30.72377772 9.11361396 -28.234375 9.09765625 C-27.34492188 9.09443359 -26.45546875 9.09121094 -25.5390625 9.08789062 C-24.15847656 9.07532227 -24.15847656 9.07532227 -22.75 9.0625 C-21.81414062 9.05798828 -20.87828125 9.05347656 -19.9140625 9.04882812 C-17.60930959 9.03706918 -15.30468773 9.02063426 -13 9 C-12.67 8.34 -12.34 7.68 -12 7 C-10.35 7 -8.7 7 -7 7 C-7 6.34 -7 5.68 -7 5 C-6.34 5 -5.68 5 -5 5 C-5 4.34 -5 3.68 -5 3 C-2.625 1.3125 -2.625 1.3125 0 0 Z " fill="#6AA246" transform="translate(489,269)"/>
<path d="M0 0 C4.49979886 0.56352621 7.7752385 2.47648633 11.5625 4.8125 C20.59468118 10.16221122 29.472627 13.29817513 40 14 C40 14.66 40 15.32 40 16 C33.83593105 17.43255255 29.87911559 16.34030062 24.0625 14.0625 C22.89364258 13.62647461 22.89364258 13.62647461 21.70117188 13.18164062 C19.79546924 12.46846356 17.89694329 11.73615909 16 11 C16 10.34 16 9.68 16 9 C15.21625 8.855625 14.4325 8.71125 13.625 8.5625 C11 8 11 8 9 7 C9 6.34 9 5.68 9 5 C8.443125 4.9175 7.88625 4.835 7.3125 4.75 C4.30285794 3.77389987 2.37845248 2.04811186 0 0 Z " fill="#6EAA48" transform="translate(684,79)"/>
<path d="M0 0 C0 0.66 0 1.32 0 2 C4.29 2.33 8.58 2.66 13 3 C11 5 11 5 7.6875 5.1875 C4.62747812 5.03190567 1.98325742 4.59665148 -1 4 C-8.06303642 3.46694065 -13.32779409 5.05151652 -19 9.1875 C-19.66 9.785625 -20.32 10.38375 -21 11 C-21 9.68 -21 8.36 -21 7 C-20.34 7 -19.68 7 -19 7 C-18.67 6.34 -18.34 5.68 -18 5 C-15 3 -15 3 -12.375 2.5 C-11.59125 2.335 -10.8075 2.17 -10 2 C-9.67 1.34 -9.34 0.68 -9 0 C-2.57142857 -1.28571429 -2.57142857 -1.28571429 0 0 Z " fill="#6DAC49" transform="translate(407,220)"/>
<path d="M0 0 C4.82486375 1.18800362 9.43442371 2.43442371 13 6 C13.3125 9 13.3125 9 13 12 C12.01 12.66 11.02 13.32 10 14 C10.66 11.69 11.32 9.38 12 7 C11.2575 6.87625 10.515 6.7525 9.75 6.625 C7.18058185 6.04104133 5.29101065 5.26400588 3 4 C0.70691037 2.85345518 -0.79909656 2.80270883 -3.3515625 2.68359375 C-4.62773437 2.62075195 -4.62773437 2.62075195 -5.9296875 2.55664062 C-6.81914062 2.51732422 -7.70859375 2.47800781 -8.625 2.4375 C-9.5221875 2.39431641 -10.419375 2.35113281 -11.34375 2.30664062 C-13.56234283 2.20043139 -15.7810488 2.09838806 -18 2 C-12.73540664 -1.50972891 -6.12379619 -0.50779751 0 0 Z " fill="#72AA4F" transform="translate(410,209)"/>
<path d="M0 0 C1 3 1 3 0.37915039 4.80932617 C0.03875732 5.46392822 -0.30163574 6.11853027 -0.65234375 6.79296875 C-1.01650391 7.50517578 -1.38066406 8.21738281 -1.75585938 8.95117188 C-2.14580078 9.68916016 -2.53574219 10.42714844 -2.9375 11.1875 C-3.51661133 12.31188477 -3.51661133 12.31188477 -4.10742188 13.45898438 C-5.06271757 15.31060689 -6.03021577 17.15592452 -7 19 C-8.0625 15.2421875 -8.0625 15.2421875 -7.5 13.0625 C-6.81261649 10.91640506 -6.81261649 10.91640506 -7.625 8.4375 C-8 6 -8 6 -6.75 4.1875 C-5 3 -5 3 -2 3 C-1.67 2.34 -1.34 1.68 -1 1 C-0.67 0.67 -0.34 0.34 0 0 Z " fill="#5FAB35" transform="translate(813,40)"/>
<path d="M0 0 C2.97 0.495 2.97 0.495 6 1 C6 1.66 6 2.32 6 3 C5.01 3.495 5.01 3.495 4 4 C4 4.99 4 5.98 4 7 C4.66 7 5.32 7 6 7 C6.4125 8.134375 6.825 9.26875 7.25 10.4375 C8.72148633 14.41334289 10.46803953 18.21174759 12.328125 22.01953125 C13 24 13 24 12 27 C10.17759525 23.44248328 8.3688489 19.87819243 6.5625 16.3125 C6.04623047 15.30509766 5.52996094 14.29769531 4.99804688 13.25976562 C4.50498047 12.28330078 4.01191406 11.30683594 3.50390625 10.30078125 C3.04830322 9.40528564 2.5927002 8.50979004 2.12329102 7.5871582 C1.018708 5.04308816 0.43265054 2.73151015 0 0 Z " fill="#6DAC46" transform="translate(605,0)"/>
<path d="M0 0 C0.99 0.33 1.98 0.66 3 1 C3 1.66 3 2.32 3 3 C3.66 3 4.32 3 5 3 C5.33773437 3.91523437 5.67546875 4.83046875 6.0234375 5.7734375 C6.46945312 6.96195312 6.91546875 8.15046875 7.375 9.375 C8.03628906 11.15003906 8.03628906 11.15003906 8.7109375 12.9609375 C9.7950342 16.04493446 9.7950342 16.04493446 12 18 C12.6328125 20.6015625 12.6328125 20.6015625 13.125 23.625 C13.29257812 24.62789062 13.46015625 25.63078125 13.6328125 26.6640625 C13.81457031 27.82035156 13.81457031 27.82035156 14 29 C11.55628361 25.9719069 9.91051592 22.93186857 8.30078125 19.39453125 C7.81416016 18.32912109 7.32753906 17.26371094 6.82617188 16.16601562 C6.32666016 15.05935547 5.82714844 13.95269531 5.3125 12.8125 C4.80138672 11.69423828 4.29027344 10.57597656 3.76367188 9.42382812 C0 1.14776994 0 1.14776994 0 0 Z " fill="#6BA445" transform="translate(633,60)"/>
<path d="M0 0 C0.66 0 1.32 0 2 0 C2 3.3 2 6.6 2 10 C-1.47823115 11.15941038 -3.45895578 10.70820884 -7 10 C-5.32598022 6.04322598 -2.86850715 3.15535787 0 0 Z " fill="#66B13A" transform="translate(823,9)"/>
<path d="M0 0 C1.9375 0.6875 1.9375 0.6875 4 2 C4.5 4.5 4.5 4.5 5 7 C6.88370471 8.3169667 6.88370471 8.3169667 9 9 C9.66 9.33 10.32 9.66 11 10 C11 10.66 11 11.32 11 12 C13.01822917 11.90234375 15.03645833 11.8046875 17.0546875 11.70703125 C17.69664062 11.80371094 18.33859375 11.90039062 19 12 C19.99 13.485 19.99 13.485 21 15 C13.66202073 14.96602787 9.33554365 12.99830839 4 8 C0 3.7 0 3.7 0 0 Z " fill="#6CA741" transform="translate(509,264)"/>
<path d="M0 0 C-0.66 1.32 -1.32 2.64 -2 4 C-7.61 4 -13.22 4 -19 4 C-18 2 -18 2 -15.6875 0.875 C-10.45096906 -0.36756666 -5.35644496 -0.15601296 0 0 Z " fill="#59BE3A" transform="translate(552,207)"/>
<path d="M0 0 C2.26631621 1.48727001 3.50512823 3.07019234 5 5.3125 C4.01 6.7975 4.01 6.7975 3 8.3125 C1.35 7.9825 -0.3 7.6525 -2 7.3125 C-2 6.3225 -2 5.3325 -2 4.3125 C-2.66 4.3125 -3.32 4.3125 -4 4.3125 C-4.33 2.9925 -4.66 1.6725 -5 0.3125 C-2 -0.6875 -2 -0.6875 0 0 Z " fill="#58BC2F" transform="translate(613,2.6875)"/>
<path d="M0 0 C0.66 0 1.32 0 2 0 C2.84026396 1.76755526 3.67198722 3.53917263 4.5 5.3125 C4.9640625 6.29863281 5.428125 7.28476562 5.90625 8.30078125 C7 11 7 11 7 14 C7.66 14 8.32 14 9 14 C10.85776765 17.13498292 11.20140476 19.37471432 11 23 C7.94580703 19.30991828 5.93406905 15.19982046 3.8125 10.9375 C3.44447266 10.21755859 3.07644531 9.49761719 2.69726562 8.75585938 C2.34986328 8.06169922 2.00246094 7.36753906 1.64453125 6.65234375 C1.32846924 6.02320068 1.01240723 5.39405762 0.68676758 4.74584961 C0 3 0 3 0 0 Z " fill="#6DA743" transform="translate(621,33)"/>
<path d="M0 0 C0.99 0.66 1.98 1.32 3 2 C1.59928507 7.29158974 -1.85487245 9.77478044 -6 13 C-6.66 12.67 -7.32 12.34 -8 12 C-7.505 11.54625 -7.01 11.0925 -6.5 10.625 C-4.77390663 9.12364481 -4.77390663 9.12364481 -5 7 C-5.66 6.67 -6.32 6.34 -7 6 C-4 4 -4 4 -1.8125 4.375 C-1.214375 4.58125 -0.61625 4.7875 0 5 C0 3.35 0 1.7 0 0 Z " fill="#65A939" transform="translate(424,262)"/>
<path d="M0 0 C2.625 0.375 2.625 0.375 5 1 C5 1.66 5 2.32 5 3 C5.99 3.33 6.98 3.66 8 4 C8 4.33 8 4.66 8 5 C0.74 5 -6.52 5 -14 5 C-14.33 4.34 -14.66 3.68 -15 3 C-13.62714844 2.92652344 -13.62714844 2.92652344 -12.2265625 2.8515625 C-11.03804687 2.77679688 -9.84953125 2.70203125 -8.625 2.625 C-7.44164062 2.55539063 -6.25828125 2.48578125 -5.0390625 2.4140625 C-1.89437681 2.29782654 -1.89437681 2.29782654 0 0 Z " fill="#6BAB45" transform="translate(586,120)"/>
<path d="M0 0 C0.99 0.33 1.98 0.66 3 1 C2.67 1.66 2.34 2.32 2 3 C1.34 3 0.68 3 0 3 C0.48666613 7.28266193 1.27426875 9.68171848 4 13 C4 13.66 4 14.32 4 15 C1.12768348 13.71240983 -1.19225634 12.62122831 -3 10 C-3.1875 6.3125 -3.1875 6.3125 -3 3 C-2.34 3 -1.68 3 -1 3 C-0.67 2.01 -0.34 1.02 0 0 Z " fill="#5DAC39" transform="translate(568,124)"/>
<path d="M0 0 C0.66 1.32 1.32 2.64 2 4 C-5.11389522 11.66742597 -5.11389522 11.66742597 -10 13 C-8.48446596 9.52224821 -6.4226544 7.0442016 -3.875 4.25 C-3.15054688 3.45078125 -2.42609375 2.6515625 -1.6796875 1.828125 C-0.84824219 0.92320313 -0.84824219 0.92320313 0 0 Z " fill="#65B03A" transform="translate(789,51)"/>
<path d="M0 0 C2.79872437 2.52788007 4.45773019 4.20411134 5 8 C5.99 8 6.98 8 8 8 C9.01866229 9.65532623 10.01810813 11.32260138 11 13 C11.99 13.33 12.98 13.66 14 14 C14 14.66 14 15.32 14 16 C15.32 16.33 16.64 16.66 18 17 C17.01 17.33 16.02 17.66 15 18 C9.46499121 15.07317232 4.46548857 10.19219542 1 5 C0.125 2.0625 0.125 2.0625 0 0 Z " fill="#6CA644" transform="translate(433,260)"/>
<path d="M0 0 C0 1.32 0 2.64 0 4 C-2.125 4.75 -2.125 4.75 -5 5 C-8.3125 3.1875 -8.3125 3.1875 -11 1 C-11 0.34 -11 -0.32 -11 -1 C-6.58937864 -2.0257259 -4.07369424 -2.03684712 0 0 Z " fill="#5EB72F" transform="translate(557,259)"/>
<path d="M0 0 C0.99 0 1.98 0 3 0 C2.33249599 4.57290061 1.58544601 8.14844217 -1.0625 12 C-4.96900792 14.65975007 -8.35639714 14.8887154 -13 15 C-10 13 -10 13 -7.0625 12.25 C-3.06529961 10.61848963 -1.93940311 8.80421378 0 5 C0.33709062 2.24741188 0.33709062 2.24741188 0 0 Z " fill="#69A150" transform="translate(452,141)"/>
<path d="M0 0 C1.26041675 2.5208335 0.66225891 3.35096436 0 6 C0.33 6.66 0.66 7.32 1 8 C0.34 8.66 -0.32 9.32 -1 10 C-1.66 9.01 -2.32 8.02 -3 7 C-3.4125 7.804375 -3.825 8.60875 -4.25 9.4375 C-6 12 -6 12 -8.109375 12.66015625 C-8.73328125 12.77230469 -9.3571875 12.88445312 -10 13 C-3.84965831 3.40546697 -3.84965831 3.40546697 0 0 Z " fill="#6EB03C" transform="translate(525,215)"/>
<path d="M0 0 C3.3 0.33 6.6 0.66 10 1 C9.01 1.33 8.02 1.66 7 2 C7 2.66 7 3.32 7 4 C6.278125 3.896875 5.55625 3.79375 4.8125 3.6875 C0.87958411 4.12449065 -0.46321923 6.10082197 -3 9 C-2.41321669 5.47930015 -1.64350079 3.28700157 0 0 Z " fill="#6DAB47" transform="translate(511,84)"/>
<path d="M0 0 C-0.33 1.32 -0.66 2.64 -1 4 C-1.66 4 -2.32 4 -3 4 C-3.28875 4.78375 -3.5775 5.5675 -3.875 6.375 C-5 9 -5 9 -7 11 C-9.625 11.125 -9.625 11.125 -12 11 C-2.73033708 0 -2.73033708 0 0 0 Z " fill="#68AD3E" transform="translate(778,66)"/>
<path d="M0 0 C2.4375 0.625 2.4375 0.625 5 2 C5.8125 5.125 5.8125 5.125 6 8 C5.34 7.67 4.68 7.34 4 7 C3.9175 7.598125 3.835 8.19625 3.75 8.8125 C2.77590452 11.65361183 1.59505753 12.54982079 -1 14 C-1.99 13.67 -2.98 13.34 -4 13 C-3.175 12.46375 -2.35 11.9275 -1.5 11.375 C1.30296439 9.21627747 1.30296439 9.21627747 1.375 5.9375 C1.08933543 2.94542544 1.08933543 2.94542544 0 0 Z " fill="#5AA63C" transform="translate(598,126)"/>
<path d="M0 0 C2.95857409 -0.05379226 5.91617721 -0.09357093 8.875 -0.125 C9.71675781 -0.14175781 10.55851562 -0.15851563 11.42578125 -0.17578125 C12.23144531 -0.18222656 13.03710938 -0.18867187 13.8671875 -0.1953125 C14.98262939 -0.21102295 14.98262939 -0.21102295 16.12060547 -0.22705078 C18 0 18 0 20 2 C17.89043868 4.10956132 13.46716878 3.23112319 10.5625 3.25 C9.37817383 3.2809375 9.37817383 3.2809375 8.16992188 3.3125 C5.87890625 3.328125 5.87890625 3.328125 2 3 C1.34 2.01 0.68 1.02 0 0 Z " fill="#45D821" transform="translate(405,85)"/>
<path d="M0 0 C0 1.65 0 3.3 0 5 C-0.99 5.33 -1.98 5.66 -3 6 C-3 6.66 -3 7.32 -3 8 C-6.3 8 -9.6 8 -13 8 C-11.68 7.34 -10.36 6.68 -9 6 C-7.5839871 4.9859351 -6.18798688 3.94338943 -4.8125 2.875 C-1.10526316 0 -1.10526316 0 0 0 Z " fill="#6BB03D" transform="translate(481,259)"/>
<path d="M0 0 C0 0.66 0 1.32 0 2 C-0.969375 2.391875 -1.93875 2.78375 -2.9375 3.1875 C-6.22176391 4.67594887 -6.22176391 4.67594887 -6.875 7.6875 C-6.91625 8.450625 -6.9575 9.21375 -7 10 C-8.32 10 -9.64 10 -11 10 C-11 7.25 -11 7.25 -10 4 C-7.04214086 1.85473952 -3.70743035 0 0 0 Z " fill="#6BB03C" transform="translate(604,191)"/>
<path d="M0 0 C0.66 0.33 1.32 0.66 2 1 C1.67 1.33 1.34 1.66 1 2 C1.04125 3.27875 1.0825 4.5575 1.125 5.875 C1.18037823 9.73763166 1.18037823 9.73763166 -0.375 12 C-2 13 -2 13 -4 13 C-3.55966813 7.80408388 -3.11696661 4.33664919 0 0 Z " fill="#5EB532" transform="translate(375,222)"/>
<path d="M0 0 C0.66 0.99 1.32 1.98 2 3 C1.125 5.6875 1.125 5.6875 0 8 C-0.66 7.67 -1.32 7.34 -2 7 C-2.33 7.33 -2.66 7.66 -3 8 C-4.65948148 9.01187895 -6.32580562 10.0126546 -8 11 C-6.63629701 8.00779732 -5.05091917 5.70973471 -2.875 3.25 C-2.33617187 2.63640625 -1.79734375 2.0228125 -1.2421875 1.390625 C-0.62730469 0.70226562 -0.62730469 0.70226562 0 0 Z " fill="#69AD40" transform="translate(447,214)"/>
<path d="M0 0 C6.53658978 0.62253236 10.70611141 3.28256374 14.875 8.25 C15.57625 9.1575 16.2775 10.065 17 11 C16.01 11.495 16.01 11.495 15 12 C15 11.34 15 10.68 15 10 C14.236875 9.7525 13.47375 9.505 12.6875 9.25 C10 8 10 8 8.625 6.0625 C6.24392321 3.04036407 3.57341287 2.34845769 0 1 C0 0.67 0 0.34 0 0 Z " fill="#6EA445" transform="translate(604,84)"/>
<path d="M0 0 C1.15145508 -0.01836914 1.15145508 -0.01836914 2.32617188 -0.03710938 C6.22167874 -0.04729815 8.1241199 -0.02142006 11.4375 2.1875 C9.27467708 2.88269308 7.8654366 3.2979652 5.63671875 2.72265625 C3.03189071 2.08879934 0.67930686 2.0550678 -2 2.0625 C-2.92683594 2.05992187 -3.85367187 2.05734375 -4.80859375 2.0546875 C-7.49115981 2.18405948 -9.94818718 2.58967166 -12.5625 3.1875 C-12.5625 2.5275 -12.5625 1.8675 -12.5625 1.1875 C-8.33406021 0.00457524 -4.36395408 0.00368266 0 0 Z " fill="#6FA549" transform="translate(472.5625,219.8125)"/>
<path d="M0 0 C0.928125 0.4640625 0.928125 0.4640625 1.875 0.9375 C5.54855013 2.18650704 8.93700983 2.42500809 12.79296875 2.65625 C15 3 15 3 17 5 C10.97083146 6.64431869 5.6157179 5.55259904 0 3 C0 2.01 0 1.02 0 0 Z " fill="#6EB04A" transform="translate(381,264)"/>
<path d="M0 0 C-0.25 2.875 -0.25 2.875 -1 6 C-3.0625 7.375 -3.0625 7.375 -5 8 C-5.33 6.02 -5.66 4.04 -6 2 C-3 0 -3 0 0 0 Z " fill="#67A836" transform="translate(561,261)"/>
<path d="M0 0 C1.32 0.66 2.64 1.32 4 2 C4 2.33 4 2.66 4 3 C6.64 3.66 9.28 4.32 12 5 C12 5.33 12 5.66 12 6 C5.92671312 6.50610724 2.22771463 5.04157942 -3 2 C-2.01 1.34 -1.02 0.68 0 0 Z " fill="#6DA945" transform="translate(708,75)"/>
<path d="M0 0 C3.63 0 7.26 0 11 0 C11.33 0.99 11.66 1.98 12 3 C10.56260487 3.02712066 9.12506137 3.04645067 7.6875 3.0625 C6.48673828 3.07990234 6.48673828 3.07990234 5.26171875 3.09765625 C3 3 3 3 0 2 C0 1.34 0 0.68 0 0 Z " fill="#6BA344" transform="translate(550,106)"/>
<path d="M0 0 C3.63 0 7.26 0 11 0 C11.33 0.66 11.66 1.32 12 2 C8.0186217 3.3271261 4.14954773 3.06915913 0 3 C0 2.01 0 1.02 0 0 Z " fill="#689F4A" transform="translate(582,96)"/>
<path d="M0 0 C2.71743027 2.71743027 3.50932886 5.86942046 4.6875 9.4375 C4.92533203 10.11876953 5.16316406 10.80003906 5.40820312 11.50195312 C7.12211809 16.63364573 7.12211809 16.63364573 6 20 C2.55842108 13.772381 0 7.15293157 0 0 Z " fill="#67A24B" transform="translate(424,87)"/>
<path d="M0 0 C3.96 0 7.92 0 12 0 C12 0.66 12 1.32 12 2 C4.25 3.125 4.25 3.125 2 2 C1.67 2.99 1.34 3.98 1 5 C0.34 4.34 -0.32 3.68 -1 3 C-0.67 2.01 -0.34 1.02 0 0 Z " fill="#71B34A" transform="translate(392,235)"/>
<path d="M0 0 C-1.95519384 1.17192047 -3.9142539 2.3373929 -5.875 3.5 C-6.96554687 4.1496875 -8.05609375 4.799375 -9.1796875 5.46875 C-12 7 -12 7 -14 7 C-14 6.34 -14 5.68 -14 5 C-12.34467377 3.98133771 -10.67739862 2.98189187 -9 2 C-8.67 1.34 -8.34 0.68 -8 0 C-4.71585695 -0.95067299 -3.30306592 -1.10102197 0 0 Z " fill="#69AA42" transform="translate(714,163)"/>
<path d="M0 0 C2.375 -0.125 2.375 -0.125 5 0 C5.66 0.66 6.32 1.32 7 2 C9.65719837 2.68177998 9.65719837 2.68177998 12.625 3.125 C13.62789062 3.29257813 14.63078125 3.46015625 15.6640625 3.6328125 C16.43492187 3.75398437 17.20578125 3.87515625 18 4 C18 4.33 18 4.66 18 5 C10.75460274 5.53449652 6.27087737 4.71607548 0 1 C0 0.67 0 0.34 0 0 Z " fill="#6EA84B" transform="translate(553,150)"/>
<path d="M0 0 C0.66 0.33 1.32 0.66 2 1 C-0.31 3.64 -2.62 6.28 -5 9 C-7 6 -7 6 -7 4 C-6.030625 3.525625 -5.06125 3.05125 -4.0625 2.5625 C-1.19522563 1.29806053 -1.19522563 1.29806053 0 0 Z " fill="#66A33C" transform="translate(770,113)"/>
<path d="M0 0 C0.33 0.66 0.66 1.32 1 2 C0.00390625 4.3828125 0.00390625 4.3828125 -1.4375 7.125 C-1.91058594 8.03507812 -2.38367188 8.94515625 -2.87109375 9.8828125 C-3.24363281 10.58148438 -3.61617187 11.28015625 -4 12 C-4.99 11.67 -5.98 11.34 -7 11 C-7 9.68 -7 8.36 -7 7 C-5.68 7 -4.36 7 -3 7 C-2.690625 6.030625 -2.38125 5.06125 -2.0625 4.0625 C-1 1 -1 1 0 0 Z " fill="#65A438" transform="translate(804,59)"/>
<path d="M0 0 C1.17539996 0.92652701 2.34010577 1.86663387 3.5 2.8125 C4.1496875 3.33457031 4.799375 3.85664063 5.46875 4.39453125 C7 6 7 6 7 9 C3.34683329 7.75023244 2.21934164 7.32901247 0 4 C0 2.68 0 1.36 0 0 Z " fill="#68A741" transform="translate(632,24)"/>
<path d="M0 0 C0.66 0 1.32 0 2 0 C2 0.66 2 1.32 2 2 C2.62648438 2.06058594 3.25296875 2.12117187 3.8984375 2.18359375 C4.71570313 2.26738281 5.53296875 2.35117188 6.375 2.4375 C7.59316406 2.55931641 7.59316406 2.55931641 8.8359375 2.68359375 C11 3 11 3 13 4 C11 6 11 6 8.1875 6.4375 C4.00763036 5.8637924 2.6415098 4.18535006 0 1 C0 0.67 0 0.34 0 0 Z " fill="#72A749" transform="translate(548,223)"/>
<path d="M0 0 C0.33 0 0.66 0 1 0 C1.33 2.31 1.66 4.62 2 7 C2.66 7 3.32 7 4 7 C4.33 6.01 4.66 5.02 5 4 C6 8.875 6 8.875 6 10 C4.35 10 2.7 10 1 10 C-0.1577506 6.52674819 -0.06866652 3.63932552 0 0 Z " fill="#6AAE3E" transform="translate(546,133)"/>
<path d="M0 0 C-1.03631329 2.82630897 -1.60080006 3.81090529 -4.375 5.125 C-5.24125 5.41375 -6.1075 5.7025 -7 6 C-8.34050052 6.65213539 -9.67661368 7.31379969 -11 8 C-9.94434467 4.71573897 -8.38339648 3.42848444 -5.5 1.75 C-2 0 -2 0 0 0 Z " fill="#70AE47" transform="translate(391,211)"/>
<path d="M0 0 C4.09246125 4.50170738 6 8.86680804 6 15 C5.34 15 4.68 15 4 15 C3.32779649 13.06441401 2.66241923 11.12645628 2 9.1875 C1.62875 8.10855469 1.2575 7.02960938 0.875 5.91796875 C0 3 0 3 0 0 Z " fill="#69A645" transform="translate(653,103)"/>
<path d="M0 0 C1.32 0.33 2.64 0.66 4 1 C1 4 -2 7 -5 10 C-5.33 9.01 -5.66 8.02 -6 7 C-4.6875 4.8125 -4.6875 4.8125 -3 3 C-2.34 3 -1.68 3 -1 3 C-0.67 2.01 -0.34 1.02 0 0 Z " fill="#6AA343" transform="translate(455,224)"/>
<path d="M0 0 C4.38332057 0.82187261 8.67940177 1.90154282 13 3 C13 3.33 13 3.66 13 4 C9.04 4 5.08 4 1 4 C0.67 2.68 0.34 1.36 0 0 Z " fill="#68B439" transform="translate(463,216)"/>
<path d="M0 0 C-0.7109375 1.921875 -0.7109375 1.921875 -2 4 C-4.1640625 4.828125 -4.1640625 4.828125 -6.625 5.25 C-7.85089844 5.47429687 -7.85089844 5.47429687 -9.1015625 5.703125 C-9.72804688 5.80109375 -10.35453125 5.8990625 -11 6 C-7.57865372 2.33427184 -5.14341528 0 0 0 Z " fill="#6AAE49" transform="translate(460,208)"/>
<path d="M0 0 C1.32 0.33 2.64 0.66 4 1 C3.01 1.33 2.02 1.66 1 2 C0.67 4.64 0.34 7.28 0 10 C-0.99 10.33 -1.98 10.66 -3 11 C-2.69078116 9.54096742 -2.37751201 8.08279278 -2.0625 6.625 C-1.88847656 5.81289062 -1.71445312 5.00078125 -1.53515625 4.1640625 C-1 2 -1 2 0 0 Z " fill="#6FA945" transform="translate(454,85)"/>
<path d="M0 0 C2 1 2 1 3.125 3.3125 C4 6 4 6 4 10 C3.34 10 2.68 10 2 10 C2 9.01 2 8.02 2 7 C1.01 6.67 0.02 6.34 -1 6 C-0.67 4.02 -0.34 2.04 0 0 Z " fill="#62A338" transform="translate(754,29)"/>
<path d="M0 0 C0.66 0.99 1.32 1.98 2 3 C1.1015625 5.69921875 1.1015625 5.69921875 -0.375 8.6875 C-0.85710938 9.68136719 -1.33921875 10.67523438 -1.8359375 11.69921875 C-2.22007812 12.45847656 -2.60421875 13.21773437 -3 14 C-4.22578535 10.32264395 -3.46596728 9.44933477 -2 6 C-2 5.01 -2 4.02 -2 3 C-1.34 3 -0.68 3 0 3 C0 2.01 0 1.02 0 0 Z " fill="#68A53E" transform="translate(819,24)"/>
<path d="M0 0 C0.515625 0.309375 1.03125 0.61875 1.5625 0.9375 C4.66665423 2.29059287 7.65115007 2.61359424 11 3 C11 3.33 11 3.66 11 4 C9.37675914 4.22162329 7.751279 4.42689803 6.125 4.625 C4.76761719 4.79902344 4.76761719 4.79902344 3.3828125 4.9765625 C2.59648438 4.98429688 1.81015625 4.99203125 1 5 C0.34 4.34 -0.32 3.68 -1 3 C-0.67 2.01 -0.34 1.02 0 0 Z " fill="#69AA3C" transform="translate(537,218)"/>
<path d="M0 0 C3.38297413 0.17805127 4.76272061 0.78837244 7.3125 3.0625 C8.1478125 4.0215625 8.1478125 4.0215625 9 5 C8.01 5.495 8.01 5.495 7 6 C6.34 5.67 5.68 5.34 5 5 C5 4.34 5 3.68 5 3 C2.69 2.67 0.38 2.34 -2 2 C-1.34 1.34 -0.68 0.68 0 0 Z " fill="#6EAB44" transform="translate(486,210)"/>
<path d="M0 0 C-2.60542016 1.73694677 -4.58342775 2.69100448 -7.5 3.6875 C-8.2734375 3.95949219 -9.046875 4.23148438 -9.84375 4.51171875 C-12 5 -12 5 -15 4 C-13.35 3.67 -11.7 3.34 -10 3 C-10 2.34 -10 1.68 -10 1 C-6.52674819 -0.1577506 -3.63932552 -0.06866652 0 0 Z " fill="#6CA547" transform="translate(666,184)"/>
<path d="M0 0 C2.25 0.25 2.25 0.25 4 1 C3.67 1.66 3.34 2.32 3 3 C1.68 3 0.36 3 -1 3 C-1 4.32 -1 5.64 -1 7 C-1.66 7 -2.32 7 -3 7 C-3.33 6.01 -3.66 5.02 -4 4 C-2.25 1.9375 -2.25 1.9375 0 0 Z " fill="#61AB2E" transform="translate(570,97)"/>
<path d="M0 0 C0.66 0 1.32 0 2 0 C1.34 3.96 0.68 7.92 0 12 C-0.66 12 -1.32 12 -2 12 C-1.85962479 10.18706911 -1.71255111 8.3746557 -1.5625 6.5625 C-1.48128906 5.55316406 -1.40007812 4.54382813 -1.31640625 3.50390625 C-1 1 -1 1 0 0 Z " fill="#62A341" transform="translate(447,236)"/>
<path d="M0 0 C1.32 0.33 2.64 0.66 4 1 C3.19152271 2.16945792 2.37810888 3.33550461 1.5625 4.5 C1.11003906 5.1496875 0.65757812 5.799375 0.19140625 6.46875 C-0.20175781 6.9740625 -0.59492187 7.479375 -1 8 C-1.33 8 -1.66 8 -2 8 C-2 6.35 -2 4.7 -2 3 C-1.34 3 -0.68 3 0 3 C0 2.01 0 1.02 0 0 Z " fill="#69A343" transform="translate(779,98)"/>
<path d="M0 0 C0.99 0.66 1.98 1.32 3 2 C1.75023244 5.65316671 1.32901247 6.78065836 -2 9 C-2.33 7.68 -2.66 6.36 -3 5 C-2.01 5 -1.02 5 0 5 C0 3.35 0 1.7 0 0 Z " fill="#6DA644" transform="translate(424,262)"/>
<path d="M0 0 C1.32 0.33 2.64 0.66 4 1 C2.02 3.97 2.02 3.97 0 7 C-0.99 6.67 -1.98 6.34 -3 6 C-2 4 -1 2 0 0 Z " fill="#66A839" transform="translate(527,230)"/>
<path d="M0 0 C0.66 1.32 1.32 2.64 2 4 C-0.31 4.33 -2.62 4.66 -5 5 C-4 2 -4 2 -1.9375 0.8125 C-1.298125 0.544375 -0.65875 0.27625 0 0 Z " fill="#6FAF41" transform="translate(627,177)"/>
<path d="M0 0 C1.65 0.33 3.3 0.66 5 1 C4.67 2.32 4.34 3.64 4 5 C2.35 5 0.7 5 -1 5 C-1.33 4.34 -1.66 3.68 -2 3 C-1.34 3 -0.68 3 0 3 C0 2.01 0 1.02 0 0 Z " fill="#5DB92D" transform="translate(553,146)"/>
<path d="M0 0 C0.99 0 1.98 0 3 0 C2.745504 1.48206495 2.47088238 2.96068615 2.1875 4.4375 C2.03667969 5.26121094 1.88585937 6.08492187 1.73046875 6.93359375 C1.48941406 7.61550781 1.24835938 8.29742187 1 9 C0.01 9.33 -0.98 9.66 -2 10 C-1.67 9.01 -1.34 8.02 -1 7 C-0.64456573 4.66993089 -0.3086247 2.33672984 0 0 Z " fill="#68A740" transform="translate(452,141)"/>
<path d="M0 0 C0.33 0.66 0.66 1.32 1 2 C1.66 2 2.32 2 3 2 C4.04005702 5.38018531 4.08004482 8.4780279 4 12 C2.09681116 9.14521674 1.5380901 7.58058692 0.875 4.3125 C0.70742188 3.50425781 0.53984375 2.69601563 0.3671875 1.86328125 C0.24601562 1.24839844 0.12484375 0.63351563 0 0 Z " fill="#6AA742" transform="translate(470,118)"/>
<path d="M0 0 C0.99 0 1.98 0 3 0 C2.125 5.75 2.125 5.75 1 8 C0.34 8 -0.32 8 -1 8 C-0.67 5.36 -0.34 2.72 0 0 Z " fill="#60AE3E" transform="translate(525,86)"/>
<path d="M0 0 C2.97 0.33 5.94 0.66 9 1 C6.62216162 3.37783838 5.27926335 3.59009208 2 4 C1.34 3.67 0.68 3.34 0 3 C0 2.01 0 1.02 0 0 Z " fill="#69AC43" transform="translate(730,76)"/>
<path d="M0 0 C0.33 0.66 0.66 1.32 1 2 C1.99 2 2.98 2 4 2 C4 2.99 4 3.98 4 5 C4.66 5 5.32 5 6 5 C6 5.66 6 6.32 6 7 C4.35 6.67 2.7 6.34 1 6 C0.67 4.02 0.34 2.04 0 0 Z " fill="#6CAC3C" transform="translate(367,268)"/>
<path d="M0 0 C2.25245881 2.68841859 3.88213958 4.64641875 5 8 C2.4636387 6.98545548 1.20648539 6.3146444 -0.3125 4 C-0.539375 3.34 -0.76625 2.68 -1 2 C-0.67 1.34 -0.34 0.68 0 0 Z " fill="#67A23E" transform="translate(567,131)"/>
<path d="M0 0 C1.5625 1.75 1.5625 1.75 3 4 C2.6875 6.25 2.6875 6.25 2 8 C1.01 7.67 0.02 7.34 -1 7 C-0.67 4.69 -0.34 2.38 0 0 Z " fill="#69AA3D" transform="translate(600,102)"/>
<path d="M0 0 C0 0.99 0 1.98 0 3 C-0.99 3.33 -1.98 3.66 -3 4 C-3.73323796 6.01508358 -3.73323796 6.01508358 -4 8 C-4.99 7.67 -5.98 7.34 -7 7 C-2.25 1.125 -2.25 1.125 0 0 Z " fill="#020202" transform="translate(216,86)"/>
<path d="M0 0 C0.99 0.66 1.98 1.32 3 2 C1.6875 3.5 1.6875 3.5 0 5 C-0.99 5 -1.98 5 -3 5 C-3.33 5.66 -3.66 6.32 -4 7 C-4 5.68 -4 4.36 -4 3 C-2 1.25 -2 1.25 0 0 Z " fill="#5CBC34" transform="translate(761,79)"/>
<path d="M0 0 C1.32 0.66 2.64 1.32 4 2 C3.67 2.66 3.34 3.32 3 4 C0.67843403 4.40729228 -1.6568787 4.74438677 -4 5 C-3.34 4.67 -2.68 4.34 -2 4 C-2 3.34 -2 2.68 -2 2 C-1.34 2 -0.68 2 0 2 C0 1.34 0 0.68 0 0 Z " fill="#54BC2D" transform="translate(420,241)"/>
<path d="M0 0 C0.66 0 1.32 0 2 0 C4.27678571 8.03571429 4.27678571 8.03571429 3 12 C2.49440092 10.56445975 1.9957251 9.1264798 1.5 7.6875 C1.2215625 6.88699219 0.943125 6.08648437 0.65625 5.26171875 C0 3 0 3 0 0 Z " fill="#6DA844" transform="translate(474,131)"/>
<path d="M0 0 C1.32 0.66 2.64 1.32 4 2 C2.35 3.65 0.7 5.3 -1 7 C-0.67 4.69 -0.34 2.38 0 0 Z " fill="#69AA3E" transform="translate(747,133)"/>
<path d="M0 0 C0.66 0.33 1.32 0.66 2 1 C1.34 3.64 0.68 6.28 0 9 C-0.33 8.01 -0.66 7.02 -1 6 C-1.66 6 -2.32 6 -3 6 C-2.67 5.01 -2.34 4.02 -2 3 C-1.34 3 -0.68 3 0 3 C0 2.01 0 1.02 0 0 Z " fill="#65AB3E" transform="translate(463,109)"/>
<path d="M0 0 C0.6875 1.6875 0.6875 1.6875 1 4 C-0.3125 6.75 -0.3125 6.75 -2 9 C-2.66 9 -3.32 9 -4 9 C-2.94124926 5.59687262 -1.99097846 2.98646769 0 0 Z " fill="#6EAB43" transform="translate(514,229)"/>
<path d="M0 0 C0.66 0.33 1.32 0.66 2 1 C1.6189482 3.76262553 1.16402868 4.84143894 -0.875 6.8125 C-1.57625 7.204375 -2.2775 7.59625 -3 8 C-3.99 7.67 -4.98 7.34 -6 7 C-5.195625 6.401875 -4.39125 5.80375 -3.5625 5.1875 C-0.77672016 3.19052724 -0.77672016 3.19052724 0 0 Z " fill="#73AA4A" transform="translate(600,132)"/>
<path d="M0 0 C0.99 0.33 1.98 0.66 3 1 C2 3 2 3 0.15234375 3.6328125 C-0.57855469 3.79523438 -1.30945313 3.95765625 -2.0625 4.125 C-2.79597656 4.29257813 -3.52945313 4.46015625 -4.28515625 4.6328125 C-4.85105469 4.75398438 -5.41695312 4.87515625 -6 5 C-2.25 1.125 -2.25 1.125 0 0 Z " fill="#70AC49" transform="translate(561,84)"/>
<path d="M0 0 C2.31 0 4.62 0 7 0 C7.33 0.99 7.66 1.98 8 3 C5.69 3 3.38 3 1 3 C0.67 2.01 0.34 1.02 0 0 Z " fill="#70AD42" transform="translate(565,83)"/>
<path d="M0 0 C2 3 2 3 1.625 5.6875 C1.41875 6.450625 1.2125 7.21375 1 8 C-1.13562754 5.86437246 -1.63318342 4.93453261 -2 2 C-1.34 1.34 -0.68 0.68 0 0 Z " fill="#6AB13A" transform="translate(814,20)"/>
<path d="M0 0 C3.36591866 1.44253657 5.51047079 3.33264727 8 6 C7.67 6.66 7.34 7.32 7 8 C6.401875 7.360625 5.80375 6.72125 5.1875 6.0625 C3.09189663 3.79689611 3.09189663 3.79689611 0 3 C0 2.01 0 1.02 0 0 Z " fill="#65A644" transform="translate(744,18)"/>
<path d="M0 0 C2.64 0.66 5.28 1.32 8 2 C7 4 7 4 5.125 4.8125 C3 5 3 5 1.25 3.6875 C0 2 0 2 0 0 Z " fill="#71AB4F" transform="translate(526,263)"/>
<path d="M0 0 C2.97 0.33 5.94 0.66 9 1 C9 1.66 9 2.32 9 3 C2.25 2.25 2.25 2.25 0 0 Z " fill="#70B144" transform="translate(405,236)"/>
<path d="M0 0 C0.66 0 1.32 0 2 0 C2.99 2.31 3.98 4.62 5 7 C3.0625 6.3125 3.0625 6.3125 1 5 C0.25 2.375 0.25 2.375 0 0 Z " fill="#6FA545" transform="translate(372,236)"/>
<path d="M0 0 C2.475 0.99 2.475 0.99 5 2 C3.68 3.32 2.36 4.64 1 6 C1 5.34 1 4.68 1 4 C0.01 4 -0.98 4 -2 4 C-2 3.34 -2 2.68 -2 2 C-1.34 2 -0.68 2 0 2 C0 1.34 0 0.68 0 0 Z " fill="#52C430" transform="translate(388,232)"/>
<path d="M0 0 C0.66 0.33 1.32 0.66 2 1 C0.515 4.465 0.515 4.465 -1 8 C-1.66 8 -2.32 8 -3 8 C-2.45276317 4.62537285 -1.9451 2.91765 0 0 Z " fill="#6EAA49" transform="translate(375,222)"/>
<path d="M0 0 C0.33 0.99 0.66 1.98 1 3 C-2.3 2.67 -5.6 2.34 -9 2 C-5.23312136 0.11656068 -3.97041037 -0.22057835 0 0 Z " fill="#4DC832" transform="translate(477,85)"/>
<path d="M0 0 C3.36720387 1.39332574 4.9859524 2.9789286 7 6 C6.01 6 5.02 6 4 6 C4 5.34 4 4.68 4 4 C2.68 3.67 1.36 3.34 0 3 C0 2.01 0 1.02 0 0 Z " fill="#66AA37" transform="translate(625,18)"/>
<path d="M0 0 C1.65 0 3.3 0 5 0 C5 0.33 5 0.66 5 1 C3.35 1 1.7 1 0 1 C0 0.67 0 0.34 0 0 Z " fill="#000000" transform="translate(268,127)"/>
<path d="M0 0 C1 4 1 4 1 4 Z " fill="#000000" transform="translate(201,118)"/>
<path d="" fill="#000000" transform="translate(0,0)"/>
<path d="" fill="#000000" transform="translate(0,0)"/>
<path d="" fill="#000000" transform="translate(0,0)"/>
<path d="" fill="#000000" transform="translate(0,0)"/>
<path d="" fill="#000000" transform="translate(0,0)"/>
<path d="" fill="#000000" transform="translate(0,0)"/>
<path d="" fill="#000000" transform="translate(0,0)"/>
</svg>
