<?xml version="1.0" encoding="UTF-8"?>
<svg version="1.1" xmlns="http://www.w3.org/2000/svg" width="825" height="293">
<path d="M0 0 C272.25 0 544.5 0 825 0 C825 96.69 825 193.38 825 293 C552.75 293 280.5 293 0 293 C0 196.31 0 99.62 0 0 Z " fill="#FDFDFD" transform="translate(0,0)"/>
<path d="M0 0 C72.27 0 144.54 0 219 0 C219 17.21742884 219 17.21742884 214.25 26.375 C213.75556396 27.3861084 213.26112793 28.3972168 212.75170898 29.43896484 C211.71087244 31.56450398 210.65855147 33.68445527 209.59521484 35.79882812 C208.02246978 38.95490913 206.51174571 42.13327458 205.01953125 45.328125 C195.99898311 64.59861785 186.49474863 83.71461293 174 101 C173.51450684 101.67337402 173.02901367 102.34674805 172.52880859 103.04052734 C150.41281645 133.42822138 122.11301978 156.23759305 88 172 C87.25540527 172.34740234 86.51081055 172.69480469 85.74365234 173.05273438 C63.91711801 183.12721511 40.97558507 190.68861993 17.42822266 195.48095703 C15.03243896 195.99306603 12.66526063 196.57243548 10.29296875 197.18359375 C2.10532807 199.28649842 -5.48392496 200.59071041 -14 200 C-14.33 199.01 -14.66 198.02 -15 197 C-14.33170166 196.65855957 -13.66340332 196.31711914 -12.97485352 195.96533203 C26.07444667 177.37433781 26.07444667 177.37433781 50.0546875 142.98046875 C51.6719301 137.88147659 52.18241658 133.29348574 52.25 127.9375 C52.27578125 126.72964844 52.3015625 125.52179688 52.328125 124.27734375 C51.87167982 113.66724346 47.56527161 103.93699282 43.3125 94.375 C42.7369379 93.06641459 42.16158556 91.7577369 41.58642578 90.44897461 C33.09332357 71.21441724 24.04925394 52.22879943 14.79296875 33.3515625 C14.1385379 32.01541145 14.1385379 32.01541145 13.47088623 30.65226746 C11.33316969 26.2897858 9.18841511 21.9310258 7.03076172 17.57836914 C6.25082436 15.99372725 5.47103186 14.40901404 4.69140625 12.82421875 C4.33177292 12.10493195 3.97213959 11.38564514 3.60160828 10.64456177 C1.80834143 6.98486597 0.81171375 4.05856877 0 0 Z " fill="#FCFDFC" transform="translate(606,0)"/>
<path d="M0 0 C5.31786332 2.74171284 8.91243903 5.62645743 12.8125 10.125 C13.85236094 11.28937556 14.89405361 12.45211767 15.9375 13.61328125 C16.70707031 14.47300537 16.70707031 14.47300537 17.4921875 15.35009766 C19.68700279 17.75174301 21.99296039 20.03185511 24.3125 22.3125 C27.79336237 25.74902017 31.04532202 29.28829423 34.22265625 33.00390625 C36.87694956 35.98488181 39.72988637 38.75287483 42.59375 41.53125 C44.50917545 43.49642676 46.29366276 45.48258287 48.078125 47.5625 C52.4296544 52.57236164 57.06940157 57.29130869 61.75048828 61.99072266 C63.24073167 63.49067131 64.71991392 65.00099158 66.19921875 66.51171875 C74.57248743 74.97999216 83.45245334 82.21568839 94.25 87.375 C94.90484375 87.70371094 95.5596875 88.03242187 96.234375 88.37109375 C103.24646433 91.80757404 109.65556991 93.33405325 117.4375 93.25 C118.14970703 93.25773437 118.86191406 93.26546875 119.59570312 93.2734375 C139.25518924 93.20201339 155.61911328 81.26486747 169 68 C171.44785412 65.42064958 173.72452774 62.73150699 176 60 C176.89909377 58.96055151 177.80032868 57.92295307 178.703125 56.88671875 C184.21198389 50.54874333 189.54998851 44.11605658 194.69848633 37.48217773 C200.16319191 30.45977111 205.85239426 23.62095336 211.54248047 16.78076172 C212.82368288 15.21541995 214.05842267 13.61229028 215.28515625 12.00390625 C215.85105469 11.34261719 216.41695312 10.68132813 217 10 C217.66 10 218.32 10 219 10 C218.51416236 16.12919372 217.10940337 20.716029 214.421875 26.21484375 C214.05903412 26.97947937 213.69619324 27.74411499 213.32235718 28.53192139 C212.14360247 31.00642103 210.94780125 33.47217047 209.75 35.9375 C208.92523425 37.65256593 208.10085559 39.36781805 207.27685547 41.08325195 C179.83214964 98.02823874 146.87782827 144.79466035 88 172 C87.25540527 172.34740234 86.51081055 172.69480469 85.74365234 173.05273438 C63.91711801 183.12721511 40.97558507 190.68861993 17.42822266 195.48095703 C15.03243896 195.99306603 12.66526063 196.57243548 10.29296875 197.18359375 C2.10532807 199.28649842 -5.48392496 200.59071041 -14 200 C-14.33 199.01 -14.66 198.02 -15 197 C-14.33170166 196.65855957 -13.66340332 196.31711914 -12.97485352 195.96533203 C26.07444667 177.37433781 26.07444667 177.37433781 50.0546875 142.98046875 C51.6719301 137.88147659 52.18241658 133.29348574 52.25 127.9375 C52.27578125 126.72964844 52.3015625 125.52179688 52.328125 124.27734375 C51.87167982 113.66724346 47.56527161 103.93699282 43.3125 94.375 C42.7369379 93.06641459 42.16158556 91.7577369 41.58642578 90.44897461 C33.09332357 71.21441724 24.04925394 52.22879943 14.79296875 33.3515625 C14.1385379 32.01541145 14.1385379 32.01541145 13.47088623 30.65226746 C11.33316969 26.2897858 9.18841511 21.9310258 7.03076172 17.57836914 C6.25082436 15.99372725 5.47103186 14.40901404 4.69140625 12.82421875 C4.33177292 12.10493195 3.97213959 11.38564514 3.60160828 10.64456177 C1.87461328 7.12011343 0.52292903 3.90513731 0 0 Z " fill="#64B632" transform="translate(606,0)"/>
<path d="M0 0 C12.808125 -0.0928125 12.808125 -0.0928125 25.875 -0.1875 C28.55093262 -0.21481201 31.22686523 -0.24212402 33.98388672 -0.27026367 C36.1324824 -0.27903506 38.28108312 -0.28667745 40.4296875 -0.29296875 C41.52289307 -0.30831665 42.61609863 -0.32366455 43.74243164 -0.33947754 C51.7604529 -0.34218207 59.89591369 0.2723334 66.4375 5.375 C75.14932357 14.29930707 74.31525874 26.61497668 74.22973633 38.34082031 C74.03900744 48.6680916 73.6552249 58.23172325 66 66 C63.11314354 67.77842181 60.22184304 68.96901023 57 70 C56.01 70.33 55.02 70.66 54 71 C52.0525806 71.0947171 50.10206406 71.13072165 48.15234375 71.1328125 C46.98896484 71.13410156 45.82558594 71.13539063 44.62695312 71.13671875 C43.40943359 71.13285156 42.19191406 71.12898438 40.9375 71.125 C39.74705078 71.12886719 38.55660156 71.13273437 37.33007812 71.13671875 C36.15767578 71.13542969 34.98527344 71.13414062 33.77734375 71.1328125 C32.71765381 71.13168457 31.65796387 71.13055664 30.56616211 71.12939453 C26.03144868 70.96485711 21.51517776 70.45151778 17 70 C17 79.57 17 89.14 17 99 C11.39 99 5.78 99 0 99 C0 66.33 0 33.66 0 0 Z " fill="#0B0B0B" transform="translate(110,83)"/>
<path d="M0 0 C5.66670423 5.28892395 7.64239344 11.6385519 8.27124023 19.30810547 C8.36585343 22.91846461 8.3603685 26.51380053 8.3125 30.125 C8.31572266 31.34832031 8.31894531 32.57164063 8.32226562 33.83203125 C8.26501262 43.46094607 7.66953809 52.49483533 1 60 C-10.89172056 69.15205873 -25.14104153 67.87057901 -39.32983398 66.12011719 C-40.25223877 65.99797852 -41.17464355 65.87583984 -42.125 65.75 C-43.01324463 65.64075195 -43.90148926 65.53150391 -44.81665039 65.41894531 C-52.98489302 64.23462396 -57.5562442 61.01887574 -62.75 54.5625 C-63.88695312 53.17224609 -63.88695312 53.17224609 -65.046875 51.75390625 C-69.76834169 45.09663821 -69.36648275 38.77901124 -69.375 30.875 C-69.39949219 29.70195313 -69.42398438 28.52890625 -69.44921875 27.3203125 C-69.48203749 17.47469189 -67.85319405 7.83120434 -60.828125 0.43359375 C-48.05846819 -9.58021832 -13.18633789 -10.10729452 0 0 Z " fill="#101010" transform="translate(76,88)"/>
<path d="M0 0 C8.07029553 -0.11547323 15.97667603 0.09958689 24 1 C24.89616281 3.8332295 25.79200306 6.66656001 26.6875 9.5 C26.95860596 10.35770996 27.22971191 11.21541992 27.5090332 12.09912109 C29.24753451 17.60395151 30.97229094 23.11287516 32.6875 28.625 C34.39418646 34.10585535 36.15558794 39.56383814 38 45 C40.16980953 41.74528571 41.50115089 38.428269 42.8984375 34.8046875 C43.17466949 34.09780792 43.45090149 33.39092834 43.73550415 32.66262817 C44.61871926 30.4013871 45.49721556 28.13835416 46.375 25.875 C47.52602297 22.91303422 48.679397 19.95200336 49.8359375 16.9921875 C50.11177673 16.28624451 50.38761597 15.58030151 50.67181396 14.85296631 C52.64391844 9.83542353 54.74525167 4.89824636 57 0 C62.15171623 -0.09038099 66.91913204 0.15318867 72 1 C71.38673835 5.28388523 70.38377137 9.17593457 68.97460938 13.26489258 C68.34891052 15.09127007 68.34891052 15.09127007 67.71057129 16.95454407 C67.25515314 18.26793866 66.79954151 19.58126618 66.34375 20.89453125 C65.87641783 22.251081 65.40942264 23.60774687 64.94274902 24.96452332 C63.96725533 27.79729396 62.98852995 30.62891974 62.00732422 33.4597168 C60.74772377 37.09415807 59.49500228 40.73092448 58.24449921 44.36850452 C57.28254226 47.16501226 56.31763985 49.9604962 55.35176086 52.75565147 C54.88849041 54.09706978 54.425995 55.43875601 53.96427917 56.78071022 C53.32089037 58.64883735 52.67324915 60.51549832 52.02539062 62.38208008 C51.6575647 63.44542068 51.28973877 64.50876129 50.9107666 65.60432434 C50 68 50 68 49 69 C47.36527118 69.08700342 45.72685945 69.10701063 44.08984375 69.09765625 C43.10048828 69.09443359 42.11113281 69.09121094 41.09179688 69.08789062 C40.05087891 69.07951172 39.00996094 69.07113281 37.9375 69.0625 C36.89271484 69.05798828 35.84792969 69.05347656 34.77148438 69.04882812 C32.1809334 69.03699913 29.59049441 69.02051689 27 69 C26.84442627 68.47269287 26.68885254 67.94538574 26.52856445 67.40209961 C23.90784979 58.53975626 21.27865744 49.69128171 18.3125 40.9375 C13 25.20564516 13 25.20564516 13 19 C12.34 19 11.68 19 11 19 C10.7628125 20.19496094 10.525625 21.38992187 10.28125 22.62109375 C8.80982511 29.2412105 6.62118796 35.62777807 4.5 42.0625 C3.69543264 44.51090387 2.89328252 46.96010362 2.09375 49.41015625 C1.71863281 50.55500488 1.34351563 51.69985352 0.95703125 52.87939453 C0.17117882 55.44183478 -0.44233838 57.93576013 -0.96875 60.55859375 C-2.21856656 64.72938311 -3.45949002 66.4710643 -7 69 C-10.59375 69.59375 -10.59375 69.59375 -14.5 69.5 C-15.7890625 69.4896875 -17.078125 69.479375 -18.40625 69.46875 C-22.20703358 68.97299562 -23.93862385 68.23136835 -27 66 C-28.1171875 64.04125977 -28.1171875 64.04125977 -28.875 61.62890625 C-29.35646484 60.1596167 -29.35646484 60.1596167 -29.84765625 58.66064453 C-30.22792969 57.45263184 -30.60820312 56.24461914 -31 55 C-31.51657441 53.44156235 -32.03635002 51.8841837 -32.55859375 50.32763672 C-34.70537461 43.92345447 -36.82324568 37.50978991 -38.93652344 31.09448242 C-39.85079875 28.32119662 -40.76893241 25.54921033 -41.6875 22.77734375 C-41.96053955 21.94476547 -42.2335791 21.11218719 -42.51489258 20.25437927 C-44.22833614 15.09237211 -46.14373703 10.05782612 -48.24145508 5.03907776 C-49 3 -49 3 -49 1 C-43.06 1 -37.12 1 -31 1 C-27.0678478 10.37226569 -23.93163287 19.97984779 -20.75 29.625 C-20.19038526 31.31389525 -19.63049166 33.00269813 -19.0703125 34.69140625 C-17.71032442 38.79321296 -16.35411608 42.89625124 -15 47 C-13.18360379 41.43208518 -11.36887826 35.86362961 -9.55566406 30.29467773 C-8.93925544 28.4022774 -8.3223994 26.51002274 -7.70507812 24.61791992 C-6.81521361 21.89019814 -5.92698675 19.16194765 -5.0390625 16.43359375 C-4.76502594 15.59477158 -4.49098938 14.7559494 -4.20864868 13.89170837 C-2.71103595 9.28403718 -1.29915165 4.66762713 0 0 Z " fill="#67B736" transform="translate(454,85)"/>
<path d="M0 0 C0.88111954 -0.00807175 1.76223907 -0.01614349 2.6700592 -0.02445984 C4.54214508 -0.03831153 6.41425632 -0.04902882 8.28637695 -0.05688477 C11.11785807 -0.07396362 13.94813003 -0.11782214 16.77929688 -0.16210938 C37.96434583 -0.34640365 37.96434583 -0.34640365 45.19702148 5.9597168 C51.78264551 12.81666246 51.49875963 20.63440827 51.41796875 29.63671875 C51.41513885 30.82681549 51.41230896 32.01691223 51.40939331 33.24307251 C51.39822442 37.03324562 51.37312542 40.82317991 51.34765625 44.61328125 C51.33762222 47.18749658 51.3284971 49.76171563 51.3203125 52.3359375 C51.29829582 58.63679983 51.26485075 64.93752347 51.22265625 71.23828125 C44.28500153 71.26377926 37.34735905 71.28120996 30.40966797 71.29321289 C28.05289254 71.29822043 25.69612019 71.30502839 23.33935547 71.3137207 C19.93846881 71.32594376 16.53762348 71.3315455 13.13671875 71.3359375 C11.57360458 71.34367943 11.57360458 71.34367943 9.97891235 71.35157776 C-0.51189009 71.35236992 -9.84214504 71.30963422 -18.77734375 65.23828125 C-24.17477079 59.03124016 -25.27237312 51.89248355 -25.0859375 43.88671875 C-24.53209051 39.13344964 -22.80383573 36.11599281 -19.234375 32.80859375 C-12.22247581 27.38520262 -5.13029132 25.78002958 3.53515625 25.9453125 C4.38948242 25.94955734 5.24380859 25.95380219 6.12402344 25.95817566 C8.82390307 25.97482422 11.52300636 26.01244902 14.22265625 26.05078125 C16.0650933 26.06584602 17.90754218 26.07953127 19.75 26.09179688 C24.24117964 26.12468219 28.73178681 26.17636669 33.22265625 26.23828125 C32.93905738 24.79916785 32.64544226 23.36202607 32.34765625 21.92578125 C32.18523438 21.12527344 32.0228125 20.32476562 31.85546875 19.5 C31.27786626 16.98527007 31.27786626 16.98527007 29.22265625 14.23828125 C24.54047742 12.52878411 19.21214349 12.75045708 14.28515625 12.48828125 C13.29580078 12.41996094 12.30644531 12.35164063 11.28710938 12.28125 C7.13531007 12.063469 4.04271138 11.91254869 0.14453125 13.4609375 C-1.95494992 15.40253086 -2.74509794 16.71370258 -3.58984375 19.42578125 C-3.98171875 20.68390625 -4.37359375 21.94203125 -4.77734375 23.23828125 C-9.72734375 23.23828125 -14.67734375 23.23828125 -19.77734375 23.23828125 C-20.22281939 11.06194714 -20.22281939 11.06194714 -16.77734375 6.23828125 C-11.30307144 0.88079341 -7.48520613 0.06489795 0 0 Z " fill="#68B636" transform="translate(570.77734375,83.76171875)"/>
<path d="M0 0 C9.02365879 9.48641052 7 20.00061645 7 33 C-12.14 33 -31.28 33 -51 33 C-50.03557358 43.96078044 -50.03557358 43.96078044 -46.8203125 48.19921875 C-43.31774451 50.43562297 -41.01572218 50.69579906 -36.875 50.8125 C-36.21773926 50.83473633 -35.56047852 50.85697266 -34.88330078 50.87988281 C-32.9227116 50.93994463 -30.96128474 50.97034348 -29 51 C-27.9275 51.05027344 -26.855 51.10054687 -25.75 51.15234375 C-21.84841535 51.2848704 -18.71885558 51.23961853 -15 50 C-12.03540142 47.03540142 -11.24196959 43.98737604 -10 40 C-4.72 40 0.56 40 6 40 C6.38494977 46.92909582 6.2732625 52.28912758 2 58 C-6.17529172 64.79176383 -16.36195347 64.46877433 -26.5 64.375 C-27.75425781 64.38660156 -29.00851563 64.39820313 -30.30078125 64.41015625 C-42.11003472 64.37305912 -53.2723805 62.15130244 -62.234375 53.95703125 C-70.30706464 45.39821248 -72.4395983 36.20188529 -72.34765625 24.6171875 C-71.43810496 15.15376621 -67.38552927 4.13029092 -60.3515625 -2.5703125 C-44.15925519 -12.41480498 -15.06595313 -10.84364779 0 0 Z " fill="#0F0F0F" transform="translate(275,90)"/>
<path d="M0 0 C7.49279508 4.01826002 11.08700881 9.92993179 13.609375 17.93359375 C15.47139857 27.78369843 13.52312267 36.79323343 10 46 C9.58427734 47.10988281 9.58427734 47.10988281 9.16015625 48.2421875 C5.44858679 56.75998284 -1.56183731 64.1789452 -10 68 C-19.35128508 71.58858839 -29.33192057 71.11732005 -38.53125 67.26171875 C-46.14629927 63.36985022 -51.86501466 58.26980536 -55.109375 50.26171875 C-58.29197006 38.60616229 -56.04338856 27.52377365 -50.45703125 17.12890625 C-39.94463664 -0.60023523 -19.51254452 -9.21328404 0 0 Z " fill="#67B835" transform="translate(488,210)"/>
<path d="M0 0 C7.55945365 4.49967479 12.56012681 10.80431396 16.0625 18.875 C17.94945911 31.24506529 16.72949338 42.21801049 9.35546875 52.5234375 C3.11928475 59.87171752 -5.68124469 64.00922212 -15.2578125 64.80078125 C-25.76395462 65.0412833 -32.6058087 63.19318204 -40.6875 56.375 C-48.25333702 49.14172724 -52.28793815 40.83558596 -52.75 30.3125 C-52.55282662 20.07356821 -48.04943079 11.54711666 -41.375 4 C-29.4812011 -7.4363451 -14.09953464 -6.00535735 0 0 Z " fill="#63B631" transform="translate(740.375,15.4375)"/>
<path d="M0 0 C4.55214733 1.46319021 5.23827086 2.96332501 7.5 7.125 C8.361558 10.03798874 8.83141715 12.9676985 9.28125 15.96875 C9.49158875 17.23797302 9.49158875 17.23797302 9.70617676 18.53283691 C10.15125089 21.22819397 10.57708614 23.92608456 11 26.625 C12.87395892 38.39560371 14.95526638 49.72481074 18.5 61.125 C19.54533508 64.89848827 19.85784855 68.1886659 19.5 72.125 C17.43174529 74.49966282 16.06571765 75.01185647 13 75.625 C10.5 75.125 10.5 75.125 8.375 73.25 C3.68833405 65.43889008 2.51200474 55.83126329 0.8125 47 C0.58755859 45.85273438 0.36261719 44.70546875 0.13085938 43.5234375 C-0.41720841 40.72479348 -0.96073249 37.92535059 -1.5 35.125 C-2.56512691 37.83232547 -3.62736959 40.54071747 -4.6875 43.25 C-5.00702637 44.0637207 -5.32655273 44.87744141 -5.65576172 45.71582031 C-7.14365225 49.53073283 -8.60125219 53.34348215 -9.90234375 57.2265625 C-13.97179228 69.36990091 -13.97179228 69.36990091 -18.5 73.125 C-21.5625 73.8125 -21.5625 73.8125 -24.5 73.125 C-27.97335072 69.50441669 -29.4900553 65.994083 -31 61.25 C-31.2064917 60.60667725 -31.4129834 59.96335449 -31.62573242 59.30053711 C-33.83148582 52.31071204 -35.6966038 45.22776157 -37.5 38.125 C-38.27645059 40.83183566 -39.04733048 43.53996797 -39.8125 46.25 C-40.04251709 47.06227051 -40.27253418 47.87454102 -40.50952148 48.71142578 C-42.22359669 54.86906447 -43.54868325 61.00214504 -44.62890625 67.3046875 C-45.64494212 70.59427447 -46.80790263 72.01335485 -49.5 74.125 C-52.5625 74.625 -52.5625 74.625 -55.5 74.125 C-58.12894705 71.35378052 -58.91291519 69.41651947 -58.875 65.625 C-58.62697554 58.21661731 -56.48663157 51.32824443 -54.328125 44.28515625 C-53.90550291 42.898665 -53.48364967 41.51193921 -53.0625 40.125 C-52.84706543 39.41923828 -52.63163086 38.71347656 -52.40966797 37.98632812 C-50.47029675 31.43750006 -49.15093498 24.80891838 -48.01977539 18.07617188 C-47.04917908 12.67478412 -45.62463779 7.70895807 -42.5 3.125 C-39.00434664 0.79456442 -37.6134271 0.53736756 -33.5 1.125 C-25.52581762 7.50434591 -25.46604666 23.51186439 -23.84082031 33.12890625 C-23.35303152 35.98575524 -22.83417267 38.83666908 -22.3125 41.6875 C-22.15394531 42.55503906 -21.99539063 43.42257813 -21.83203125 44.31640625 C-21.72246094 44.91324219 -21.61289062 45.51007813 -21.5 46.125 C-20.84 46.125 -20.18 46.125 -19.5 46.125 C-19.2525 44.91070312 -19.005 43.69640625 -18.75 42.4453125 C-17.35894337 36.18800672 -15.41906293 30.11179825 -13.5 24 C-12.7910552 21.7267531 -12.08270467 19.45332078 -11.375 17.1796875 C-11.04540283 16.12555664 -10.71580566 15.07142578 -10.3762207 13.98535156 C-9.66293211 11.65687869 -8.99313435 9.32640463 -8.35546875 6.9765625 C-6.86907305 2.02191016 -5.24979744 0.18749277 0 0 Z " fill="#060606" transform="translate(341.5,205.875)"/>
<path d="M0 0 C0.99193359 -0.00637985 1.98386719 -0.0127597 3.00585938 -0.01933289 C4.62911133 -0.02100212 4.62911133 -0.02100212 6.28515625 -0.02270508 C7.94901367 -0.02769768 7.94901367 -0.02769768 9.64648438 -0.03279114 C12.00373926 -0.03786822 14.36100137 -0.04019922 16.71826172 -0.04003906 C20.30448543 -0.04221019 23.89039393 -0.06031504 27.4765625 -0.0793457 C29.76692603 -0.08228263 32.05729103 -0.08426542 34.34765625 -0.08520508 C35.41363037 -0.09239059 36.47960449 -0.09957611 37.57788086 -0.10697937 C47.89005114 -0.07578761 55.78011546 0.89586807 63.53515625 8.20776367 C68.4169275 16.11959983 68.77589141 25.09853175 68.640625 34.15698242 C68.63638016 35.25122025 68.63213531 36.34545807 68.62776184 37.47285461 C68.61113106 40.9264209 68.57350845 44.37937738 68.53515625 47.83276367 C68.52008924 50.19147913 68.50640439 52.55020385 68.49414062 54.90893555 C68.46127875 60.65460889 68.40960587 66.39983333 68.34765625 72.14526367 C62.40765625 72.14526367 56.46765625 72.14526367 50.34765625 72.14526367 C50.33831055 70.66203613 50.32896484 69.17880859 50.31933594 67.65063477 C50.27940675 62.13763609 50.21363865 56.62519371 50.14013672 51.11254883 C50.1119443 48.72850704 50.09072122 46.34437209 50.07666016 43.96020508 C50.05520756 40.52921915 50.00854261 37.09935143 49.95703125 33.66870117 C49.95580261 32.60597992 49.95457397 31.54325867 49.95330811 30.44833374 C49.83448531 24.41889625 49.47152822 20.68414593 45.34765625 16.14526367 C38.08670698 12.81732859 28.92424516 13.13230221 21.34765625 15.33276367 C16.76477483 17.07625117 14.52238673 19.79580271 12.34765625 24.14526367 C12.22942654 25.68668542 12.17065814 27.23287464 12.14233398 28.77856445 C12.12238876 29.73940948 12.10244354 30.70025452 12.08189392 31.69021606 C12.05682518 33.24964432 12.05682518 33.24964432 12.03125 34.84057617 C12.0104689 35.90315643 11.98968781 36.96573669 11.96827698 38.06051636 C11.90275364 41.46369805 11.84388352 44.86695856 11.78515625 48.27026367 C11.74197368 50.57365733 11.69835948 52.87704293 11.65429688 55.18041992 C11.54706943 60.83528388 11.44530823 66.4902267 11.34765625 72.14526367 C8.70175611 72.17211046 6.05612529 72.19202724 3.41015625 72.20776367 C2.65541016 72.21614258 1.90066406 72.22452148 1.12304688 72.2331543 C-0.80228688 72.24178808 -2.72769956 72.197507 -4.65234375 72.14526367 C-6.52220196 70.27540546 -5.78013723 67.11378747 -5.78173828 64.62182617 C-5.7834906 63.9405365 -5.78524292 63.25924683 -5.78704834 62.55731201 C-5.79146617 60.294937 -5.78852913 58.03263954 -5.78515625 55.77026367 C-5.78582931 54.20467107 -5.78679935 52.63907857 -5.78805542 51.07348633 C-5.7895323 47.78815722 -5.78737816 44.50285526 -5.78271484 41.2175293 C-5.77701755 36.99705851 -5.78029661 32.77665131 -5.78628731 28.55618286 C-5.78989319 25.32209795 -5.78875421 22.08802823 -5.78615952 18.85394287 C-5.78549032 17.29734286 -5.78631841 15.74074149 -5.78863907 14.18414307 C-5.79116605 12.01229171 -5.7873244 9.84054471 -5.78173828 7.66870117 C-5.78094269 6.43039551 -5.78014709 5.19208984 -5.77932739 3.91625977 C-5.57203437 -0.60722163 -4.08639727 0.01776837 0 0 Z " fill="#0B0B0B" transform="translate(312.65234375,81.854736328125)"/>
<path d="M0 0 C1.8515625 1.48046875 1.8515625 1.48046875 3 3 C2.85968236 5.80635276 2.4305391 7.4351643 0.72265625 9.67578125 C-1 11 -1 11 -3.05859375 11.07421875 C-3.84363281 10.94660156 -4.62867188 10.81898438 -5.4375 10.6875 C-14.98362867 9.46113603 -22.61197091 8.7772649 -31 14 C-32.28322547 15.0595877 -32.28322547 15.0595877 -32.125 17.5 C-32.28322547 19.9404123 -32.28322547 19.9404123 -31 21 C-29.55847935 21.17890485 -28.10963272 21.29962762 -26.66015625 21.39453125 C-3.22481871 23.12445837 -3.22481871 23.12445837 3.5 30.4375 C7.69396709 36.04130348 8.90617516 41.05265707 8 48 C6.06163883 54.74745978 1.87266704 58.45193033 -4 62 C-14.4908752 67.54234916 -28.44657651 68.87950227 -39.96875 66.34765625 C-45.61826301 64.36522171 -50.20489572 61.43675186 -53 56 C-53.78866122 52.39469155 -53.73222516 49.30173363 -51.875 46 C-49.09766722 44.51875585 -47.10451073 44.65678776 -44 45 C-42.0859375 46.96875 -42.0859375 46.96875 -40.375 49.5 C-38.05179481 52.30462984 -36.78974123 53.78858202 -33.2421875 54.73828125 C-24.52281156 54.9545582 -16.26611553 52.4612205 -8.75 48.125 C-6.76116016 46.05825716 -6.76116016 46.05825716 -6.4375 43 C-7.15823239 39.15609392 -7.80490115 38.27407482 -11 36 C-14.52075706 35.32831466 -18.04935951 35.2192849 -21.625 35.0625 C-31.26026775 34.415612 -38.21864711 33.21214421 -45.625 26.6875 C-47.48489598 23.05224877 -47.73212266 19.94742422 -47 16 C-42.77175136 6.35959311 -35.52001249 1.02769759 -26 -3 C-17.28051521 -5.90649493 -8.14461849 -3.75808785 0 0 Z " fill="#67B836" transform="translate(419,213)"/>
<path d="M0 0 C5.10093124 2.26492962 7.09633979 5.34710379 9.37109375 10.3515625 C10.86892966 14.84507022 10.71910795 19.26775801 10.80859375 23.9765625 C10.85435547 24.93691406 10.90011719 25.89726563 10.94726562 26.88671875 C11.06126942 34.19287494 9.41731571 38.97853343 4.37109375 44.3515625 C-1.82418315 48.64564332 -8.39408226 47.66992659 -15.62890625 47.3515625 C-17.09263672 47.30515625 -17.09263672 47.30515625 -18.5859375 47.2578125 C-23.74866044 46.94820393 -26.98009657 46.35348279 -30.62890625 42.3515625 C-32.12093592 37.87547349 -31.89509378 33.47897236 -31.94140625 28.7890625 C-31.97041016 27.83708984 -31.99941406 26.88511719 -32.02929688 25.90429688 C-32.09912433 18.01379484 -30.73023657 11.05560419 -25.55859375 4.87890625 C-24.88054688 4.35425781 -24.2025 3.82960938 -23.50390625 3.2890625 C-22.47910156 2.46728516 -22.47910156 2.46728516 -21.43359375 1.62890625 C-15.78895714 -2.36632356 -6.53046553 -1.61078347 0 0 Z " fill="#F6F6F6" transform="translate(56.62890625,94.6484375)"/>
<path d="M0 0 C2.33875478 3.20040128 2.40871894 5.57011019 2.5 9.5 C2.55607422 11.07394531 2.55607422 11.07394531 2.61328125 12.6796875 C2.08939189 16.30365613 1.03997898 17.40988812 -1.8125 19.625 C-4.25 20.25 -4.25 20.25 -6.8125 19.625 C-8.00306523 18.08048294 -9.19314137 16.53556445 -10.375 14.984375 C-11.95948391 13.24369343 -11.95948391 13.24369343 -15.625 12.875 C-20.83083636 13.32512871 -24.21866688 16.0023586 -27.8125 19.625 C-34.39481032 27.54790305 -39.58663274 35.84568569 -39.14453125 46.390625 C-38.53838486 50.46963367 -36.64840781 52.78909219 -33.8125 55.625 C-24.79255723 56.93091764 -18.7998247 54.57562028 -11.6875 49.3125 C-8.8125 47.625 -8.8125 47.625 -5.5625 47.75 C-2.8125 48.625 -2.8125 48.625 -0.8125 50.625 C-0.25 53.875 -0.25 53.875 -0.8125 57.625 C-5.51763665 64.07508798 -15.14934814 68.17800793 -22.8125 69.625 C-31.65258163 70.39534997 -37.7779169 69.63439581 -44.75 64.08203125 C-50.16453162 59.15255142 -52.37362791 54.66360949 -53.16015625 47.42578125 C-53.7247922 34.26542026 -48.72181667 24.79917692 -40.8125 14.625 C-40.32910156 13.97660156 -39.84570312 13.32820312 -39.34765625 12.66015625 C-33.729151 5.54753326 -26.07515469 0.36127337 -16.98828125 -0.70703125 C-2.67280731 -2.02764693 -2.67280731 -2.02764693 0 0 Z " fill="#66B835" transform="translate(559.8125,208.375)"/>
<path d="M0 0 C0.70382813 0.061875 1.40765625 0.12375 2.1328125 0.1875 C9.40403288 1.36502557 14.9564628 6.9564628 20 12 C21.27785999 16.39878728 21.21841023 20.89252255 21.25 25.4375 C21.270625 26.17548828 21.29125 26.91347656 21.3125 27.67382812 C21.34706892 32.53508194 20.63893443 35.76882388 18 40 C13.45701528 44.54298472 8.53685058 45.82215893 2.2109375 46.265625 C0.94507813 46.26046875 -0.32078125 46.2553125 -1.625 46.25 C-2.89601562 46.25515625 -4.16703125 46.2603125 -5.4765625 46.265625 C-9.96579865 45.92719035 -12.75289376 45.42920582 -15.765625 41.9765625 C-16.25546875 41.20054687 -16.7453125 40.42453125 -17.25 39.625 C-18.00023437 38.46871094 -18.00023437 38.46871094 -18.765625 37.2890625 C-22.83234959 29.74760487 -21.94938622 18.5467592 -19.9375 10.4375 C-18.47706357 6.40615706 -16.60099735 3.57320943 -13.15234375 0.9921875 C-8.86011428 -0.9864446 -4.59317118 -0.53254159 0 0 Z " fill="#F4F4F4" transform="translate(147,95)"/>
<path d="M0 0 C0.68505615 -0.01877197 1.3701123 -0.03754395 2.07592773 -0.05688477 C8.16197108 0.020284 11.72848435 2.29098435 15.9375 6.5 C18.68626559 14.21768801 17.72247036 24.57224527 15.0390625 32.18359375 C12.01116204 38.55077451 7.79334756 44.11284026 1.17578125 46.9140625 C-4.64916593 48.43891778 -10.1252084 48.03990094 -15.875 46.4375 C-20.68390771 43.51443845 -24.26604505 39.88936484 -26.0625 34.5 C-27.08807809 24.39553389 -24.67361137 16.78997783 -18.75 8.625 C-12.97459003 1.79841708 -8.84163383 0.17721313 0 0 Z " fill="#FCFDFB" transform="translate(471.0625,219.5)"/>
<path d="M0 0 C4.73040932 1.76388144 6.17482558 3.01969767 8.6875 7.375 C8.76325459 11.16272973 8.1930586 12.75147773 5.8125 15.6875 C0.97503245 19.52901835 -5.16411793 18.78724501 -11.0625 18.9375 C-12.67125 19.0312793 -12.67125 19.0312793 -14.3125 19.12695312 C-22.08625932 19.28491745 -22.08625932 19.28491745 -25.61230469 16.66845703 C-28.43844614 13.53812783 -30.10651168 11.26761603 -31.0625 7.125 C-30.06589056 3.47076537 -28.44836633 2.39091407 -25.3125 0.375 C-19.07952101 -2.7414895 -6.82383405 -1.14891083 0 0 Z " fill="#F1F7EC" transform="translate(595.3125,122.625)"/>
<path d="M0 0 C1.07636719 -0.02449219 2.15273437 -0.04898438 3.26171875 -0.07421875 C9.52779319 -0.09739782 13.38480808 0.1279153 18.125 4.375 C21.17725296 8.25968558 20.125 10.89116537 20.125 16.375 C6.925 16.375 -6.275 16.375 -19.875 16.375 C-19.875 7.04166667 -19.875 7.04166667 -15.875 2.375 C-11.02428907 -0.70320935 -5.55340227 0.00660333 0 0 Z " fill="#E4E4E4" transform="translate(243.875,94.625)"/>
<path d="M0 0 C1.49080078 0.05317383 1.49080078 0.05317383 3.01171875 0.10742188 C3.97464844 0.15060547 4.93757812 0.19378906 5.9296875 0.23828125 C6.80608887 0.27606689 7.68249023 0.31385254 8.58544922 0.3527832 C12.58387496 0.87978202 15.33791358 1.73756812 17.9375 4.875 C19.38231718 8.29693543 19.20719703 11.00593846 19.125 14.6875 C14.14861444 14.73775871 9.17238359 14.77361551 4.19580078 14.79736328 C2.51055318 14.80728592 0.82532214 14.82082834 -0.85986328 14.83837891 C-12.03983867 14.95171199 -22.81924629 14.38882782 -33.875 12.6875 C-33.875 12.3575 -33.875 12.0275 -33.875 11.6875 C-28.925 11.6875 -23.975 11.6875 -18.875 11.6875 C-18.545 9.3775 -18.215 7.0675 -17.875 4.6875 C-12.95446696 -1.54517519 -7.23246366 -0.33974894 0 0 Z " fill="#EDF5E8" transform="translate(584.875,95.3125)"/>
<path d="M0 0 C1.60004883 0.01450195 1.60004883 0.01450195 3.23242188 0.02929688 C4.88661133 0.06700195 4.88661133 0.06700195 6.57421875 0.10546875 C7.69634766 0.11900391 8.81847656 0.13253906 9.97460938 0.14648438 C12.73747104 0.18175495 15.49934704 0.2310464 18.26171875 0.29296875 C18.26171875 0.62296875 18.26171875 0.95296875 18.26171875 1.29296875 C17.3013269 1.31484253 17.3013269 1.31484253 16.3215332 1.3371582 C13.40517044 1.41188257 10.48992188 1.50846168 7.57421875 1.60546875 C6.06311523 1.63930664 6.06311523 1.63930664 4.52148438 1.67382812 C-2.60172326 1.8869289 -2.60172326 1.8869289 -8.73828125 5.29296875 C-9.50140625 5.84984375 -10.26453125 6.40671875 -11.05078125 6.98046875 C-11.60765625 7.41359375 -12.16453125 7.84671875 -12.73828125 8.29296875 C-11.81317311 5.18124137 -11.15717459 3.60376948 -8.51489258 1.64331055 C-5.39179905 0.12446501 -3.45135718 -0.05536937 0 0 Z " fill="#C8C8C8" transform="translate(237.73828125,94.70703125)"/>
<path d="M0 0 C5.94 0 11.88 0 18 0 C18 0.99 18 1.98 18 3 C12.72 2.67 7.44 2.34 2 2 C1.67 2.66 1.34 3.32 1 4 C0.67 2.68 0.34 1.36 0 0 Z " fill="#89C763" transform="translate(405,86)"/>
<path d="M0 0 C0.66 0.33 1.32 0.66 2 1 C-2.29 5.29 -6.58 9.58 -11 14 C-11.66 13.67 -12.32 13.34 -13 13 C-4.738041 3.40546697 -4.738041 3.40546697 0 0 Z " fill="#7EC254" transform="translate(530,212)"/>
<path d="M0 0 C0.66 0.33 1.32 0.66 2 1 C-1.63 4.63 -5.26 8.26 -9 12 C-9.66 11.67 -10.32 11.34 -11 11 C-9.73347137 9.53792657 -8.46161082 8.08047074 -7.1875 6.625 C-6.47980469 5.81289062 -5.77210938 5.00078125 -5.04296875 4.1640625 C-3 2 -3 2 0 0 Z " fill="#79C04D" transform="translate(451,212)"/>
<path d="M0 0 C1.0725 0.2475 2.145 0.495 3.25 0.75 C3.25 1.08 3.25 1.41 3.25 1.75 C1.6103125 2.1521875 1.6103125 2.1521875 -0.0625 2.5625 C-4.92096005 4.12708883 -5.98785646 5.60678468 -8.75 9.75 C-8.44255622 6.36811839 -8.02337672 4.16006509 -6.125 1.3125 C-3.75 -0.25 -3.75 -0.25 0 0 Z " fill="#373737" transform="translate(341.75,206.25)"/>
<path d="M0 0 C0.66 0.33 1.32 0.66 2 1 C-0.97 3.97 -3.94 6.94 -7 10 C-7.66 9.67 -8.32 9.34 -9 9 C-6.21000549 5.51250686 -3.74764169 2.49842779 0 0 Z " fill="#E2F1D9" transform="translate(538,222)"/>
<path d="M0 0 C0.66 0.33 1.32 0.66 2 1 C-0.97 3.97 -3.94 6.94 -7 10 C-7 6.04435836 -5.59478606 4.89133304 -3 2 C-2.01 1.34 -1.02 0.68 0 0 Z " fill="#E2F1D8" transform="translate(459,222)"/>
<path d="M0 0 C0.66 0.33 1.32 0.66 2 1 C-0.64 3.64 -3.28 6.28 -6 9 C-6 5.06368636 -4.57142871 3.87394974 -2 1 C-1.34 0.67 -0.68 0.34 0 0 Z " fill="#7CC051" transform="translate(554,115)"/>
<path d="M0 0 C-1.5830577 4.2742558 -4.50568404 6.26531794 -8 9 C-6.68994234 5.06982701 -4.75047804 0 0 0 Z " fill="#323232" transform="translate(19,87)"/>
<path d="M0 0 C0.66 0 1.32 0 2 0 C0.44499019 3.81684226 -2.03595495 6.19195732 -5 9 C-5.66 8.67 -6.32 8.34 -7 8 C-5.88200014 6.66079162 -4.75538103 5.32877444 -3.625 4 C-2.68527344 2.88625 -2.68527344 2.88625 -1.7265625 1.75 C-1.15679688 1.1725 -0.58703125 0.595 0 0 Z " fill="#7CC151" transform="translate(823,10)"/>
<path d="M0 0 C0.66 0.33 1.32 0.66 2 1 C1.21625 1.763125 0.4325 2.52625 -0.375 3.3125 C-3.07257717 5.90891805 -3.07257717 5.90891805 -5 9 C-5.3125 6.75 -5.3125 6.75 -5 4 C-2.5 1.6875 -2.5 1.6875 0 0 Z " fill="#E2F1D8" transform="translate(391,224)"/>
<path d="M0 0 C0.8971875 0.309375 0.8971875 0.309375 1.8125 0.625 C0.69875 1.2746875 0.69875 1.2746875 -0.4375 1.9375 C-2.80583926 3.39079909 -4.99674065 4.92107606 -7.1875 6.625 C-4.6484375 -0.796875 -4.6484375 -0.796875 0 0 Z " fill="#D4D4D4" transform="translate(232.1875,96.375)"/>
</svg>
