<svg version="1.1" id="Layer_1" xmlns="http://www.w3.org/2000/svg" xmlns:xlink="http://www.w3.org/1999/xlink" x="0px" y="0px"
	 width="100%" viewBox="0 0 374 135" enable-background="new 0 0 374 135" xml:space="preserve">
<path fill="#FEFEFE" opacity="1.000000" stroke="none" 
	d="
M265.000000,136.000000 
	C176.666687,136.000000 88.833374,136.000000 1.000047,136.000000 
	C1.000031,91.000031 1.000031,46.000065 1.000016,1.000071 
	C125.666603,1.000047 250.333206,1.000047 374.999878,1.000024 
	C374.999908,45.999928 374.999908,90.999855 374.999939,135.999893 
	C338.500000,136.000000 302.000000,136.000000 265.000000,136.000000 
M239.993866,69.441940 
	C239.993866,69.441940 239.983597,69.799324 239.266556,69.999977 
	C233.493240,71.900703 232.224792,73.854004 232.750488,79.307327 
	C233.249573,84.484642 236.798615,85.859154 241.062897,85.996078 
	C247.382111,86.198975 253.712646,86.048569 260.298523,86.048569 
	C260.298523,79.817017 260.316711,74.195969 260.293823,68.575096 
	C260.266449,61.847149 255.440079,60.059078 249.343628,60.285149 
	C247.262405,60.362324 245.121017,60.848534 243.113937,60.511578 
	C237.149521,59.510258 233.889862,62.313328 234.162903,68.815819 
	C236.098358,68.904877 238.058472,68.995064 239.993866,69.441940 
M254.958420,102.287628 
	C273.797272,98.655952 291.500702,92.718170 306.400879,79.776207 
	C321.238708,66.888397 327.978302,49.255589 335.989044,32.222065 
	C334.370819,32.948261 333.403351,34.141907 332.425659,35.327114 
	C327.033173,41.864082 321.998505,48.742237 316.168091,54.862244 
	C304.487000,67.123550 291.527710,67.037819 279.650574,54.972599 
	C271.945343,47.145351 264.476074,39.086063 256.866333,31.164110 
	C256.155731,30.424318 255.194687,29.925047 254.349915,29.314098 
	C254.847366,31.475929 255.989197,33.066929 256.810211,34.809109 
	C262.112213,46.059948 267.832489,57.148617 272.441528,68.679802 
	C276.000366,77.583527 273.335571,85.907181 266.041870,92.123734 
	C262.684967,94.984856 258.449738,96.825523 254.576706,99.066513 
	C252.799835,100.094635 250.935913,100.972321 249.111465,101.918228 
	C249.242996,102.274551 249.374527,102.630867 249.506058,102.987190 
	C251.061340,102.836121 252.616623,102.685051 254.958420,102.287628 
M219.642258,60.274052 
	C217.518127,65.934807 215.393997,71.595566 212.872681,78.314804 
	C210.815506,71.754738 209.141190,66.415527 207.486359,61.138489 
	C204.653351,60.990261 202.069992,60.855099 199.126328,60.701084 
	C197.407089,66.131836 195.574295,71.921288 193.432129,78.688042 
	C191.248367,72.177757 189.372055,66.584015 187.575134,61.226952 
	C185.171021,61.226952 183.239059,61.226952 180.974167,61.226952 
	C183.533539,68.766327 186.147751,75.939720 188.362366,83.234436 
	C189.333817,86.434364 191.506149,85.901726 193.785843,86.054283 
	C196.299973,86.222542 197.674850,85.566101 198.364639,82.835098 
	C199.560684,78.099709 201.275314,73.495300 203.222229,67.436180 
	C205.421265,74.522942 207.165192,80.143028 208.934525,85.845001 
	C211.630035,85.845001 214.093842,85.845001 216.879654,85.845001 
	C219.699310,77.788780 222.532867,69.692856 225.476028,61.283764 
	C223.472458,61.069286 221.859390,60.896614 219.642258,60.274052 
M91.036591,86.046219 
	C95.750771,85.697853 99.019630,83.340439 99.651443,78.612427 
	C100.151588,74.869797 100.218010,70.955559 99.709641,67.222015 
	C99.138138,63.024818 96.182587,60.302505 91.911499,60.097031 
	C85.578896,59.792381 79.220772,60.018196 72.967636,60.018196 
	C72.967636,72.383003 72.967636,84.125740 72.967636,96.015228 
	C75.001640,96.015228 76.783905,96.015228 78.956238,96.015228 
	C78.956238,92.312767 78.956238,88.712669 78.956238,85.467545 
	C82.937302,85.695625 86.543633,85.902237 91.036591,86.046219 
M303.920074,35.371346 
	C297.129547,32.498402 291.602966,33.394917 287.636658,38.012817 
	C284.230042,41.979057 283.624115,48.537102 286.468689,52.843143 
	C289.337982,57.186604 293.452942,59.564896 298.704437,58.866261 
	C304.055695,58.154343 307.883362,55.141071 309.418182,49.794163 
	C311.069946,44.039856 309.206787,39.401623 303.920074,35.371346 
M122.499939,86.159576 
	C124.494408,86.061646 126.517601,86.143944 128.477905,85.831573 
	C134.085480,84.938011 135.440079,83.228912 135.720886,76.975937 
	C133.765823,76.975937 131.817673,76.975937 129.727509,76.975937 
	C128.824799,83.508392 123.835556,81.177025 120.122849,81.359726 
	C115.912285,81.566910 114.175926,79.217384 114.585114,74.711334 
	C118.085602,74.711334 121.562347,74.711334 125.039101,74.711334 
	C128.632187,74.711334 132.225281,74.711334 136.036270,74.711334 
	C135.879913,69.427261 136.501541,64.004089 131.743484,61.606815 
	C125.629890,58.526573 118.813515,58.940670 112.356148,61.318050 
	C111.110359,61.776703 109.954903,63.182888 109.300285,64.435486 
	C103.347481,75.826134 108.994980,85.752533 122.499939,86.159576 
M35.711769,79.449257 
	C37.683556,81.429039 39.417225,84.782814 41.664608,85.172287 
	C60.463783,88.430183 64.873604,85.068977 63.183872,67.653030 
	C62.748688,63.167591 60.006893,60.501190 55.810429,60.146263 
	C39.676224,58.781662 33.380398,59.511993 35.711769,79.449257 
M145.568054,85.946129 
	C147.331421,85.946129 149.094788,85.946129 151.115036,85.946129 
	C151.115036,80.341606 150.956665,75.209679 151.165833,70.092781 
	C151.329193,66.096123 154.277206,64.236946 159.500992,64.376411 
	C163.287598,64.477501 165.818649,65.608841 165.570923,70.197510 
	C165.294922,75.310097 165.507660,80.449066 165.507660,85.788666 
	C167.791977,85.788666 169.697021,85.788666 172.008148,85.788666 
	C172.008148,80.079247 172.079178,74.464012 171.988876,68.851387 
	C171.891693,62.810898 169.304153,60.048290 163.175858,59.826908 
	C157.155273,59.609413 151.120667,59.779491 145.307236,59.779491 
	C145.005783,60.754646 144.832108,61.054466 144.832275,61.354195 
	C144.836426,69.329430 144.858459,77.304649 145.568054,85.946129 
z"/>
<path fill="#63B630" opacity="1.000000" stroke="none" 
	d="
M254.565155,102.410805 
	C252.616623,102.685051 251.061340,102.836121 249.506058,102.987190 
	C249.374527,102.630867 249.242996,102.274551 249.111465,101.918228 
	C250.935913,100.972321 252.799835,100.094635 254.576706,99.066513 
	C258.449738,96.825523 262.684967,94.984856 266.041870,92.123734 
	C273.335571,85.907181 276.000366,77.583527 272.441528,68.679802 
	C267.832489,57.148617 262.112213,46.059948 256.810211,34.809109 
	C255.989197,33.066929 254.847366,31.475929 254.349915,29.314098 
	C255.194687,29.925047 256.155731,30.424318 256.866333,31.164110 
	C264.476074,39.086063 271.945343,47.145351 279.650574,54.972599 
	C291.527710,67.037819 304.487000,67.123550 316.168091,54.862244 
	C321.998505,48.742237 327.033173,41.864082 332.425659,35.327114 
	C333.403351,34.141907 334.370819,32.948261 335.989044,32.222065 
	C327.978302,49.255589 321.238708,66.888397 306.400879,79.776207 
	C291.500702,92.718170 273.797272,98.655952 254.565155,102.410805 
z"/>
<path fill="#64B632" opacity="1.000000" stroke="none" 
	d="
M219.944305,60.498997 
	C221.859390,60.896614 223.472458,61.069286 225.476028,61.283764 
	C222.532867,69.692856 219.699310,77.788780 216.879654,85.845001 
	C214.093842,85.845001 211.630035,85.845001 208.934525,85.845001 
	C207.165192,80.143028 205.421265,74.522942 203.222229,67.436180 
	C201.275314,73.495300 199.560684,78.099709 198.364639,82.835098 
	C197.674850,85.566101 196.299973,86.222542 193.785843,86.054283 
	C191.506149,85.901726 189.333817,86.434364 188.362366,83.234436 
	C186.147751,75.939720 183.533539,68.766327 180.974167,61.226952 
	C183.239059,61.226952 185.171021,61.226952 187.575134,61.226952 
	C189.372055,66.584015 191.248367,72.177757 193.432129,78.688042 
	C195.574295,71.921288 197.407089,66.131836 199.126328,60.701084 
	C202.069992,60.855099 204.653351,60.990261 207.486359,61.138489 
	C209.141190,66.415527 210.815506,71.754738 212.872681,78.314804 
	C215.393997,71.595566 217.518127,65.934807 219.944305,60.498997 
z"/>
<path fill="#060606" opacity="1.000000" stroke="none" 
	d="
M90.593277,86.077530 
	C86.543633,85.902237 82.937302,85.695625 78.956238,85.467545 
	C78.956238,88.712669 78.956238,92.312767 78.956238,96.015228 
	C76.783905,96.015228 75.001640,96.015228 72.967636,96.015228 
	C72.967636,84.125740 72.967636,72.383003 72.967636,60.018196 
	C79.220772,60.018196 85.578896,59.792381 91.911499,60.097031 
	C96.182587,60.302505 99.138138,63.024818 99.709641,67.222015 
	C100.218010,70.955559 100.151588,74.869797 99.651443,78.612427 
	C99.019630,83.340439 95.750771,85.697853 90.593277,86.077530 
M82.133606,80.892502 
	C92.864075,82.123634 95.770386,79.082016 93.504456,68.991135 
	C93.468224,68.829765 93.470322,68.602699 93.365540,68.522377 
	C91.731758,67.269966 90.191170,65.215477 88.414177,64.982056 
	C85.374458,64.582779 81.043129,63.377342 79.783356,67.497849 
	C78.470688,71.791367 77.675301,76.603554 82.133606,80.892502 
z"/>
<path fill="#62B62F" opacity="1.000000" stroke="none" 
	d="
M304.229858,35.582832 
	C309.206787,39.401623 311.069946,44.039856 309.418182,49.794163 
	C307.883362,55.141071 304.055695,58.154343 298.704437,58.866261 
	C293.452942,59.564896 289.337982,57.186604 286.468689,52.843143 
	C283.624115,48.537102 284.230042,41.979057 287.636658,38.012817 
	C291.602966,33.394917 297.129547,32.498402 304.229858,35.582832 
z"/>
<path fill="#0B0B0B" opacity="1.000000" stroke="none" 
	d="
M122.034653,86.158585 
	C108.994980,85.752533 103.347481,75.826134 109.300285,64.435486 
	C109.954903,63.182888 111.110359,61.776703 112.356148,61.318050 
	C118.813515,58.940670 125.629890,58.526573 131.743484,61.606815 
	C136.501541,64.004089 135.879913,69.427261 136.036270,74.711334 
	C132.225281,74.711334 128.632187,74.711334 125.039101,74.711334 
	C121.562347,74.711334 118.085602,74.711334 114.585114,74.711334 
	C114.175926,79.217384 115.912285,81.566910 120.122849,81.359726 
	C123.835556,81.177025 128.824799,83.508392 129.727509,76.975937 
	C131.817673,76.975937 133.765823,76.975937 135.720886,76.975937 
	C135.440079,83.228912 134.085480,84.938011 128.477905,85.831573 
	C126.517601,86.143944 124.494408,86.061646 122.034653,86.158585 
M122.544327,69.956429 
	C124.758148,69.956429 126.971970,69.956429 129.217163,69.956429 
	C129.450516,63.753922 125.170670,64.369385 122.002144,64.329659 
	C118.558754,64.286476 114.351822,64.109306 114.606812,69.956429 
	C117.009529,69.956429 119.308708,69.956429 122.544327,69.956429 
z"/>
<path fill="#64B531" opacity="1.000000" stroke="none" 
	d="
M240.018585,69.085251 
	C238.058472,68.995064 236.098358,68.904877 234.162903,68.815819 
	C233.889862,62.313328 237.149521,59.510258 243.113937,60.511578 
	C245.121017,60.848534 247.262405,60.362324 249.343628,60.285149 
	C255.440079,60.059078 260.266449,61.847149 260.293823,68.575096 
	C260.316711,74.195969 260.298523,79.817017 260.298523,86.048569 
	C253.712646,86.048569 247.382111,86.198975 241.062897,85.996078 
	C236.798615,85.859154 233.249573,84.484642 232.750488,79.307327 
	C232.224792,73.854004 233.493240,71.900703 240.090149,69.938278 
	C245.138214,69.876579 249.362671,69.876579 253.603302,69.876579 
	C254.355927,64.357330 250.519638,64.690300 247.319046,64.730186 
	C244.188553,64.769211 239.877945,63.359619 240.018585,69.085251 
M242.431107,81.271049 
	C245.380615,81.170670 248.373383,81.325089 251.256836,80.835640 
	C252.306427,80.657471 253.776947,78.966095 253.809097,77.926567 
	C253.840286,76.917328 252.420502,75.179344 251.379639,74.953918 
	C248.666443,74.366295 245.786667,74.133461 243.024231,74.365410 
	C241.678207,74.478432 239.438599,75.898781 239.396484,76.810181 
	C239.332214,78.201347 240.822159,79.664330 242.431107,81.271049 
z"/>
<path fill="#0B0B0B" opacity="1.000000" stroke="none" 
	d="
M35.566803,79.057205 
	C33.380398,59.511993 39.676224,58.781662 55.810429,60.146263 
	C60.006893,60.501190 62.748688,63.167591 63.183872,67.653030 
	C64.873604,85.068977 60.463783,88.430183 41.664608,85.172287 
	C39.417225,84.782814 37.683556,81.429039 35.566803,79.057205 
M56.898506,76.970917 
	C56.909798,74.324944 57.181091,71.643631 56.828239,69.047142 
	C56.637302,67.642105 55.695232,65.681213 54.554668,65.170036 
	C47.199211,61.873558 41.766075,65.510437 41.819164,73.434540 
	C41.821381,73.765305 41.762215,74.108459 41.829742,74.424904 
	C42.362865,76.923073 40.806034,80.839088 45.067982,81.023445 
	C49.159695,81.200462 54.155594,83.484581 56.898506,76.970917 
z"/>
<path fill="#040404" opacity="1.000000" stroke="none" 
	d="
M145.222763,85.613007 
	C144.858459,77.304649 144.836426,69.329430 144.832275,61.354195 
	C144.832108,61.054466 145.005783,60.754646 145.307236,59.779491 
	C151.120667,59.779491 157.155273,59.609413 163.175858,59.826908 
	C169.304153,60.048290 171.891693,62.810898 171.988876,68.851387 
	C172.079178,74.464012 172.008148,80.079247 172.008148,85.788666 
	C169.697021,85.788666 167.791977,85.788666 165.507660,85.788666 
	C165.507660,80.449066 165.294922,75.310097 165.570923,70.197510 
	C165.818649,65.608841 163.287598,64.477501 159.500992,64.376411 
	C154.277206,64.236946 151.329193,66.096123 151.165833,70.092781 
	C150.956665,75.209679 151.115036,80.341606 151.115036,85.946129 
	C149.094788,85.946129 147.331421,85.946129 145.222763,85.613007 
z"/>
<path fill="#F3F8F0" opacity="1.000000" stroke="none" 
	d="
M240.006226,69.263596 
	C239.877945,63.359619 244.188553,64.769211 247.319046,64.730186 
	C250.519638,64.690300 254.355927,64.357330 253.603302,69.876579 
	C249.362671,69.876579 245.138214,69.876579 240.448669,69.837952 
	C239.983597,69.799324 239.993866,69.441940 240.006226,69.263596 
z"/>
<path fill="#F8F8F8" opacity="1.000000" stroke="none" 
	d="
M81.726166,80.738159 
	C77.675301,76.603554 78.470688,71.791367 79.783356,67.497849 
	C81.043129,63.377342 85.374458,64.582779 88.414177,64.982056 
	C90.191170,65.215477 91.731758,67.269966 93.365540,68.522377 
	C93.470322,68.602699 93.468224,68.829765 93.504456,68.991135 
	C95.770386,79.082016 92.864075,82.123634 81.726166,80.738159 
z"/>
<path fill="#EEEEEE" opacity="1.000000" stroke="none" 
	d="
M122.076111,69.956429 
	C119.308708,69.956429 117.009529,69.956429 114.606812,69.956429 
	C114.351822,64.109306 118.558754,64.286476 122.002144,64.329659 
	C125.170670,64.369385 129.450516,63.753922 129.217163,69.956429 
	C126.971970,69.956429 124.758148,69.956429 122.076111,69.956429 
z"/>
<path fill="#F4F9F1" opacity="1.000000" stroke="none" 
	d="
M242.041656,81.183937 
	C240.822159,79.664330 239.332214,78.201347 239.396484,76.810181 
	C239.438599,75.898781 241.678207,74.478432 243.024231,74.365410 
	C245.786667,74.133461 248.666443,74.366295 251.379639,74.953918 
	C252.420502,75.179344 253.840286,76.917328 253.809097,77.926567 
	C253.776947,78.966095 252.306427,80.657471 251.256836,80.835640 
	C248.373383,81.325089 245.380615,81.170670 242.041656,81.183937 
z"/>
<path fill="#FBFBFB" opacity="1.000000" stroke="none" 
	d="
M56.849007,77.414101 
	C54.155594,83.484581 49.159695,81.200462 45.067982,81.023445 
	C40.806034,80.839088 42.362865,76.923073 41.829742,74.424904 
	C41.762215,74.108459 41.821381,73.765305 41.819164,73.434540 
	C41.766075,65.510437 47.199211,61.873558 54.554668,65.170036 
	C55.695232,65.681213 56.637302,67.642105 56.828239,69.047142 
	C57.181091,71.643631 56.909798,74.324944 56.849007,77.414101 
z"/>
</svg>
