<?xml version="1.0" encoding="UTF-8"?><svg xmlns="http://www.w3.org/2000/svg" version="1.1" width="925" height="465" viewBox="0 0 925 465">
<path d="M0 0 C305.25 0 610.5 0 925 0 C925 153.45 925 306.9 925 465 C619.75 465 314.5 465 0 465 C0 311.55 0 158.1 0 0 Z " fill="#FDFDFD" transform="translate(0,0)"/>
<path d="M0 0 C5.58995414 1.43222534 8.6043436 5.49613911 12.3125 9.625 C13.65134492 11.08685291 14.99117804 12.54780143 16.33203125 14.0078125 C17.28650146 15.05243652 17.28650146 15.05243652 18.26025391 16.11816406 C20.28300508 18.30611888 22.37026264 20.4162884 24.5 22.5 C26.84394186 24.79651022 29.03074164 27.15702588 31.15625 29.65625 C35.21946963 34.3300275 39.58594262 38.66000398 44 43 C49.01943311 47.93521444 53.87046221 52.91325787 58.46289062 58.24951172 C64.85853487 65.5329884 72.52918161 71.34888208 81 76 C82.18916016 76.65355469 82.18916016 76.65355469 83.40234375 77.3203125 C94.22435625 82.20987897 109.12550672 81.92975199 120.1875 77.875 C122.1507686 76.97062982 124.09134172 76.01456029 126 75 C127.33224609 74.31357422 127.33224609 74.31357422 128.69140625 73.61328125 C137.16071632 68.89374205 143.97727832 62.47757887 150.203125 55.109375 C152.162588 52.80913583 154.2023136 50.59695758 156.25 48.375 C160.23184946 43.96340624 163.90609238 39.37500673 167.54833984 34.68530273 C171.41960695 29.71035549 175.37573204 24.81008071 179.375 19.9375 C179.95789795 19.22327881 180.5407959 18.50905762 181.14135742 17.77319336 C184.26429036 13.97987142 187.45616237 10.40447323 191 7 C191.99 7.495 191.99 7.495 193 8 C164.56559237 68.51917839 164.56559237 68.51917839 151 88 C149.87851562 89.61068359 149.87851562 89.61068359 148.734375 91.25390625 C143.08314998 99.04975083 136.68518414 106.0904091 130 113 C129.45472656 113.5686377 128.90945313 114.13727539 128.34765625 114.72314453 C107.62971999 135.94967572 78.06615561 151.17354117 50 160 C48.69651171 160.42025397 47.3931312 160.84084235 46.08984375 161.26171875 C42.70038476 162.34689921 39.30025385 163.3927204 35.89355469 164.42236328 C34.18754504 164.94278861 32.48785222 165.48381371 30.7890625 166.02734375 C22.79579448 168.48453355 14.70299025 170.14985753 6.5 171.75 C5.3651416 171.97300781 4.2302832 172.19601562 3.06103516 172.42578125 C1.97870605 172.63074219 0.89637695 172.83570313 -0.21875 173.046875 C-1.6718457 173.32289551 -1.6718457 173.32289551 -3.15429688 173.60449219 C-6.13807523 174.01919028 -8.99143417 174.06792099 -12 174 C-12.33 173.01 -12.66 172.02 -13 171 C-12.38705078 170.68885254 -11.77410156 170.37770508 -11.14257812 170.05712891 C4.19034257 162.25746544 4.19034257 162.25746544 19.0625 153.625 C19.68511719 153.24553223 20.30773437 152.86606445 20.94921875 152.47509766 C24.09506939 150.48209041 26.71075716 148.38797164 29.30859375 145.7109375 C30.19675781 144.81632813 31.08492187 143.92171875 32 143 C32.66 143 33.32 143 34 143 C34.26941406 142.4225 34.53882813 141.845 34.81640625 141.25 C36.01421038 138.97298622 37.40299633 137.06162325 38.9375 135 C45.45313671 125.23451026 46.70565212 112.64690124 44.45947266 101.25976562 C42.84230898 94.32811018 40.5531689 87.97470886 37.625 81.5 C37.19002197 80.52063477 36.75504395 79.54126953 36.30688477 78.53222656 C34.88513784 75.34835316 33.44537262 72.1732129 32 69 C31.51740723 67.93716797 31.03481445 66.87433594 30.53759766 65.77929688 C25.3226425 54.33208496 19.97087484 42.95617842 14.4609375 31.6484375 C14.07517044 30.85659058 13.68940338 30.06474365 13.29194641 29.24890137 C11.38850284 25.34567326 9.47881816 21.44564666 7.56030273 17.54980469 C6.85919397 16.11914958 6.15810264 14.68848592 5.45703125 13.2578125 C5.13676971 12.61210297 4.81650818 11.96639343 4.48654175 11.30111694 C2.67976052 7.60587383 1.21019214 3.93095735 0 0 Z " fill="#64B631" transform="translate(619,94)"/>
<path d="M0 0 C9.60149283 6.52176871 13.33400457 15.77358271 15.9453125 26.78125 C19.0257968 44.34613066 17.34438719 62.36125217 7.9453125 77.78125 C3.4357567 83.96268521 -2.51663076 88.08903318 -10.0546875 89.78125 C-18.39355398 90.66903807 -25.65844681 89.02579572 -32.2421875 83.71875 C-43.04497339 73.32321199 -47.07841959 58.04903396 -47.54663086 43.38037109 C-47.59495134 28.91644157 -45.44499914 14.37310792 -35.3046875 3.40625 C-25.08944435 -6.00854499 -11.89914028 -7.05804519 0 0 Z " fill="#050505" transform="translate(518.0546875,306.21875)"/>
<path d="M0 0 C11.3540625 -0.12375 11.3540625 -0.12375 22.9375 -0.25 C26.49519165 -0.30462402 26.49519165 -0.30462402 30.12475586 -0.36035156 C32.02977598 -0.37204704 33.93480619 -0.38223683 35.83984375 -0.390625 C37.29299988 -0.4213208 37.29299988 -0.4213208 38.7755127 -0.45263672 C45.73927329 -0.45616849 52.26248513 0.5948004 57.588974 5.44769287 C65.44748275 14.49373213 64.76914906 26.60965027 64 38 C63.16080325 45.21884036 62.15299502 51.60296515 57 57 C54.96484375 58.328125 54.96484375 58.328125 52.9375 59.25 C52.26589844 59.56453125 51.59429687 59.8790625 50.90234375 60.203125 C46.67971062 61.97194874 43.19796451 62.05628643 38.70703125 61.87890625 C37.64798836 61.84348976 37.64798836 61.84348976 36.56755066 61.80735779 C34.31565493 61.73087055 32.06411613 61.64678253 29.8125 61.5625 C28.28452259 61.50926432 26.75652784 61.45652401 25.22851562 61.40429688 C21.48538566 61.27620498 17.74283455 61.1378381 14 61 C14 69.25 14 77.5 14 86 C9.38 86 4.76 86 0 86 C0 57.62 0 29.24 0 0 Z " fill="#090909" transform="translate(189,166)"/>
<path d="M0 0 C0.99064453 -0.01224609 1.98128906 -0.02449219 3.00195312 -0.03710938 C12.64058481 -0.05607062 22.27823299 0.54064088 29.8125 7.1875 C35.53942903 14.59100826 35.0535328 22.37433593 35.125 31.3125 C35.16850586 33.09140625 35.16850586 33.09140625 35.21289062 34.90625 C35.27090953 42.99319319 34.71924903 50.86289063 29.06176758 57.12548828 C24.24164083 61.58911122 19.62375333 63.43813158 13.0234375 63.453125 C11.91613281 63.45570313 10.80882812 63.45828125 9.66796875 63.4609375 C8.51941406 63.45320313 7.37085938 63.44546875 6.1875 63.4375 C5.06214844 63.44523437 3.93679687 63.45296875 2.77734375 63.4609375 C-17.07107417 63.4150452 -17.07107417 63.4150452 -22.77734375 57.80859375 C-23.24269531 57.27363281 -23.70804688 56.73867187 -24.1875 56.1875 C-24.80753906 55.47722656 -25.42757812 54.76695312 -26.06640625 54.03515625 C-32.09004694 46.72160463 -32.38536339 41.24773089 -32.4375 32 C-32.458125 31.10474609 -32.47875 30.20949219 -32.5 29.28710938 C-32.55108368 20.44324801 -31.12194678 12.1901734 -24.86328125 5.58984375 C-17.80122889 -0.31989238 -8.69753346 0.00555044 0 0 Z " fill="#0F0F0F" transform="translate(131.1875,164.8125)"/>
<path d="M0 0 C7.59 0 15.18 0 23 0 C33.04378454 18.98688036 33.04378454 18.98688036 37.125 27.0625 C37.68445313 28.16722656 38.24390625 29.27195312 38.8203125 30.41015625 C40 33 40 33 40 35 C40.66 35 41.32 35 42 35 C42.26353271 34.14768799 42.52706543 33.29537598 42.79858398 32.41723633 C44.03942614 28.88785863 45.54514058 25.66715092 47.22265625 22.32421875 C47.52819931 21.71359085 47.83374237 21.10296295 48.14854431 20.47383118 C48.78959317 19.19473461 49.43256991 17.91660256 50.07739258 16.6394043 C51.0673315 14.67792681 52.05071601 12.7132658 53.03320312 10.74804688 C57.85230045 1.14769955 57.85230045 1.14769955 59 0 C60.56172745 -0.08685603 62.12729344 -0.10702219 63.69140625 -0.09765625 C64.63564453 -0.09443359 65.57988281 -0.09121094 66.55273438 -0.08789062 C67.54595703 -0.07951172 68.53917969 -0.07113281 69.5625 -0.0625 C70.55958984 -0.05798828 71.55667969 -0.05347656 72.58398438 -0.04882812 C75.05604849 -0.03700007 77.52799518 -0.02051849 80 0 C79.525625 0.53625 79.05125 1.0725 78.5625 1.625 C69.7535249 15.01464215 76.25744681 46.92434859 77.3125 62.5 C77.37135376 63.42631226 77.43020752 64.35262451 77.49084473 65.30700684 C77.663035 67.96633744 77.85375148 70.62365682 78.05078125 73.28125 C78.10093887 74.07384216 78.1510965 74.86643433 78.20277405 75.68304443 C78.71877989 82.10655485 80.33856151 86.33856151 85 91 C75.76 91 66.52 91 57 91 C58.65 89.02 60.3 87.04 62 85 C62.68885528 82.42148963 62.68885528 82.42148963 62.5234375 79.796875 C62.51248047 78.82596924 62.50152344 77.85506348 62.49023438 76.85473633 C62.45220703 75.83017334 62.41417969 74.80561035 62.375 73.75 C62.35501953 72.68096436 62.33503906 71.61192871 62.31445312 70.51049805 C62.1607054 63.56536008 61.82104522 56.62984751 61.35913086 49.69873047 C60.77094354 40.47502735 60.9180096 31.23758557 61 22 C60.34 22 59.68 22 59 22 C58.73429199 22.8573877 58.46858398 23.71477539 58.19482422 24.59814453 C56.98523822 28.04202916 55.52708755 31.17241569 53.8828125 34.4296875 C53.58438446 35.02371368 53.28595642 35.61773987 52.97848511 36.22976685 C52.0311 38.11344226 51.07818786 39.99425542 50.125 41.875 C49.49311579 43.12871793 48.86160228 44.38262276 48.23046875 45.63671875 C47.02575167 48.0293385 45.81872451 50.42074259 44.61035156 52.81152344 C42.7294456 56.53569444 40.86211767 60.26640729 39 64 C35.8890243 60.26510801 33.90581466 56.06524263 31.76953125 51.734375 C31.37424728 50.94097717 30.97896332 50.14757935 30.57170105 49.33013916 C29.31485409 46.80528488 28.0636109 44.27770072 26.8125 41.75 C25.959353 40.03367088 25.10584147 38.31752291 24.25195312 36.6015625 C22.16373907 32.40312893 20.08054506 28.20223889 18 24 C17.24980748 29.5602966 16.75218224 35.06999301 16.46484375 40.671875 C16.40037804 41.87738007 16.40037804 41.87738007 16.33460999 43.10723877 C16.24500287 44.79798001 16.15684277 46.48879851 16.07006836 48.1796875 C15.93856116 50.72942554 15.80065109 53.27876066 15.66210938 55.828125 C13.78507422 72.94704631 13.78507422 72.94704631 18 89 C18.66 89.66 19.32 90.32 20 91 C11.75 91 3.5 91 -5 91 C-3.35 89.02 -1.7 87.04 0 85 C2.52210383 78.88599244 2.4766251 71.63225419 2.8515625 65.10546875 C2.91532074 64.07803055 2.97907898 63.05059235 3.04476929 61.99201965 C3.1775627 59.82309825 3.30678374 57.65395547 3.43261719 55.48461914 C3.62225755 52.234501 3.82584787 48.9854837 4.03125 45.73632812 C4.6451599 35.71985813 5.13446806 25.7121924 5.2109375 15.67578125 C5.22250885 14.85248825 5.2340802 14.02919525 5.2460022 13.18095398 C5.23951763 6.8316759 4.43814012 4.43814012 0 0 Z " fill="#050505" transform="translate(321,303)"/>
<path d="M0 0 C1.9999203 -0.02743793 3.99995477 -0.04659055 6 -0.0625 C7.670625 -0.07990234 7.670625 -0.07990234 9.375 -0.09765625 C13.32458564 0.00874423 17.08889965 0.45536212 21 1 C29.72551414 26.9701529 29.72551414 26.9701529 33 38 C35.14500001 35.85499999 35.70237272 34.51356091 36.734375 31.703125 C37.05849365 30.83268555 37.3826123 29.96224609 37.71655273 29.06542969 C38.22810913 27.67179199 38.22810913 27.67179199 38.75 26.25 C47.69920115 2.30079885 47.69920115 2.30079885 50 0 C54.58971948 -0.15299065 58.5043637 0.0642609 63 1 C60.9453336 8.06350644 58.66853538 15.02486579 56.2421875 21.96875 C55.7194072 23.47193787 55.7194072 23.47193787 55.18606567 25.00549316 C54.4559594 27.10330252 53.72481672 29.20075144 52.99267578 31.29785156 C51.86873418 34.51795162 50.74858536 37.73935314 49.62890625 40.9609375 C48.91688859 43.00528564 48.20465676 45.0495592 47.4921875 47.09375 C47.15677948 48.05825073 46.82137146 49.02275146 46.47579956 50.01647949 C46.00993942 51.34926941 46.00993942 51.34926941 45.53466797 52.70898438 C45.12521439 53.88285706 45.12521439 53.88285706 44.70748901 55.08044434 C44 57 44 57 43 59 C36.73 59 30.46 59 24 59 C21.18705478 52.2440711 18.87023588 45.55370454 16.9375 38.5 C16.44728747 36.73939584 15.95640383 34.9789784 15.46484375 33.21875 C15.1088208 31.93871094 15.1088208 31.93871094 14.74560547 30.6328125 C13.54869027 26.40637716 12.27801926 22.20251102 11 18 C9.21701561 20.67447658 8.52019653 22.2461622 7.6875 25.25 C6.21418621 30.36546515 4.55123381 35.40646888 2.83886719 40.44555664 C1.33314261 44.90538567 0.01445428 49.38366188 -1.12890625 53.94921875 C-2.31603956 56.74403931 -3.58039045 58.15668259 -6 60 C-9.05859375 60.53125 -9.05859375 60.53125 -12.4375 60.5 C-13.54996094 60.5103125 -14.66242188 60.520625 -15.80859375 60.53125 C-19.87970539 59.85356189 -21.11569997 58.98250898 -24 56 C-25.64989498 52.56237444 -26.77183267 48.98725669 -27.91796875 45.35546875 C-28.26128738 44.3123201 -28.60460602 43.26917145 -28.95832825 42.19441223 C-30.0503134 38.86362959 -31.11897946 35.52587481 -32.1875 32.1875 C-32.91712972 29.95198708 -33.64823369 27.71695475 -34.38085938 25.48242188 C-37.03727254 17.34936978 -39.64922091 9.22772681 -42 1 C-36.72 1 -31.44 1 -26 1 C-21.71 13.87 -17.42 26.74 -13 40 C-8.82518716 29.23959426 -8.82518716 29.23959426 -5.375 18.3125 C-4.96243468 16.87233993 -4.5496749 15.43223555 -4.13671875 13.9921875 C-3.94384277 13.3125293 -3.7509668 12.63287109 -3.55224609 11.93261719 C-2.78857813 9.26011692 -1.99031317 6.59846761 -1.1875 3.9375 C-0.95417969 3.16277344 -0.72085938 2.38804687 -0.48046875 1.58984375 C-0.24263672 0.80287109 -0.24263672 0.80287109 0 0 Z " fill="#66B735" transform="translate(487,168)"/>
<path d="M0 0 C1.15027679 -0.00574036 1.15027679 -0.00574036 2.3237915 -0.01159668 C3.9408093 -0.01430766 5.55787157 -0.00700353 7.17480469 0.00976562 C9.62016434 0.03107173 12.06254689 0.01000052 14.5078125 -0.015625 C30.88327455 -0.04666308 30.88327455 -0.04666308 37.890625 4.53125 C42.0946207 8.83644272 44.02017361 13.20961735 44.00415039 19.1862793 C44.00403709 20.59740242 44.00403709 20.59740242 44.00392151 22.03703308 C43.99876022 23.04961685 43.99359894 24.06220062 43.98828125 25.10546875 C43.9868663 26.14443802 43.98545135 27.18340729 43.98399353 28.25386047 C43.97839156 31.57551948 43.96583872 34.89711133 43.953125 38.21875 C43.94811025 40.46940007 43.9435473 42.72005119 43.93945312 44.97070312 C43.92842149 50.49090837 43.91168143 56.01107439 43.890625 61.53125 C36.93472373 61.60766436 29.97893177 61.6600023 23.02270508 61.69604492 C20.65905716 61.71107941 18.29543689 61.73151242 15.93188477 61.75756836 C12.52353059 61.79418645 9.11554708 61.81103031 5.70703125 61.82421875 C4.65979385 61.83970261 3.61255646 61.85518646 2.53358459 61.87113953 C-4.10203977 61.87264257 -11.34151132 61.6440946 -16.69578552 57.22062683 C-21.8017028 51.54486739 -22.59340138 45.50133145 -22.4140625 38.1484375 C-21.96266391 34.27103935 -20.79310076 32.34916205 -18.109375 29.53125 C-11.82799764 24.89288885 -6.97249313 23.37983854 0.83984375 23.43359375 C1.61246048 23.4350087 2.38507721 23.43642365 3.18110657 23.43788147 C5.64681889 23.44347534 8.11244015 23.45602667 10.578125 23.46875 C12.25064973 23.47376579 13.92317588 23.47832856 15.59570312 23.48242188 C19.69404546 23.49344276 23.79231979 23.51070316 27.890625 23.53125 C27.66231799 21.90306054 27.40718924 20.2786151 27.140625 18.65625 C27.00140625 17.75132812 26.8621875 16.84640625 26.71875 15.9140625 C26.10926314 13.43326696 26.10926314 13.43326696 24.11523438 12.22973633 C19.94992711 10.92190664 15.72030488 11.20406316 11.390625 11.21875 C10.44058594 11.20263672 9.49054687 11.18652344 8.51171875 11.16992188 C7.59519531 11.16927734 6.67867187 11.16863281 5.734375 11.16796875 C4.90099609 11.16498779 4.06761719 11.16200684 3.20898438 11.15893555 C0.24644577 11.63470128 -1.03968814 12.35273804 -3.109375 14.53125 C-3.439375 16.51125 -3.769375 18.49125 -4.109375 20.53125 C-8.729375 20.53125 -13.349375 20.53125 -18.109375 20.53125 C-18.52856986 13.71933359 -18.22288491 10.0520133 -14.109375 4.53125 C-9.49977377 0.7515474 -5.81070657 -0.06488442 0 0 Z " fill="#66B634" transform="translate(589.109375,166.46875)"/>
<path d="M0 0 C3.83096638 3.43804675 5.80459019 7.28877057 7.4375 12.1875 C7.4375 18.1275 7.4375 24.0675 7.4375 30.1875 C-9.3925 30.1875 -26.2225 30.1875 -43.5625 30.1875 C-42.51918508 39.03372649 -42.51918508 39.03372649 -37.5625 44.1875 C-33.82092335 46.05828832 -29.30457312 45.37225528 -25.1875 45.375 C-24.2284375 45.38724609 -23.269375 45.39949219 -22.28125 45.41210938 C-21.35570312 45.41404297 -20.43015625 45.41597656 -19.4765625 45.41796875 C-18.2073999 45.42413208 -18.2073999 45.42413208 -16.91259766 45.43041992 C-14.34082813 45.16458669 -12.74253933 44.56024068 -10.5625 43.1875 C-9.44776866 41.25646092 -9.44776866 41.25646092 -8.8125 39.0625 C-8.19375 37.144375 -8.19375 37.144375 -7.5625 35.1875 C-2.9425 35.1875 1.6775 35.1875 6.4375 35.1875 C6.84006366 41.62851855 6.79835696 47.07477116 2.4375 52.1875 C-8.84877835 59.3527336 -24.72601331 58.66917353 -37.4296875 56.5390625 C-46.540234 53.77040291 -53.99482162 48.47058155 -58.6328125 40.07421875 C-62.8452195 31.52551042 -62.66068014 22.82799933 -59.8125 13.8125 C-56.96994033 6.17249751 -53.54751904 0.55574952 -45.8984375 -3.078125 C-30.52787685 -8.18812669 -14.50259259 -7.37851202 0 0 Z " fill="#0E0E0E" transform="translate(330.5625,170.8125)"/>
<path d="M0 0 C2.85019136 2.02237843 4.90527858 4.2144662 7 7 C7.5053125 7.62390625 8.010625 8.2478125 8.53125 8.890625 C13.75946506 16.50058247 12.90450703 25.9554578 11.59375 34.71484375 C9.67694553 41.89024995 4.64878744 47.42438534 -1.32421875 51.640625 C-9.08191511 55.9879331 -17.53838087 57.14551792 -26.1875 55 C-35.8395978 51.54507575 -41.57034565 45.04915103 -46 36 C-48.44640375 28.66078876 -48.27626441 18.5791168 -45.0625 11.5 C-35.2530364 -4.9787873 -16.69586915 -8.39762466 0 0 Z " fill="#63B630" transform="translate(738,108)"/>
<path d="M0 0 C1.18118408 0.00870117 1.18118408 0.00870117 2.38623047 0.01757812 C9.0537157 0.16438514 14.98785206 1.40972371 21.375 3.375 C21.375 9.975 21.375 16.575 21.375 23.375 C18.375 20.375 18.375 20.375 16.25 17.4375 C12.23366896 12.58644956 6.78866589 10.70227673 0.6875 9.875 C-3.31522587 10.47918504 -5.49922379 11.84460973 -8.625 14.375 C-10.58702704 18.29905409 -9.96067543 22.30083864 -8.6875 26.375 C-4.43158727 32.56541851 1.84959713 36.14376683 8.3125 39.75 C16.53299523 44.43242768 24.71138386 50.32195107 28.375 59.375 C28.9488517 62.16961667 29.04442591 64.84005686 29 67.6875 C28.9901709 68.43298096 28.9803418 69.17846191 28.97021484 69.9465332 C28.68958584 76.57441465 27.11099845 81.53604506 22.375 86.375 C13.15447717 93.49181131 4.43749851 95.30525647 -6.984375 94.1328125 C-14.08903517 92.89831481 -22.04861059 89.1065945 -26.625 83.375 C-26.47460946 75.5546917 -23.72334493 67.8704833 -21.625 60.375 C-20.965 60.375 -20.305 60.375 -19.625 60.375 C-19.3775 61.550625 -19.13 62.72625 -18.875 63.9375 C-17.0039233 71.29187093 -13.78986073 75.97152805 -7.625 80.375 C-3.4751549 82.66833545 0.71716618 82.96748375 5.375 82.375 C9.6173684 80.83661076 9.6173684 80.83661076 12.515625 77.5703125 C14.49992388 72.50133082 14.127044 67.11837473 12 62.1875 C7.34174421 57.19651165 1.64631671 53.75981262 -4.14453125 50.2109375 C-13.13196289 44.66710872 -20.37676574 39.37732677 -24.625 29.375 C-25.51221733 23.00182221 -25.81664921 16.4210012 -22.4375 10.75 C-16.55157902 2.99579511 -9.51912891 -0.16944413 0 0 Z " fill="#050505" transform="translate(436.625,301.625)"/>
<path d="M0 0 C4.99469612 -0.05019019 9.98923904 -0.08608488 14.98413086 -0.10986328 C16.67621423 -0.11979692 18.36828102 -0.13334843 20.06030273 -0.15087891 C50.87672726 -0.46169422 50.87672726 -0.46169422 59 6 C64.41384467 12.53395046 64.29091056 21.98846315 64.1953125 30.06640625 C64.1924826 30.98590561 64.18965271 31.90540497 64.18673706 32.85276794 C64.17564584 35.75615093 64.15056263 38.65921209 64.125 41.5625 C64.11495588 43.54491738 64.10583255 45.52733966 64.09765625 47.50976562 C64.07574286 52.33996555 64.04129081 57.16992843 64 62 C58.72 62 53.44 62 48 62 C47.9906543 60.68805664 47.98130859 59.37611328 47.97167969 58.02441406 C47.93180339 53.15623029 47.86605087 48.28868005 47.79248047 43.42089844 C47.76425721 41.3142104 47.74304944 39.2074162 47.72900391 37.10058594 C47.70759339 34.0717122 47.6609524 31.04411669 47.609375 28.015625 C47.60814636 27.07382385 47.60691772 26.13202271 47.60565186 25.16168213 C47.53579265 19.94676125 47.53579265 19.94676125 45.14941406 15.43652344 C39.19702147 11.45834556 30.88099609 12.49868991 24 13 C20.36327825 14.07982661 17.8879203 15.54331903 15.85586548 18.87701416 C14.94190214 21.14411253 14.72623824 22.78313499 14.68115234 25.21777344 C14.66128265 26.03832214 14.64141296 26.85887085 14.62094116 27.70428467 C14.60361435 29.01855438 14.60361435 29.01855438 14.5859375 30.359375 C14.56657135 31.26375305 14.5472052 32.1681311 14.5272522 33.09991455 C14.46756169 35.98318099 14.42111314 38.86648758 14.375 41.75 C14.33681053 43.70704848 14.29775823 45.66408033 14.2578125 47.62109375 C14.16186875 52.41392711 14.07779873 57.20683915 14 62 C9.38 62 4.76 62 0 62 C-0.84458794 54.68303355 -1.14719976 47.51823444 -1.1328125 40.15625 C-1.13376923 39.06534058 -1.13472595 37.97443115 -1.13571167 36.85046387 C-1.13638769 34.56469667 -1.13457405 32.27892749 -1.13037109 29.99316406 C-1.12497291 26.4823788 -1.13035687 22.97171905 -1.13671875 19.4609375 C-1.13605868 17.23437472 -1.13477899 15.00781201 -1.1328125 12.78125 C-1.13483673 11.72925415 -1.13686096 10.6772583 -1.13894653 9.59338379 C-1.13579437 8.62477417 -1.13264221 7.65616455 -1.12939453 6.65820312 C-1.12859894 5.80456177 -1.12780334 4.95092041 -1.12698364 4.07141113 C-1 2 -1 2 0 0 Z " fill="#0A0A0A" transform="translate(360,165)"/>
<path d="M0 0 C1.98 0 3.96 0 6 0 C6.495 12.375 6.495 12.375 7 25 C4.86981043 22.15974724 3.03221044 19.44087154 1.1875 16.4375 C-1.45103639 12.51517696 -3.31338832 10.35190722 -8 9 C-12.80266761 8.38789531 -16.70790599 8.50304076 -21.25 10.25 C-29.32642205 18.32642205 -32.19259407 29.80943362 -32.3293457 40.93774414 C-32.32378662 41.72141357 -32.31822754 42.50508301 -32.3125 43.3125 C-32.30758545 44.14064209 -32.3026709 44.96878418 -32.29760742 45.82202148 C-32.102466 56.09446589 -30.02949706 66.45560909 -24 75 C-20.49515798 78.33185626 -16.85887221 80.24748471 -12 80.5625 C-6.2743898 80.1567481 -1.64892389 77.6934894 2.3125 73.625 C4.10582494 70.83538342 5.60190436 68.00590562 7 65 C7.33 65 7.66 65 8 65 C8.41770428 66.98409532 8.72295572 68.99142897 9 71 C9.12632812 71.7734375 9.25265625 72.546875 9.3828125 73.34375 C9.77106618 77.40162722 9.76587244 79.95112619 7.30859375 83.31640625 C0.83655536 89.42826163 -5.55774682 92.02419126 -14.375 92.4375 C-23.0232733 92.14720831 -30.86280836 89.26914878 -37.1484375 83.2421875 C-46.9208156 71.40812625 -48.35902274 58.97445805 -48.375 44.1875 C-48.39949219 43.00607422 -48.42398438 41.82464844 -48.44921875 40.60742188 C-48.49160687 27.71436807 -45.45000562 15.65181165 -36.26953125 6.22265625 C-25.70122503 -3.31914782 -13.21517379 -3.64556518 0 0 Z " fill="#050505" transform="translate(591,304)"/>
<path d="M0 0 C7.9387895 3.72637058 11.54817124 11.48486103 14.75 19.25 C18.13726225 28.66027198 19.14917292 37.87723758 19.25 47.8125 C19.25942627 48.50569336 19.26885254 49.19888672 19.27856445 49.91308594 C19.22681076 58.08821627 17.55133366 66.35268435 11.6875 72.375 C8.38117613 74.37417257 6.8058887 74.62136958 3 74 C-5.90589975 69.54705013 -9.53959674 61.44572858 -12.921875 52.5390625 C-15.59075425 43.77817627 -16.33997078 35.517274 -16.3125 26.375 C-16.32861328 25.29476563 -16.34472656 24.21453125 -16.36132812 23.1015625 C-16.36664628 14.37978285 -15.19828635 7.59817579 -9 1 C-5.89046621 -0.5547669 -3.43733239 -0.28644437 0 0 Z " fill="#F6F6F6" transform="translate(502,312)"/>
<path d="M0 0 C4.13453029 5.63049747 4.62207059 11.33990965 4.5 18.125 C4.51546875 18.99253906 4.5309375 19.86007813 4.546875 20.75390625 C4.50536742 27.57152571 2.86185663 30.68024631 -1.5625 35.8125 C-5.20765229 38.82371276 -9.85283933 38.18371099 -14.3125 38.1875 C-15.05951172 38.19974609 -15.80652344 38.21199219 -16.57617188 38.22460938 C-21.69203101 38.23808398 -26.41512309 37.98812947 -30.63598633 34.74169922 C-33.42360371 31.18221069 -32.51078979 26.1472977 -32.5 21.8125 C-32.52835937 20.79607422 -32.55671875 19.77964844 -32.5859375 18.73242188 C-32.60592859 10.99087399 -30.90535993 6.01179531 -25.48608398 0.44482422 C-18.31174991 -5.9592558 -7.87405081 -4.8819115 0 0 Z " fill="#F8F8F8" transform="translate(147,179)"/>
<path d="M0 0 C0.69029297 -0.01095703 1.38058594 -0.02191406 2.09179688 -0.03320312 C8.69832417 0.06072854 12.83017648 3.05442708 17.375 7.5625 C18.11169922 8.2740625 18.11169922 8.2740625 18.86328125 9 C22.94663117 14.32032563 21.54490125 23.20975117 21.0625 29.5625 C19.92183576 33.62326468 18.11055753 35.89000979 14.51171875 38.19921875 C10.06560711 39.95651542 6.23809083 40.11400675 1.5 40.125 C0.66275391 40.16173828 -0.17449219 40.19847656 -1.03710938 40.23632812 C-6.97846953 40.27866561 -6.97846953 40.27866561 -9.57641602 38.33862305 C-14.57168554 32.58116237 -16.52522599 25.40615386 -16.22265625 17.89453125 C-15.52708702 12.20610892 -14.33622027 7.38702994 -10.8203125 2.80078125 C-7.20001808 -0.01009775 -4.40115911 -0.15120045 0 0 Z " fill="#F5F5F5" transform="translate(217.9375,176.4375)"/>
<path d="M0 0 C3.77384528 1.5240529 5.33047173 2.72381672 7.25 6.3125 C7.33372646 9.74528494 6.54565272 10.96916136 4.3125 13.5625 C-0.0277427 16.04263869 -3.82466458 16.12175395 -8.75 16.3125 C-10.28720703 16.45945313 -10.28720703 16.45945313 -11.85546875 16.609375 C-19.56955527 17.10767624 -19.56955527 17.10767624 -22.80859375 14.92578125 C-25.69903317 11.73035542 -27.48353911 8.70910476 -27.75 4.3125 C-19.87128996 -2.11486872 -9.89106493 -1.99325643 0 0 Z " fill="#F0F7EC" transform="translate(610.75,200.6875)"/>
<path d="M0 0 C0.83789062 -0.01611328 1.67578125 -0.03222656 2.5390625 -0.04882812 C7.65502957 -0.05285011 11.19356968 0.4766633 15.625 3.3125 C18.48500512 6.95250652 17.625 9.22714124 17.625 14.3125 C6.075 14.3125 -5.475 14.3125 -17.375 14.3125 C-17.375 8.13516335 -17.09057294 6.85375581 -13.375 2.3125 C-9.05436959 -0.35220846 -4.93325498 -0.01880051 0 0 Z " fill="#EAEAEA" transform="translate(304.375,175.6875)"/>
<path d="M0 0 C1.40572266 -0.01063477 1.40572266 -0.01063477 2.83984375 -0.02148438 C7.81339024 0.02437102 11.5216563 0.10319145 15.5 3.4375 C16.5 5.4375 16.5 5.4375 16.5 13.4375 C5.61 13.4375 -5.28 13.4375 -16.5 13.4375 C-16.5 13.1075 -16.5 12.7775 -16.5 12.4375 C-19.14 12.1075 -21.78 11.7775 -24.5 11.4375 C-24.5 11.1075 -24.5 10.7775 -24.5 10.4375 C-21.53 10.4375 -18.56 10.4375 -15.5 10.4375 C-15.603125 9.53 -15.70625 8.6225 -15.8125 7.6875 C-15.5 4.4375 -15.5 4.4375 -13.63671875 2.26171875 C-9.10462728 -0.37400568 -5.14795538 -0.10975696 0 0 Z " fill="#EEF6EA" transform="translate(600.5,176.5625)"/>
</svg>